<ttFont>
    <TTGlyph name="A" xMin="18" yMin="0" xMax="540" yMax="685">
      <contour>
        <pt x="423" y="0" on="1"/>
        <pt x="423" y="143" on="1"/>
        <pt x="199" y="143" on="1"/>
        <pt x="130" y="0" on="1"/>
        <pt x="18" y="0" on="1"/>
        <pt x="341" y="685" on="1"/>
        <pt x="540" y="685" on="1"/>
        <pt x="534" y="0" on="1"/>
      </contour>
      <contour>
        <pt x="406" y="588" on="1"/>
        <pt x="242" y="241" on="1"/>
        <pt x="426" y="241" on="1"/>
        <pt x="431" y="588" on="1"/>
      </contour>
    </TTGlyph>
    <TTGlyph name="AE" xMin="19" yMin="0" xMax="889" yMax="693">
      <contour>
        <pt x="328" y="0" on="1"/>
        <pt x="362" y="144" on="1"/>
        <pt x="194" y="144" on="1"/>
        <pt x="125" y="0" on="1"/>
        <pt x="19" y="0" on="1"/>
        <pt x="343" y="693" on="1"/>
        <pt x="889" y="693" on="1"/>
        <pt x="866" y="587" on="1"/>
        <pt x="572" y="589" on="1"/>
        <pt x="526" y="395" on="1"/>
        <pt x="763" y="395" on="1"/>
        <pt x="740" y="294" on="1"/>
        <pt x="502" y="294" on="1"/>
        <pt x="457" y="105" on="1"/>
        <pt x="750" y="105" on="1"/>
        <pt x="727" y="0" on="1"/>
      </contour>
      <contour>
        <pt x="399" y="588" on="1"/>
        <pt x="241" y="247" on="1"/>
        <pt x="387" y="247" on="1"/>
        <pt x="467" y="588" on="1"/>
      </contour>
    </TTGlyph>
    <TTGlyph name="AEacute" xMin="19" yMin="0" xMax="889" yMax="951">
      <contour>
        <pt x="328" y="0" on="1"/>
        <pt x="362" y="144" on="1"/>
        <pt x="194" y="144" on="1"/>
        <pt x="125" y="0" on="1"/>
        <pt x="19" y="0" on="1"/>
        <pt x="343" y="693" on="1"/>
        <pt x="889" y="693" on="1"/>
        <pt x="866" y="587" on="1"/>
        <pt x="572" y="589" on="1"/>
        <pt x="526" y="395" on="1"/>
        <pt x="763" y="395" on="1"/>
        <pt x="740" y="294" on="1"/>
        <pt x="502" y="294" on="1"/>
        <pt x="457" y="105" on="1"/>
        <pt x="750" y="105" on="1"/>
        <pt x="727" y="0" on="1"/>
      </contour>
      <contour>
        <pt x="399" y="588" on="1"/>
        <pt x="241" y="247" on="1"/>
        <pt x="387" y="247" on="1"/>
        <pt x="467" y="588" on="1"/>
      </contour>
      <contour>
        <pt x="517" y="774" on="1"/>
        <pt x="508" y="859" on="1"/>
        <pt x="756" y="951" on="1"/>
        <pt x="766" y="854" on="1"/>
      </contour>
    </TTGlyph>
    <TTGlyph name="Aacute" xMin="18" yMin="0" xMax="618" yMax="951">
      <contour>
        <pt x="369" y="774" on="1"/>
        <pt x="360" y="859" on="1"/>
        <pt x="608" y="951" on="1"/>
        <pt x="618" y="854" on="1"/>
      </contour>
      <contour>
        <pt x="423" y="0" on="1"/>
        <pt x="423" y="143" on="1"/>
        <pt x="199" y="143" on="1"/>
        <pt x="130" y="0" on="1"/>
        <pt x="18" y="0" on="1"/>
        <pt x="341" y="685" on="1"/>
        <pt x="540" y="685" on="1"/>
        <pt x="534" y="0" on="1"/>
      </contour>
      <contour>
        <pt x="406" y="588" on="1"/>
        <pt x="242" y="241" on="1"/>
        <pt x="426" y="241" on="1"/>
        <pt x="431" y="588" on="1"/>
      </contour>
    </TTGlyph>
    <TTGlyph name="Abreve" xMin="18" yMin="0" xMax="644" yMax="925">
      <contour>
        <pt x="431" y="913" on="1"/>
        <pt x="431" y="874" on="0"/>
        <pt x="477" y="874" on="1"/>
        <pt x="501" y="874" on="0"/>
        <pt x="538" y="902" on="0"/>
        <pt x="546" y="925" on="1"/>
        <pt x="644" y="925" on="1"/>
        <pt x="600" y="788" on="0"/>
        <pt x="459" y="788" on="1"/>
        <pt x="389" y="788" on="0"/>
        <pt x="332" y="850" on="0"/>
        <pt x="332" y="895" on="1"/>
        <pt x="332" y="909" on="0"/>
        <pt x="334" y="925" on="1"/>
        <pt x="432" y="925" on="1"/>
        <pt x="431" y="918" on="0"/>
      </contour>
      <contour>
        <pt x="423" y="0" on="1"/>
        <pt x="423" y="143" on="1"/>
        <pt x="199" y="143" on="1"/>
        <pt x="130" y="0" on="1"/>
        <pt x="18" y="0" on="1"/>
        <pt x="341" y="685" on="1"/>
        <pt x="540" y="685" on="1"/>
        <pt x="534" y="0" on="1"/>
      </contour>
      <contour>
        <pt x="406" y="588" on="1"/>
        <pt x="242" y="241" on="1"/>
        <pt x="426" y="241" on="1"/>
        <pt x="431" y="588" on="1"/>
      </contour>
    </TTGlyph>
    <TTGlyph name="Acircumflex" xMin="18" yMin="0" xMax="616" yMax="931">
      <contour>
        <pt x="287" y="785" on="1"/>
        <pt x="457" y="931" on="1"/>
        <pt x="520" y="931" on="1"/>
        <pt x="616" y="785" on="1"/>
        <pt x="517" y="785" on="1"/>
        <pt x="479" y="851" on="1"/>
        <pt x="402" y="785" on="1"/>
      </contour>
      <contour>
        <pt x="423" y="0" on="1"/>
        <pt x="423" y="143" on="1"/>
        <pt x="199" y="143" on="1"/>
        <pt x="130" y="0" on="1"/>
        <pt x="18" y="0" on="1"/>
        <pt x="341" y="685" on="1"/>
        <pt x="540" y="685" on="1"/>
        <pt x="534" y="0" on="1"/>
      </contour>
      <contour>
        <pt x="406" y="588" on="1"/>
        <pt x="242" y="241" on="1"/>
        <pt x="426" y="241" on="1"/>
        <pt x="431" y="588" on="1"/>
      </contour>
    </TTGlyph>
    <TTGlyph name="Adieresis" xMin="18" yMin="0" xMax="633" yMax="916">
      <contour>
        <pt x="322" y="799" on="1"/>
        <pt x="349" y="916" on="1"/>
        <pt x="439" y="916" on="1"/>
        <pt x="411" y="799" on="1"/>
      </contour>
      <contour>
        <pt x="516" y="799" on="1"/>
        <pt x="543" y="916" on="1"/>
        <pt x="633" y="916" on="1"/>
        <pt x="604" y="799" on="1"/>
      </contour>
      <contour>
        <pt x="423" y="0" on="1"/>
        <pt x="423" y="143" on="1"/>
        <pt x="199" y="143" on="1"/>
        <pt x="130" y="0" on="1"/>
        <pt x="18" y="0" on="1"/>
        <pt x="341" y="685" on="1"/>
        <pt x="540" y="685" on="1"/>
        <pt x="534" y="0" on="1"/>
      </contour>
      <contour>
        <pt x="406" y="588" on="1"/>
        <pt x="242" y="241" on="1"/>
        <pt x="426" y="241" on="1"/>
        <pt x="431" y="588" on="1"/>
      </contour>
    </TTGlyph>
    <TTGlyph name="Agrave" xMin="18" yMin="0" xMax="580" yMax="941">
      <contour>
        <pt x="374" y="941" on="1"/>
        <pt x="580" y="849" on="1"/>
        <pt x="531" y="765" on="1"/>
        <pt x="321" y="846" on="1"/>
      </contour>
      <contour>
        <pt x="423" y="0" on="1"/>
        <pt x="423" y="143" on="1"/>
        <pt x="199" y="143" on="1"/>
        <pt x="130" y="0" on="1"/>
        <pt x="18" y="0" on="1"/>
        <pt x="341" y="685" on="1"/>
        <pt x="540" y="685" on="1"/>
        <pt x="534" y="0" on="1"/>
      </contour>
      <contour>
        <pt x="406" y="588" on="1"/>
        <pt x="242" y="241" on="1"/>
        <pt x="426" y="241" on="1"/>
        <pt x="431" y="588" on="1"/>
      </contour>
    </TTGlyph>
    <TTGlyph name="Amacron" xMin="18" yMin="0" xMax="632" yMax="904">
      <contour>
        <pt x="299" y="817" on="1"/>
        <pt x="319" y="904" on="1"/>
        <pt x="632" y="904" on="1"/>
        <pt x="611" y="817" on="1"/>
      </contour>
      <contour>
        <pt x="423" y="0" on="1"/>
        <pt x="423" y="143" on="1"/>
        <pt x="199" y="143" on="1"/>
        <pt x="130" y="0" on="1"/>
        <pt x="18" y="0" on="1"/>
        <pt x="341" y="685" on="1"/>
        <pt x="540" y="685" on="1"/>
        <pt x="534" y="0" on="1"/>
      </contour>
      <contour>
        <pt x="406" y="588" on="1"/>
        <pt x="242" y="241" on="1"/>
        <pt x="426" y="241" on="1"/>
        <pt x="431" y="588" on="1"/>
      </contour>
    </TTGlyph>
    <TTGlyph name="Aogonek" xMin="18" yMin="-210" xMax="540" yMax="685">
      <contour>
        <pt x="534" y="0" on="1"/>
        <pt x="528" y="0" on="1"/>
        <pt x="503" y="-18" on="0"/>
        <pt x="452" y="-79" on="0"/>
        <pt x="452" y="-114" on="0"/>
        <pt x="470" y="-114" on="1"/>
        <pt x="512" y="-110" on="1"/>
        <pt x="501" y="-200" on="1"/>
        <pt x="450" y="-210" on="0"/>
        <pt x="376" y="-210" on="0"/>
        <pt x="335" y="-173" on="0"/>
        <pt x="335" y="-105" on="0"/>
        <pt x="392" y="-29" on="0"/>
        <pt x="428" y="0" on="1"/>
        <pt x="423" y="0" on="1"/>
        <pt x="423" y="143" on="1"/>
        <pt x="199" y="143" on="1"/>
        <pt x="130" y="0" on="1"/>
        <pt x="18" y="0" on="1"/>
        <pt x="341" y="685" on="1"/>
        <pt x="540" y="685" on="1"/>
        <pt x="534" y="4" on="1"/>
      </contour>
      <contour>
        <pt x="406" y="588" on="1"/>
        <pt x="242" y="241" on="1"/>
        <pt x="426" y="241" on="1"/>
        <pt x="431" y="588" on="1"/>
      </contour>
    </TTGlyph>
    <TTGlyph name="Aring" xMin="18" yMin="0" xMax="575" yMax="837">
      <contour>
        <pt x="326" y="678" on="0"/>
        <pt x="326" y="710" on="0"/>
        <pt x="331" y="727" on="1"/>
        <pt x="345" y="782" on="0"/>
        <pt x="422" y="837" on="0"/>
        <pt x="530" y="837" on="0"/>
        <pt x="556" y="810" on="1"/>
        <pt x="574" y="792" on="0"/>
        <pt x="574" y="769" on="1"/>
        <pt x="574" y="708" on="0"/>
        <pt x="540" y="666" on="1"/>
        <pt x="534" y="0" on="1"/>
        <pt x="423" y="0" on="1"/>
        <pt x="423" y="143" on="1"/>
        <pt x="199" y="143" on="1"/>
        <pt x="130" y="0" on="1"/>
        <pt x="18" y="0" on="1"/>
        <pt x="331" y="665" on="1"/>
      </contour>
      <contour>
        <pt x="406" y="588" on="1"/>
        <pt x="242" y="241" on="1"/>
        <pt x="426" y="241" on="1"/>
        <pt x="431" y="588" on="1"/>
      </contour>
      <contour>
        <pt x="400" y="720" on="1"/>
        <pt x="400" y="689" on="0"/>
        <pt x="490" y="689" on="0"/>
        <pt x="499" y="727" on="1"/>
        <pt x="500" y="732" on="0"/>
        <pt x="500" y="748" on="0"/>
        <pt x="478" y="766" on="0"/>
        <pt x="459" y="766" on="1"/>
        <pt x="412" y="766" on="0"/>
        <pt x="401" y="727" on="1"/>
        <pt x="400" y="723" on="0"/>
      </contour>
    </TTGlyph>
    <TTGlyph name="Aringacute" xMin="18" yMin="0" xMax="617" yMax="1043">
      <contour>
        <pt x="326" y="678" on="0"/>
        <pt x="326" y="710" on="0"/>
        <pt x="331" y="727" on="1"/>
        <pt x="345" y="782" on="0"/>
        <pt x="422" y="837" on="0"/>
        <pt x="530" y="837" on="0"/>
        <pt x="556" y="810" on="1"/>
        <pt x="574" y="792" on="0"/>
        <pt x="574" y="769" on="1"/>
        <pt x="574" y="708" on="0"/>
        <pt x="540" y="666" on="1"/>
        <pt x="534" y="0" on="1"/>
        <pt x="423" y="0" on="1"/>
        <pt x="423" y="143" on="1"/>
        <pt x="199" y="143" on="1"/>
        <pt x="130" y="0" on="1"/>
        <pt x="18" y="0" on="1"/>
        <pt x="331" y="665" on="1"/>
      </contour>
      <contour>
        <pt x="406" y="588" on="1"/>
        <pt x="242" y="241" on="1"/>
        <pt x="426" y="241" on="1"/>
        <pt x="431" y="588" on="1"/>
      </contour>
      <contour>
        <pt x="369" y="865" on="1"/>
        <pt x="360" y="951" on="1"/>
        <pt x="608" y="1043" on="1"/>
        <pt x="617" y="946" on="1"/>
      </contour>
      <contour>
        <pt x="400" y="720" on="1"/>
        <pt x="400" y="689" on="0"/>
        <pt x="490" y="689" on="0"/>
        <pt x="499" y="727" on="1"/>
        <pt x="500" y="732" on="0"/>
        <pt x="500" y="748" on="0"/>
        <pt x="478" y="766" on="0"/>
        <pt x="459" y="766" on="1"/>
        <pt x="412" y="766" on="0"/>
        <pt x="401" y="727" on="1"/>
        <pt x="400" y="723" on="0"/>
      </contour>
    </TTGlyph>
    <TTGlyph name="Atilde" xMin="18" yMin="0" xMax="632" yMax="934">
      <contour>
        <pt x="524" y="790" on="1"/>
        <pt x="499" y="790" on="0"/>
        <pt x="394" y="838" on="0"/>
        <pt x="381" y="838" on="1"/>
        <pt x="359" y="838" on="0"/>
        <pt x="309" y="806" on="1"/>
        <pt x="293" y="795" on="1"/>
        <pt x="290" y="871" on="1"/>
        <pt x="357" y="934" on="0"/>
        <pt x="401" y="934" on="1"/>
        <pt x="432" y="934" on="0"/>
        <pt x="535" y="886" on="0"/>
        <pt x="555" y="886" on="0"/>
        <pt x="598" y="906" on="0"/>
        <pt x="614" y="916" on="1"/>
        <pt x="630" y="927" on="1"/>
        <pt x="632" y="851" on="1"/>
        <pt x="569" y="790" on="0"/>
      </contour>
      <contour>
        <pt x="423" y="0" on="1"/>
        <pt x="423" y="143" on="1"/>
        <pt x="199" y="143" on="1"/>
        <pt x="130" y="0" on="1"/>
        <pt x="18" y="0" on="1"/>
        <pt x="341" y="685" on="1"/>
        <pt x="540" y="685" on="1"/>
        <pt x="534" y="0" on="1"/>
      </contour>
      <contour>
        <pt x="406" y="588" on="1"/>
        <pt x="242" y="241" on="1"/>
        <pt x="426" y="241" on="1"/>
        <pt x="431" y="588" on="1"/>
      </contour>
    </TTGlyph>
    <TTGlyph name="B" xMin="70" yMin="0" xMax="632" yMax="685">
      <contour>
        <pt x="459" y="685" on="1"/>
        <pt x="632" y="685" on="0"/>
        <pt x="632" y="543" on="1"/>
        <pt x="632" y="418" on="0"/>
        <pt x="512" y="353" on="1"/>
        <pt x="553" y="333" on="0"/>
        <pt x="585" y="278" on="0"/>
        <pt x="585" y="235" on="1"/>
        <pt x="585" y="131" on="0"/>
        <pt x="448" y="0" on="0"/>
        <pt x="319" y="0" on="1"/>
        <pt x="70" y="0" on="1"/>
        <pt x="228" y="685" on="1"/>
      </contour>
      <contour>
        <pt x="384" y="300" on="1"/>
        <pt x="251" y="300" on="1"/>
        <pt x="204" y="96" on="1"/>
        <pt x="341" y="96" on="1"/>
        <pt x="401" y="96" on="0"/>
        <pt x="470" y="170" on="0"/>
        <pt x="470" y="232" on="1"/>
        <pt x="470" y="300" on="0"/>
      </contour>
      <contour>
        <pt x="441" y="589" on="1"/>
        <pt x="318" y="589" on="1"/>
        <pt x="272" y="394" on="1"/>
        <pt x="397" y="394" on="1"/>
        <pt x="449" y="394" on="0"/>
        <pt x="518" y="466" on="0"/>
        <pt x="518" y="522" on="1"/>
        <pt x="518" y="557" on="0"/>
        <pt x="481" y="589" on="0"/>
      </contour>
    </TTGlyph>
    <TTGlyph name="C" xMin="105" yMin="-11" xMax="623" yMax="696">
      <contour>
        <pt x="305" y="-11" on="1"/>
        <pt x="105" y="-11" on="0"/>
        <pt x="105" y="186" on="1"/>
        <pt x="105" y="331" on="0"/>
        <pt x="155" y="457" on="1"/>
        <pt x="182" y="525" on="0"/>
        <pt x="261" y="630" on="0"/>
        <pt x="381" y="696" on="0"/>
        <pt x="454" y="696" on="1"/>
        <pt x="521" y="696" on="0"/>
        <pt x="598" y="676" on="1"/>
        <pt x="623" y="669" on="1"/>
        <pt x="597" y="585" on="1"/>
        <pt x="529" y="599" on="0"/>
        <pt x="379" y="599" on="0"/>
        <pt x="271" y="475" on="0"/>
        <pt x="220" y="293" on="0"/>
        <pt x="220" y="194" on="1"/>
        <pt x="220" y="86" on="0"/>
        <pt x="319" y="86" on="1"/>
        <pt x="382" y="86" on="0"/>
        <pt x="458" y="98" on="1"/>
        <pt x="481" y="101" on="1"/>
        <pt x="473" y="13" on="1"/>
        <pt x="382" y="-11" on="0"/>
      </contour>
    </TTGlyph>
    <TTGlyph name="Cacute" xMin="105" yMin="-11" xMax="644" yMax="951">
      <contour>
        <pt x="305" y="-11" on="1"/>
        <pt x="105" y="-11" on="0"/>
        <pt x="105" y="186" on="1"/>
        <pt x="105" y="331" on="0"/>
        <pt x="155" y="457" on="1"/>
        <pt x="182" y="525" on="0"/>
        <pt x="261" y="630" on="0"/>
        <pt x="381" y="696" on="0"/>
        <pt x="454" y="696" on="1"/>
        <pt x="521" y="696" on="0"/>
        <pt x="598" y="676" on="1"/>
        <pt x="623" y="669" on="1"/>
        <pt x="597" y="585" on="1"/>
        <pt x="529" y="599" on="0"/>
        <pt x="379" y="599" on="0"/>
        <pt x="271" y="475" on="0"/>
        <pt x="220" y="293" on="0"/>
        <pt x="220" y="194" on="1"/>
        <pt x="220" y="86" on="0"/>
        <pt x="319" y="86" on="1"/>
        <pt x="382" y="86" on="0"/>
        <pt x="458" y="98" on="1"/>
        <pt x="481" y="101" on="1"/>
        <pt x="473" y="13" on="1"/>
        <pt x="382" y="-11" on="0"/>
      </contour>
      <contour>
        <pt x="395" y="774" on="1"/>
        <pt x="386" y="859" on="1"/>
        <pt x="634" y="951" on="1"/>
        <pt x="644" y="854" on="1"/>
      </contour>
    </TTGlyph>
    <TTGlyph name="Ccaron" xMin="105" yMin="-11" xMax="672" yMax="928">
      <contour>
        <pt x="305" y="-11" on="1"/>
        <pt x="105" y="-11" on="0"/>
        <pt x="105" y="186" on="1"/>
        <pt x="105" y="331" on="0"/>
        <pt x="155" y="457" on="1"/>
        <pt x="182" y="525" on="0"/>
        <pt x="261" y="630" on="0"/>
        <pt x="381" y="696" on="0"/>
        <pt x="454" y="696" on="1"/>
        <pt x="521" y="696" on="0"/>
        <pt x="598" y="676" on="1"/>
        <pt x="623" y="669" on="1"/>
        <pt x="597" y="585" on="1"/>
        <pt x="529" y="599" on="0"/>
        <pt x="379" y="599" on="0"/>
        <pt x="271" y="475" on="0"/>
        <pt x="220" y="293" on="0"/>
        <pt x="220" y="194" on="1"/>
        <pt x="220" y="86" on="0"/>
        <pt x="319" y="86" on="1"/>
        <pt x="382" y="86" on="0"/>
        <pt x="458" y="98" on="1"/>
        <pt x="481" y="101" on="1"/>
        <pt x="473" y="13" on="1"/>
        <pt x="382" y="-11" on="0"/>
      </contour>
      <contour>
        <pt x="672" y="928" on="1"/>
        <pt x="514" y="783" on="1"/>
        <pt x="441" y="783" on="1"/>
        <pt x="346" y="928" on="1"/>
        <pt x="453" y="928" on="1"/>
        <pt x="495" y="860" on="1"/>
        <pt x="565" y="928" on="1"/>
      </contour>
    </TTGlyph>
    <TTGlyph name="Ccedilla" xMin="105" yMin="-221" xMax="623" yMax="696">
      <contour>
        <pt x="305" y="-11" on="1"/>
        <pt x="296" y="-11" on="1"/>
        <pt x="289" y="-38" on="1"/>
        <pt x="295" y="-38" on="1"/>
        <pt x="384" y="-38" on="0"/>
        <pt x="384" y="-99" on="1"/>
        <pt x="384" y="-110" on="0"/>
        <pt x="381" y="-124" on="1"/>
        <pt x="358" y="-221" on="0"/>
        <pt x="261" y="-221" on="1"/>
        <pt x="229" y="-221" on="0"/>
        <pt x="190" y="-214" on="1"/>
        <pt x="179" y="-212" on="1"/>
        <pt x="196" y="-144" on="1"/>
        <pt x="229" y="-146" on="0"/>
        <pt x="249" y="-146" on="1"/>
        <pt x="287" y="-146" on="0"/>
        <pt x="294" y="-117" on="1"/>
        <pt x="298" y="-101" on="0"/>
        <pt x="281" y="-91" on="0"/>
        <pt x="262" y="-91" on="1"/>
        <pt x="233" y="-91" on="1"/>
        <pt x="252" y="-7" on="1"/>
        <pt x="105" y="17" on="0"/>
        <pt x="105" y="186" on="1"/>
        <pt x="105" y="331" on="0"/>
        <pt x="155" y="457" on="1"/>
        <pt x="182" y="525" on="0"/>
        <pt x="261" y="630" on="0"/>
        <pt x="381" y="696" on="0"/>
        <pt x="454" y="696" on="1"/>
        <pt x="521" y="696" on="0"/>
        <pt x="598" y="676" on="1"/>
        <pt x="623" y="669" on="1"/>
        <pt x="597" y="585" on="1"/>
        <pt x="529" y="599" on="0"/>
        <pt x="379" y="599" on="0"/>
        <pt x="271" y="475" on="0"/>
        <pt x="220" y="293" on="0"/>
        <pt x="220" y="194" on="1"/>
        <pt x="220" y="86" on="0"/>
        <pt x="319" y="86" on="1"/>
        <pt x="382" y="86" on="0"/>
        <pt x="458" y="98" on="1"/>
        <pt x="481" y="101" on="1"/>
        <pt x="473" y="13" on="1"/>
        <pt x="382" y="-11" on="0"/>
      </contour>
    </TTGlyph>
    <TTGlyph name="Ccircumflex" xMin="105" yMin="-11" xMax="640" yMax="931">
      <contour>
        <pt x="305" y="-11" on="1"/>
        <pt x="105" y="-11" on="0"/>
        <pt x="105" y="186" on="1"/>
        <pt x="105" y="331" on="0"/>
        <pt x="155" y="457" on="1"/>
        <pt x="182" y="525" on="0"/>
        <pt x="261" y="630" on="0"/>
        <pt x="381" y="696" on="0"/>
        <pt x="454" y="696" on="1"/>
        <pt x="521" y="696" on="0"/>
        <pt x="598" y="676" on="1"/>
        <pt x="623" y="669" on="1"/>
        <pt x="597" y="585" on="1"/>
        <pt x="529" y="599" on="0"/>
        <pt x="379" y="599" on="0"/>
        <pt x="271" y="475" on="0"/>
        <pt x="220" y="293" on="0"/>
        <pt x="220" y="194" on="1"/>
        <pt x="220" y="86" on="0"/>
        <pt x="319" y="86" on="1"/>
        <pt x="382" y="86" on="0"/>
        <pt x="458" y="98" on="1"/>
        <pt x="481" y="101" on="1"/>
        <pt x="473" y="13" on="1"/>
        <pt x="382" y="-11" on="0"/>
      </contour>
      <contour>
        <pt x="311" y="785" on="1"/>
        <pt x="481" y="931" on="1"/>
        <pt x="544" y="931" on="1"/>
        <pt x="640" y="785" on="1"/>
        <pt x="541" y="785" on="1"/>
        <pt x="503" y="851" on="1"/>
        <pt x="426" y="785" on="1"/>
      </contour>
    </TTGlyph>
    <TTGlyph name="Cdotaccent" xMin="105" yMin="-11" xMax="623" yMax="898">
      <contour>
        <pt x="305" y="-11" on="1"/>
        <pt x="105" y="-11" on="0"/>
        <pt x="105" y="186" on="1"/>
        <pt x="105" y="331" on="0"/>
        <pt x="155" y="457" on="1"/>
        <pt x="182" y="525" on="0"/>
        <pt x="261" y="630" on="0"/>
        <pt x="381" y="696" on="0"/>
        <pt x="454" y="696" on="1"/>
        <pt x="521" y="696" on="0"/>
        <pt x="598" y="676" on="1"/>
        <pt x="623" y="669" on="1"/>
        <pt x="597" y="585" on="1"/>
        <pt x="529" y="599" on="0"/>
        <pt x="379" y="599" on="0"/>
        <pt x="271" y="475" on="0"/>
        <pt x="220" y="293" on="0"/>
        <pt x="220" y="194" on="1"/>
        <pt x="220" y="86" on="0"/>
        <pt x="319" y="86" on="1"/>
        <pt x="382" y="86" on="0"/>
        <pt x="458" y="98" on="1"/>
        <pt x="481" y="101" on="1"/>
        <pt x="473" y="13" on="1"/>
        <pt x="382" y="-11" on="0"/>
      </contour>
      <contour>
        <pt x="424" y="780" on="1"/>
        <pt x="451" y="898" on="1"/>
        <pt x="546" y="898" on="1"/>
        <pt x="518" y="780" on="1"/>
      </contour>
    </TTGlyph>
    <TTGlyph name="D" xMin="70" yMin="0" xMax="656" yMax="685">
      <contour>
        <pt x="313" y="0" on="1"/>
        <pt x="70" y="0" on="1"/>
        <pt x="229" y="685" on="1"/>
        <pt x="446" y="685" on="1"/>
        <pt x="656" y="685" on="0"/>
        <pt x="656" y="479" on="1"/>
        <pt x="656" y="302" on="0"/>
        <pt x="574" y="158" on="1"/>
        <pt x="534" y="87" on="0"/>
        <pt x="398" y="0" on="0"/>
      </contour>
      <contour>
        <pt x="515" y="296" on="0"/>
        <pt x="541" y="422" on="0"/>
        <pt x="541" y="537" on="0"/>
        <pt x="484" y="588" on="0"/>
        <pt x="424" y="588" on="1"/>
        <pt x="317" y="588" on="1"/>
        <pt x="205" y="97" on="1"/>
        <pt x="324" y="97" on="1"/>
        <pt x="378" y="97" on="0"/>
        <pt x="466" y="176" on="0"/>
      </contour>
    </TTGlyph>
    <TTGlyph name="Dcaron" xMin="70" yMin="0" xMax="656" yMax="928">
      <contour>
        <pt x="313" y="0" on="1"/>
        <pt x="70" y="0" on="1"/>
        <pt x="229" y="685" on="1"/>
        <pt x="446" y="685" on="1"/>
        <pt x="656" y="685" on="0"/>
        <pt x="656" y="479" on="1"/>
        <pt x="656" y="302" on="0"/>
        <pt x="574" y="158" on="1"/>
        <pt x="534" y="87" on="0"/>
        <pt x="398" y="0" on="0"/>
      </contour>
      <contour>
        <pt x="541" y="537" on="0"/>
        <pt x="484" y="588" on="0"/>
        <pt x="424" y="588" on="1"/>
        <pt x="317" y="588" on="1"/>
        <pt x="205" y="97" on="1"/>
        <pt x="324" y="97" on="1"/>
        <pt x="378" y="97" on="0"/>
        <pt x="466" y="176" on="0"/>
        <pt x="515" y="296" on="0"/>
        <pt x="541" y="422" on="0"/>
      </contour>
      <contour>
        <pt x="638" y="928" on="1"/>
        <pt x="480" y="783" on="1"/>
        <pt x="407" y="783" on="1"/>
        <pt x="312" y="928" on="1"/>
        <pt x="419" y="928" on="1"/>
        <pt x="461" y="860" on="1"/>
        <pt x="531" y="928" on="1"/>
      </contour>
    </TTGlyph>
    <TTGlyph name="Dcroat" xMin="76" yMin="0" xMax="662" yMax="685">
      <contour>
        <pt x="319" y="0" on="1"/>
        <pt x="76" y="0" on="1"/>
        <pt x="143" y="290" on="1"/>
        <pt x="84" y="290" on="1"/>
        <pt x="107" y="400" on="1"/>
        <pt x="169" y="400" on="1"/>
        <pt x="235" y="685" on="1"/>
        <pt x="452" y="685" on="1"/>
        <pt x="662" y="685" on="0"/>
        <pt x="662" y="479" on="1"/>
        <pt x="662" y="302" on="0"/>
        <pt x="580" y="158" on="1"/>
        <pt x="540" y="87" on="0"/>
        <pt x="404" y="0" on="0"/>
      </contour>
      <contour>
        <pt x="521" y="296" on="0"/>
        <pt x="547" y="422" on="0"/>
        <pt x="547" y="537" on="0"/>
        <pt x="490" y="588" on="0"/>
        <pt x="430" y="588" on="1"/>
        <pt x="323" y="588" on="1"/>
        <pt x="280" y="400" on="1"/>
        <pt x="403" y="400" on="1"/>
        <pt x="379" y="290" on="1"/>
        <pt x="255" y="290" on="1"/>
        <pt x="211" y="97" on="1"/>
        <pt x="330" y="97" on="1"/>
        <pt x="384" y="97" on="0"/>
        <pt x="472" y="176" on="0"/>
      </contour>
    </TTGlyph>
    <TTGlyph name="Delta" xMin="83" yMin="0" xMax="547" yMax="660">
      <contour>
        <pt x="547" y="0" on="1"/>
        <pt x="83" y="0" on="1"/>
        <pt x="83" y="84" on="1"/>
        <pt x="222" y="660" on="1"/>
        <pt x="409" y="660" on="1"/>
        <pt x="547" y="82" on="1"/>
      </contour>
      <contour>
        <pt x="329" y="568" on="1"/>
        <pt x="302" y="568" on="1"/>
        <pt x="192" y="93" on="1"/>
        <pt x="438" y="93" on="1"/>
      </contour>
    </TTGlyph>
    <TTGlyph name="E" xMin="70" yMin="0" xMax="621" yMax="685">
      <contour>
        <pt x="70" y="0" on="1"/>
        <pt x="228" y="685" on="1"/>
        <pt x="621" y="685" on="1"/>
        <pt x="598" y="588" on="1"/>
        <pt x="317" y="588" on="1"/>
        <pt x="273" y="394" on="1"/>
        <pt x="499" y="394" on="1"/>
        <pt x="476" y="296" on="1"/>
        <pt x="251" y="296" on="1"/>
        <pt x="205" y="97" on="1"/>
        <pt x="487" y="97" on="1"/>
        <pt x="464" y="0" on="1"/>
      </contour>
    </TTGlyph>
    <TTGlyph name="Eacute" xMin="70" yMin="0" xMax="621" yMax="951">
      <contour>
        <pt x="361" y="774" on="1"/>
        <pt x="352" y="859" on="1"/>
        <pt x="600" y="951" on="1"/>
        <pt x="610" y="854" on="1"/>
      </contour>
      <contour>
        <pt x="70" y="0" on="1"/>
        <pt x="228" y="685" on="1"/>
        <pt x="621" y="685" on="1"/>
        <pt x="598" y="588" on="1"/>
        <pt x="317" y="588" on="1"/>
        <pt x="273" y="394" on="1"/>
        <pt x="499" y="394" on="1"/>
        <pt x="476" y="296" on="1"/>
        <pt x="251" y="296" on="1"/>
        <pt x="205" y="97" on="1"/>
        <pt x="487" y="97" on="1"/>
        <pt x="464" y="0" on="1"/>
      </contour>
    </TTGlyph>
    <TTGlyph name="Ebreve" xMin="70" yMin="0" xMax="622" yMax="925">
      <contour>
        <pt x="409" y="913" on="1"/>
        <pt x="409" y="874" on="0"/>
        <pt x="455" y="874" on="1"/>
        <pt x="479" y="874" on="0"/>
        <pt x="516" y="902" on="0"/>
        <pt x="524" y="925" on="1"/>
        <pt x="622" y="925" on="1"/>
        <pt x="578" y="788" on="0"/>
        <pt x="437" y="788" on="1"/>
        <pt x="367" y="788" on="0"/>
        <pt x="310" y="850" on="0"/>
        <pt x="310" y="895" on="1"/>
        <pt x="310" y="909" on="0"/>
        <pt x="312" y="925" on="1"/>
        <pt x="410" y="925" on="1"/>
        <pt x="409" y="918" on="0"/>
      </contour>
      <contour>
        <pt x="70" y="0" on="1"/>
        <pt x="228" y="685" on="1"/>
        <pt x="621" y="685" on="1"/>
        <pt x="598" y="588" on="1"/>
        <pt x="317" y="588" on="1"/>
        <pt x="273" y="394" on="1"/>
        <pt x="499" y="394" on="1"/>
        <pt x="476" y="296" on="1"/>
        <pt x="251" y="296" on="1"/>
        <pt x="205" y="97" on="1"/>
        <pt x="487" y="97" on="1"/>
        <pt x="464" y="0" on="1"/>
      </contour>
    </TTGlyph>
    <TTGlyph name="Ecaron" xMin="70" yMin="0" xMax="631" yMax="941">
      <contour>
        <pt x="631" y="941" on="1"/>
        <pt x="473" y="796" on="1"/>
        <pt x="400" y="796" on="1"/>
        <pt x="305" y="941" on="1"/>
        <pt x="412" y="941" on="1"/>
        <pt x="454" y="873" on="1"/>
        <pt x="524" y="941" on="1"/>
      </contour>
      <contour>
        <pt x="70" y="0" on="1"/>
        <pt x="228" y="685" on="1"/>
        <pt x="621" y="685" on="1"/>
        <pt x="598" y="588" on="1"/>
        <pt x="317" y="588" on="1"/>
        <pt x="273" y="394" on="1"/>
        <pt x="499" y="394" on="1"/>
        <pt x="476" y="296" on="1"/>
        <pt x="251" y="296" on="1"/>
        <pt x="205" y="97" on="1"/>
        <pt x="487" y="97" on="1"/>
        <pt x="464" y="0" on="1"/>
      </contour>
    </TTGlyph>
    <TTGlyph name="Ecircumflex" xMin="70" yMin="0" xMax="625" yMax="932">
      <contour>
        <pt x="296" y="786" on="1"/>
        <pt x="466" y="932" on="1"/>
        <pt x="529" y="932" on="1"/>
        <pt x="625" y="786" on="1"/>
        <pt x="526" y="786" on="1"/>
        <pt x="488" y="852" on="1"/>
        <pt x="411" y="786" on="1"/>
      </contour>
      <contour>
        <pt x="70" y="0" on="1"/>
        <pt x="228" y="685" on="1"/>
        <pt x="621" y="685" on="1"/>
        <pt x="598" y="588" on="1"/>
        <pt x="317" y="588" on="1"/>
        <pt x="273" y="394" on="1"/>
        <pt x="499" y="394" on="1"/>
        <pt x="476" y="296" on="1"/>
        <pt x="251" y="296" on="1"/>
        <pt x="205" y="97" on="1"/>
        <pt x="487" y="97" on="1"/>
        <pt x="464" y="0" on="1"/>
      </contour>
    </TTGlyph>
    <TTGlyph name="Edieresis" xMin="70" yMin="0" xMax="621" yMax="916">
      <contour>
        <pt x="306" y="799" on="1"/>
        <pt x="333" y="916" on="1"/>
        <pt x="423" y="916" on="1"/>
        <pt x="395" y="799" on="1"/>
      </contour>
      <contour>
        <pt x="500" y="799" on="1"/>
        <pt x="527" y="916" on="1"/>
        <pt x="617" y="916" on="1"/>
        <pt x="588" y="799" on="1"/>
      </contour>
      <contour>
        <pt x="70" y="0" on="1"/>
        <pt x="228" y="685" on="1"/>
        <pt x="621" y="685" on="1"/>
        <pt x="598" y="588" on="1"/>
        <pt x="317" y="588" on="1"/>
        <pt x="273" y="394" on="1"/>
        <pt x="499" y="394" on="1"/>
        <pt x="476" y="296" on="1"/>
        <pt x="251" y="296" on="1"/>
        <pt x="205" y="97" on="1"/>
        <pt x="487" y="97" on="1"/>
        <pt x="464" y="0" on="1"/>
      </contour>
    </TTGlyph>
    <TTGlyph name="Edotaccent" xMin="70" yMin="0" xMax="621" yMax="914">
      <contour>
        <pt x="389" y="796" on="1"/>
        <pt x="416" y="914" on="1"/>
        <pt x="511" y="914" on="1"/>
        <pt x="483" y="796" on="1"/>
      </contour>
      <contour>
        <pt x="70" y="0" on="1"/>
        <pt x="228" y="685" on="1"/>
        <pt x="621" y="685" on="1"/>
        <pt x="598" y="588" on="1"/>
        <pt x="317" y="588" on="1"/>
        <pt x="273" y="394" on="1"/>
        <pt x="499" y="394" on="1"/>
        <pt x="476" y="296" on="1"/>
        <pt x="251" y="296" on="1"/>
        <pt x="205" y="97" on="1"/>
        <pt x="487" y="97" on="1"/>
        <pt x="464" y="0" on="1"/>
      </contour>
    </TTGlyph>
    <TTGlyph name="Egrave" xMin="70" yMin="0" xMax="621" yMax="941">
      <contour>
        <pt x="350" y="941" on="1"/>
        <pt x="556" y="849" on="1"/>
        <pt x="507" y="765" on="1"/>
        <pt x="297" y="846" on="1"/>
      </contour>
      <contour>
        <pt x="70" y="0" on="1"/>
        <pt x="228" y="685" on="1"/>
        <pt x="621" y="685" on="1"/>
        <pt x="598" y="588" on="1"/>
        <pt x="317" y="588" on="1"/>
        <pt x="273" y="394" on="1"/>
        <pt x="499" y="394" on="1"/>
        <pt x="476" y="296" on="1"/>
        <pt x="251" y="296" on="1"/>
        <pt x="205" y="97" on="1"/>
        <pt x="487" y="97" on="1"/>
        <pt x="464" y="0" on="1"/>
      </contour>
    </TTGlyph>
    <TTGlyph name="Emacron" xMin="70" yMin="0" xMax="622" yMax="901">
      <contour>
        <pt x="289" y="814" on="1"/>
        <pt x="309" y="901" on="1"/>
        <pt x="622" y="901" on="1"/>
        <pt x="601" y="814" on="1"/>
      </contour>
      <contour>
        <pt x="70" y="0" on="1"/>
        <pt x="228" y="685" on="1"/>
        <pt x="621" y="685" on="1"/>
        <pt x="598" y="588" on="1"/>
        <pt x="317" y="588" on="1"/>
        <pt x="273" y="394" on="1"/>
        <pt x="499" y="394" on="1"/>
        <pt x="476" y="296" on="1"/>
        <pt x="251" y="296" on="1"/>
        <pt x="205" y="97" on="1"/>
        <pt x="487" y="97" on="1"/>
        <pt x="464" y="0" on="1"/>
      </contour>
    </TTGlyph>
    <TTGlyph name="Eng" xMin="70" yMin="-200" xMax="730" yMax="685">
      <contour>
        <pt x="571" y="0" on="1"/>
        <pt x="571" y="-3" on="1"/>
        <pt x="555" y="-73" on="0"/>
        <pt x="530" y="-142" on="0"/>
        <pt x="478" y="-189" on="0"/>
        <pt x="410" y="-200" on="0"/>
        <pt x="345" y="-200" on="1"/>
        <pt x="364" y="-102" on="1"/>
        <pt x="415" y="-101" on="0"/>
        <pt x="450" y="-68" on="0"/>
        <pt x="465" y="0" on="1"/>
        <pt x="397" y="0" on="1"/>
        <pt x="325" y="575" on="1"/>
        <pt x="310" y="575" on="1"/>
        <pt x="176" y="0" on="1"/>
        <pt x="70" y="0" on="1"/>
        <pt x="229" y="685" on="1"/>
        <pt x="412" y="685" on="1"/>
        <pt x="478" y="117" on="1"/>
        <pt x="492" y="117" on="1"/>
        <pt x="622" y="685" on="1"/>
        <pt x="730" y="685" on="1"/>
        <pt x="572" y="0" on="1"/>
      </contour>
    </TTGlyph>
    <TTGlyph name="Eogonek" xMin="70" yMin="-210" xMax="621" yMax="685">
      <contour>
        <pt x="424" y="-18" on="0"/>
        <pt x="373" y="-79" on="0"/>
        <pt x="373" y="-114" on="0"/>
        <pt x="391" y="-114" on="1"/>
        <pt x="433" y="-110" on="1"/>
        <pt x="422" y="-200" on="1"/>
        <pt x="371" y="-210" on="0"/>
        <pt x="297" y="-210" on="0"/>
        <pt x="256" y="-173" on="0"/>
        <pt x="256" y="-105" on="0"/>
        <pt x="313" y="-29" on="0"/>
        <pt x="349" y="0" on="1"/>
        <pt x="70" y="0" on="1"/>
        <pt x="228" y="685" on="1"/>
        <pt x="621" y="685" on="1"/>
        <pt x="598" y="588" on="1"/>
        <pt x="317" y="588" on="1"/>
        <pt x="273" y="394" on="1"/>
        <pt x="499" y="394" on="1"/>
        <pt x="476" y="296" on="1"/>
        <pt x="251" y="296" on="1"/>
        <pt x="205" y="97" on="1"/>
        <pt x="487" y="97" on="1"/>
        <pt x="464" y="0" on="1"/>
        <pt x="449" y="0" on="1"/>
      </contour>
    </TTGlyph>
    <TTGlyph name="Eth" xMin="76" yMin="0" xMax="662" yMax="685">
      <contour>
        <pt x="319" y="0" on="1"/>
        <pt x="76" y="0" on="1"/>
        <pt x="143" y="290" on="1"/>
        <pt x="85" y="290" on="1"/>
        <pt x="108" y="400" on="1"/>
        <pt x="169" y="400" on="1"/>
        <pt x="235" y="685" on="1"/>
        <pt x="452" y="685" on="1"/>
        <pt x="662" y="685" on="0"/>
        <pt x="662" y="479" on="1"/>
        <pt x="662" y="302" on="0"/>
        <pt x="580" y="158" on="1"/>
        <pt x="540" y="87" on="0"/>
        <pt x="404" y="0" on="0"/>
      </contour>
      <contour>
        <pt x="521" y="296" on="0"/>
        <pt x="547" y="422" on="0"/>
        <pt x="547" y="537" on="0"/>
        <pt x="490" y="588" on="0"/>
        <pt x="430" y="588" on="1"/>
        <pt x="323" y="588" on="1"/>
        <pt x="280" y="400" on="1"/>
        <pt x="404" y="400" on="1"/>
        <pt x="379" y="290" on="1"/>
        <pt x="255" y="290" on="1"/>
        <pt x="211" y="97" on="1"/>
        <pt x="330" y="97" on="1"/>
        <pt x="384" y="97" on="0"/>
        <pt x="472" y="176" on="0"/>
      </contour>
    </TTGlyph>
    <TTGlyph name="Euro" xMin="95" yMin="-11" xMax="650" yMax="671">
      <contour>
        <pt x="343" y="-11" on="1"/>
        <pt x="150" y="-11" on="0"/>
        <pt x="150" y="179" on="1"/>
        <pt x="150" y="194" on="1"/>
        <pt x="95" y="194" on="1"/>
        <pt x="115" y="280" on="1"/>
        <pt x="157" y="280" on="1"/>
        <pt x="164" y="328" on="0"/>
        <pt x="174" y="365" on="1"/>
        <pt x="133" y="365" on="1"/>
        <pt x="154" y="451" on="1"/>
        <pt x="203" y="451" on="1"/>
        <pt x="245" y="551" on="0"/>
        <pt x="386" y="671" on="0"/>
        <pt x="487" y="671" on="1"/>
        <pt x="556" y="671" on="0"/>
        <pt x="626" y="652" on="1"/>
        <pt x="650" y="645" on="1"/>
        <pt x="625" y="564" on="1"/>
        <pt x="559" y="578" on="0"/>
        <pt x="482" y="578" on="1"/>
        <pt x="381" y="578" on="0"/>
        <pt x="317" y="451" on="1"/>
        <pt x="551" y="451" on="1"/>
        <pt x="532" y="365" on="1"/>
        <pt x="285" y="365" on="1"/>
        <pt x="273" y="323" on="0"/>
        <pt x="267" y="280" on="1"/>
        <pt x="513" y="280" on="1"/>
        <pt x="493" y="194" on="1"/>
        <pt x="261" y="194" on="1"/>
        <pt x="261" y="187" on="1"/>
        <pt x="261" y="83" on="0"/>
        <pt x="357" y="83" on="1"/>
        <pt x="425" y="83" on="0"/>
        <pt x="491" y="94" on="1"/>
        <pt x="513" y="97" on="1"/>
        <pt x="505" y="13" on="1"/>
        <pt x="417" y="-11" on="0"/>
      </contour>
    </TTGlyph>
    <TTGlyph name="F" xMin="70" yMin="0" xMax="614" yMax="685">
      <contour>
        <pt x="70" y="0" on="1"/>
        <pt x="229" y="685" on="1"/>
        <pt x="614" y="685" on="1"/>
        <pt x="591" y="588" on="1"/>
        <pt x="317" y="588" on="1"/>
        <pt x="264" y="353" on="1"/>
        <pt x="494" y="353" on="1"/>
        <pt x="470" y="256" on="1"/>
        <pt x="241" y="256" on="1"/>
        <pt x="182" y="0" on="1"/>
      </contour>
    </TTGlyph>
    <TTGlyph name="G" xMin="107" yMin="-11" xMax="671" yMax="696">
      <contour>
        <pt x="325" y="-11" on="1"/>
        <pt x="107" y="-11" on="0"/>
        <pt x="107" y="195" on="1"/>
        <pt x="107" y="354" on="0"/>
        <pt x="162" y="480" on="1"/>
        <pt x="223" y="616" on="0"/>
        <pt x="334" y="668" on="1"/>
        <pt x="395" y="696" on="0"/>
        <pt x="454" y="696" on="1"/>
        <pt x="561" y="696" on="0"/>
        <pt x="644" y="669" on="1"/>
        <pt x="671" y="660" on="1"/>
        <pt x="645" y="579" on="1"/>
        <pt x="545" y="599" on="0"/>
        <pt x="456" y="599" on="1"/>
        <pt x="396" y="599" on="0"/>
        <pt x="303" y="521" on="0"/>
        <pt x="276" y="459" on="1"/>
        <pt x="222" y="335" on="0"/>
        <pt x="222" y="194" on="1"/>
        <pt x="222" y="86" on="0"/>
        <pt x="338" y="86" on="1"/>
        <pt x="378" y="86" on="0"/>
        <pt x="414" y="94" on="1"/>
        <pt x="426" y="96" on="1"/>
        <pt x="468" y="277" on="1"/>
        <pt x="387" y="277" on="1"/>
        <pt x="409" y="370" on="1"/>
        <pt x="601" y="370" on="1"/>
        <pt x="518" y="15" on="1"/>
        <pt x="442" y="-11" on="0"/>
      </contour>
    </TTGlyph>
    <TTGlyph name="Gbreve" xMin="107" yMin="-11" xMax="693" yMax="925">
      <contour>
        <pt x="510" y="867" on="1"/>
        <pt x="569" y="867" on="0"/>
        <pt x="588" y="925" on="1"/>
        <pt x="693" y="925" on="1"/>
        <pt x="671" y="853" on="0"/>
        <pt x="563" y="768" on="0"/>
        <pt x="420" y="768" on="0"/>
        <pt x="387" y="800" on="1"/>
        <pt x="352" y="834" on="0"/>
        <pt x="352" y="893" on="1"/>
        <pt x="352" y="908" on="0"/>
        <pt x="354" y="925" on="1"/>
        <pt x="460" y="925" on="1"/>
        <pt x="459" y="922" on="0"/>
        <pt x="459" y="909" on="1"/>
        <pt x="461" y="867" on="0"/>
      </contour>
      <contour>
        <pt x="325" y="-11" on="1"/>
        <pt x="107" y="-11" on="0"/>
        <pt x="107" y="195" on="1"/>
        <pt x="107" y="354" on="0"/>
        <pt x="162" y="480" on="1"/>
        <pt x="223" y="616" on="0"/>
        <pt x="334" y="668" on="1"/>
        <pt x="395" y="696" on="0"/>
        <pt x="454" y="696" on="1"/>
        <pt x="561" y="696" on="0"/>
        <pt x="644" y="669" on="1"/>
        <pt x="671" y="660" on="1"/>
        <pt x="645" y="579" on="1"/>
        <pt x="545" y="599" on="0"/>
        <pt x="456" y="599" on="1"/>
        <pt x="396" y="599" on="0"/>
        <pt x="303" y="521" on="0"/>
        <pt x="276" y="459" on="1"/>
        <pt x="222" y="335" on="0"/>
        <pt x="222" y="194" on="1"/>
        <pt x="222" y="86" on="0"/>
        <pt x="338" y="86" on="1"/>
        <pt x="378" y="86" on="0"/>
        <pt x="414" y="94" on="1"/>
        <pt x="426" y="96" on="1"/>
        <pt x="468" y="277" on="1"/>
        <pt x="387" y="277" on="1"/>
        <pt x="409" y="370" on="1"/>
        <pt x="601" y="370" on="1"/>
        <pt x="518" y="15" on="1"/>
        <pt x="442" y="-11" on="0"/>
      </contour>
    </TTGlyph>
    <TTGlyph name="Gcircumflex" xMin="107" yMin="-11" xMax="671" yMax="930">
      <contour>
        <pt x="317" y="765" on="1"/>
        <pt x="479" y="930" on="1"/>
        <pt x="559" y="930" on="1"/>
        <pt x="645" y="765" on="1"/>
        <pt x="538" y="765" on="1"/>
        <pt x="503" y="839" on="1"/>
        <pt x="432" y="765" on="1"/>
      </contour>
      <contour>
        <pt x="325" y="-11" on="1"/>
        <pt x="107" y="-11" on="0"/>
        <pt x="107" y="195" on="1"/>
        <pt x="107" y="354" on="0"/>
        <pt x="162" y="480" on="1"/>
        <pt x="223" y="616" on="0"/>
        <pt x="334" y="668" on="1"/>
        <pt x="395" y="696" on="0"/>
        <pt x="454" y="696" on="1"/>
        <pt x="561" y="696" on="0"/>
        <pt x="644" y="669" on="1"/>
        <pt x="671" y="660" on="1"/>
        <pt x="645" y="579" on="1"/>
        <pt x="545" y="599" on="0"/>
        <pt x="456" y="599" on="1"/>
        <pt x="396" y="599" on="0"/>
        <pt x="303" y="521" on="0"/>
        <pt x="276" y="459" on="1"/>
        <pt x="222" y="335" on="0"/>
        <pt x="222" y="194" on="1"/>
        <pt x="222" y="86" on="0"/>
        <pt x="338" y="86" on="1"/>
        <pt x="378" y="86" on="0"/>
        <pt x="414" y="94" on="1"/>
        <pt x="426" y="96" on="1"/>
        <pt x="468" y="277" on="1"/>
        <pt x="387" y="277" on="1"/>
        <pt x="409" y="370" on="1"/>
        <pt x="601" y="370" on="1"/>
        <pt x="518" y="15" on="1"/>
        <pt x="442" y="-11" on="0"/>
      </contour>
    </TTGlyph>
    <TTGlyph name="Gcommaaccent" xMin="107" yMin="-298" xMax="671" yMax="696">
      <contour>
        <pt x="325" y="-11" on="1"/>
        <pt x="107" y="-11" on="0"/>
        <pt x="107" y="195" on="1"/>
        <pt x="107" y="354" on="0"/>
        <pt x="162" y="480" on="1"/>
        <pt x="223" y="616" on="0"/>
        <pt x="334" y="668" on="1"/>
        <pt x="395" y="696" on="0"/>
        <pt x="454" y="696" on="1"/>
        <pt x="561" y="696" on="0"/>
        <pt x="644" y="669" on="1"/>
        <pt x="671" y="660" on="1"/>
        <pt x="645" y="579" on="1"/>
        <pt x="545" y="599" on="0"/>
        <pt x="456" y="599" on="1"/>
        <pt x="396" y="599" on="0"/>
        <pt x="303" y="521" on="0"/>
        <pt x="276" y="459" on="1"/>
        <pt x="222" y="335" on="0"/>
        <pt x="222" y="194" on="1"/>
        <pt x="222" y="86" on="0"/>
        <pt x="338" y="86" on="1"/>
        <pt x="378" y="86" on="0"/>
        <pt x="414" y="94" on="1"/>
        <pt x="426" y="96" on="1"/>
        <pt x="468" y="277" on="1"/>
        <pt x="387" y="277" on="1"/>
        <pt x="409" y="370" on="1"/>
        <pt x="601" y="370" on="1"/>
        <pt x="518" y="15" on="1"/>
        <pt x="442" y="-11" on="0"/>
      </contour>
      <contour>
        <pt x="244" y="-72" on="1"/>
        <pt x="343" y="-72" on="1"/>
        <pt x="241" y="-298" on="1"/>
        <pt x="151" y="-298" on="1"/>
      </contour>
    </TTGlyph>
    <TTGlyph name="Gdotaccent" xMin="107" yMin="-11" xMax="671" yMax="877">
      <contour>
        <pt x="439" y="760" on="1"/>
        <pt x="466" y="877" on="1"/>
        <pt x="568" y="877" on="1"/>
        <pt x="541" y="760" on="1"/>
      </contour>
      <contour>
        <pt x="325" y="-11" on="1"/>
        <pt x="107" y="-11" on="0"/>
        <pt x="107" y="195" on="1"/>
        <pt x="107" y="354" on="0"/>
        <pt x="162" y="480" on="1"/>
        <pt x="223" y="616" on="0"/>
        <pt x="334" y="668" on="1"/>
        <pt x="395" y="696" on="0"/>
        <pt x="454" y="696" on="1"/>
        <pt x="561" y="696" on="0"/>
        <pt x="644" y="669" on="1"/>
        <pt x="671" y="660" on="1"/>
        <pt x="645" y="579" on="1"/>
        <pt x="545" y="599" on="0"/>
        <pt x="456" y="599" on="1"/>
        <pt x="396" y="599" on="0"/>
        <pt x="303" y="521" on="0"/>
        <pt x="276" y="459" on="1"/>
        <pt x="222" y="335" on="0"/>
        <pt x="222" y="194" on="1"/>
        <pt x="222" y="86" on="0"/>
        <pt x="338" y="86" on="1"/>
        <pt x="378" y="86" on="0"/>
        <pt x="414" y="94" on="1"/>
        <pt x="426" y="96" on="1"/>
        <pt x="468" y="277" on="1"/>
        <pt x="387" y="277" on="1"/>
        <pt x="409" y="370" on="1"/>
        <pt x="601" y="370" on="1"/>
        <pt x="518" y="15" on="1"/>
        <pt x="442" y="-11" on="0"/>
      </contour>
    </TTGlyph>
    <TTGlyph name="H" xMin="70" yMin="0" xMax="709" yMax="685">
      <contour>
        <pt x="440" y="0" on="1"/>
        <pt x="508" y="300" on="1"/>
        <pt x="251" y="300" on="1"/>
        <pt x="182" y="0" on="1"/>
        <pt x="70" y="0" on="1"/>
        <pt x="229" y="685" on="1"/>
        <pt x="340" y="685" on="1"/>
        <pt x="274" y="397" on="1"/>
        <pt x="531" y="397" on="1"/>
        <pt x="598" y="685" on="1"/>
        <pt x="709" y="685" on="1"/>
        <pt x="551" y="0" on="1"/>
      </contour>
    </TTGlyph>
    <TTGlyph name="Hbar" xMin="76" yMin="0" xMax="762" yMax="685">
      <contour>
        <pt x="118" y="490" on="1"/>
        <pt x="118" y="493" on="1"/>
        <pt x="140" y="588" on="1"/>
        <pt x="211" y="588" on="1"/>
        <pt x="234" y="685" on="1"/>
        <pt x="341" y="685" on="1"/>
        <pt x="318" y="588" on="1"/>
        <pt x="586" y="588" on="1"/>
        <pt x="608" y="685" on="1"/>
        <pt x="715" y="685" on="1"/>
        <pt x="692" y="588" on="1"/>
        <pt x="762" y="588" on="1"/>
        <pt x="737" y="490" on="1"/>
        <pt x="670" y="490" on="1"/>
        <pt x="557" y="0" on="1"/>
        <pt x="450" y="0" on="1"/>
        <pt x="518" y="293" on="1"/>
        <pt x="250" y="293" on="1"/>
        <pt x="183" y="0" on="1"/>
        <pt x="76" y="0" on="1"/>
        <pt x="189" y="490" on="1"/>
      </contour>
      <contour>
        <pt x="274" y="397" on="1"/>
        <pt x="542" y="397" on="1"/>
        <pt x="563" y="490" on="1"/>
        <pt x="295" y="490" on="1"/>
      </contour>
    </TTGlyph>
    <TTGlyph name="Hcircumflex" xMin="70" yMin="0" xMax="709" yMax="931">
      <contour>
        <pt x="440" y="0" on="1"/>
        <pt x="508" y="300" on="1"/>
        <pt x="251" y="300" on="1"/>
        <pt x="182" y="0" on="1"/>
        <pt x="70" y="0" on="1"/>
        <pt x="229" y="685" on="1"/>
        <pt x="340" y="685" on="1"/>
        <pt x="274" y="397" on="1"/>
        <pt x="531" y="397" on="1"/>
        <pt x="598" y="685" on="1"/>
        <pt x="709" y="685" on="1"/>
        <pt x="551" y="0" on="1"/>
      </contour>
      <contour>
        <pt x="320" y="785" on="1"/>
        <pt x="490" y="931" on="1"/>
        <pt x="553" y="931" on="1"/>
        <pt x="649" y="785" on="1"/>
        <pt x="550" y="785" on="1"/>
        <pt x="512" y="851" on="1"/>
        <pt x="435" y="785" on="1"/>
      </contour>
    </TTGlyph>
    <TTGlyph name="I" xMin="70" yMin="0" xMax="340" yMax="685">
      <contour>
        <pt x="70" y="0" on="1"/>
        <pt x="229" y="685" on="1"/>
        <pt x="340" y="685" on="1"/>
        <pt x="182" y="0" on="1"/>
      </contour>
    </TTGlyph>
    <TTGlyph name="Iacute" xMin="70" yMin="0" xMax="482" yMax="951">
      <contour>
        <pt x="233" y="774" on="1"/>
        <pt x="224" y="859" on="1"/>
        <pt x="472" y="951" on="1"/>
        <pt x="482" y="854" on="1"/>
      </contour>
      <contour>
        <pt x="70" y="0" on="1"/>
        <pt x="229" y="685" on="1"/>
        <pt x="340" y="685" on="1"/>
        <pt x="182" y="0" on="1"/>
      </contour>
    </TTGlyph>
    <TTGlyph name="Ibreve" xMin="70" yMin="0" xMax="494" yMax="925">
      <contour>
        <pt x="281" y="913" on="1"/>
        <pt x="281" y="874" on="0"/>
        <pt x="327" y="874" on="1"/>
        <pt x="351" y="874" on="0"/>
        <pt x="388" y="902" on="0"/>
        <pt x="396" y="925" on="1"/>
        <pt x="494" y="925" on="1"/>
        <pt x="450" y="788" on="0"/>
        <pt x="309" y="788" on="1"/>
        <pt x="239" y="788" on="0"/>
        <pt x="182" y="850" on="0"/>
        <pt x="182" y="895" on="1"/>
        <pt x="182" y="909" on="0"/>
        <pt x="184" y="925" on="1"/>
        <pt x="282" y="925" on="1"/>
        <pt x="281" y="918" on="0"/>
      </contour>
      <contour>
        <pt x="70" y="0" on="1"/>
        <pt x="229" y="685" on="1"/>
        <pt x="340" y="685" on="1"/>
        <pt x="182" y="0" on="1"/>
      </contour>
    </TTGlyph>
    <TTGlyph name="Icircumflex" xMin="70" yMin="0" xMax="466" yMax="932">
      <contour>
        <pt x="137" y="786" on="1"/>
        <pt x="307" y="932" on="1"/>
        <pt x="370" y="932" on="1"/>
        <pt x="466" y="786" on="1"/>
        <pt x="367" y="786" on="1"/>
        <pt x="329" y="852" on="1"/>
        <pt x="252" y="786" on="1"/>
      </contour>
      <contour>
        <pt x="70" y="0" on="1"/>
        <pt x="229" y="685" on="1"/>
        <pt x="340" y="685" on="1"/>
        <pt x="182" y="0" on="1"/>
      </contour>
    </TTGlyph>
    <TTGlyph name="Idieresis" xMin="70" yMin="0" xMax="475" yMax="925">
      <contour>
        <pt x="164" y="808" on="1"/>
        <pt x="191" y="925" on="1"/>
        <pt x="281" y="925" on="1"/>
        <pt x="253" y="808" on="1"/>
      </contour>
      <contour>
        <pt x="358" y="808" on="1"/>
        <pt x="385" y="925" on="1"/>
        <pt x="475" y="925" on="1"/>
        <pt x="446" y="808" on="1"/>
      </contour>
      <contour>
        <pt x="70" y="0" on="1"/>
        <pt x="229" y="685" on="1"/>
        <pt x="340" y="685" on="1"/>
        <pt x="182" y="0" on="1"/>
      </contour>
    </TTGlyph>
    <TTGlyph name="Idotaccent" xMin="70" yMin="0" xMax="381" yMax="914">
      <contour>
        <pt x="259" y="796" on="1"/>
        <pt x="286" y="914" on="1"/>
        <pt x="381" y="914" on="1"/>
        <pt x="353" y="796" on="1"/>
      </contour>
      <contour>
        <pt x="70" y="0" on="1"/>
        <pt x="229" y="685" on="1"/>
        <pt x="340" y="685" on="1"/>
        <pt x="182" y="0" on="1"/>
      </contour>
    </TTGlyph>
    <TTGlyph name="Igrave" xMin="70" yMin="0" xMax="405" yMax="941">
      <contour>
        <pt x="199" y="941" on="1"/>
        <pt x="405" y="849" on="1"/>
        <pt x="356" y="765" on="1"/>
        <pt x="146" y="846" on="1"/>
      </contour>
      <contour>
        <pt x="70" y="0" on="1"/>
        <pt x="229" y="685" on="1"/>
        <pt x="340" y="685" on="1"/>
        <pt x="182" y="0" on="1"/>
      </contour>
    </TTGlyph>
    <TTGlyph name="Imacron" xMin="70" yMin="0" xMax="484" yMax="912">
      <contour>
        <pt x="151" y="825" on="1"/>
        <pt x="171" y="912" on="1"/>
        <pt x="484" y="912" on="1"/>
        <pt x="463" y="825" on="1"/>
      </contour>
      <contour>
        <pt x="70" y="0" on="1"/>
        <pt x="229" y="685" on="1"/>
        <pt x="340" y="685" on="1"/>
        <pt x="182" y="0" on="1"/>
      </contour>
    </TTGlyph>
    <TTGlyph name="Iogonek" xMin="-21" yMin="-210" xMax="340" yMax="685">
      <contour>
        <pt x="155" y="-14" on="0"/>
        <pt x="96" y="-77" on="0"/>
        <pt x="96" y="-114" on="0"/>
        <pt x="114" y="-114" on="1"/>
        <pt x="156" y="-110" on="1"/>
        <pt x="146" y="-200" on="1"/>
        <pt x="94" y="-210" on="0"/>
        <pt x="20" y="-210" on="0"/>
        <pt x="-21" y="-173" on="0"/>
        <pt x="-21" y="-105" on="0"/>
        <pt x="36" y="-29" on="0"/>
        <pt x="72" y="0" on="1"/>
        <pt x="70" y="0" on="1"/>
        <pt x="229" y="685" on="1"/>
        <pt x="340" y="685" on="1"/>
        <pt x="182" y="0" on="1"/>
      </contour>
    </TTGlyph>
    <TTGlyph name="Itilde" xMin="70" yMin="0" xMax="491" yMax="926">
      <contour>
        <pt x="383" y="782" on="1"/>
        <pt x="358" y="782" on="0"/>
        <pt x="253" y="830" on="0"/>
        <pt x="240" y="830" on="1"/>
        <pt x="218" y="830" on="0"/>
        <pt x="168" y="798" on="1"/>
        <pt x="152" y="787" on="1"/>
        <pt x="149" y="863" on="1"/>
        <pt x="216" y="926" on="0"/>
        <pt x="260" y="926" on="1"/>
        <pt x="291" y="926" on="0"/>
        <pt x="394" y="878" on="0"/>
        <pt x="414" y="878" on="0"/>
        <pt x="457" y="898" on="0"/>
        <pt x="473" y="908" on="1"/>
        <pt x="489" y="919" on="1"/>
        <pt x="491" y="843" on="1"/>
        <pt x="428" y="782" on="0"/>
      </contour>
      <contour>
        <pt x="70" y="0" on="1"/>
        <pt x="229" y="685" on="1"/>
        <pt x="340" y="685" on="1"/>
        <pt x="182" y="0" on="1"/>
      </contour>
    </TTGlyph>
    <TTGlyph name="J" xMin="6" yMin="-70" xMax="366" yMax="685">
      <contour>
        <pt x="366" y="685" on="1"/>
        <pt x="237" y="128" on="1"/>
        <pt x="208" y="-3" on="0"/>
        <pt x="130" y="-70" on="0"/>
        <pt x="6" y="-70" on="1"/>
        <pt x="25" y="28" on="1"/>
        <pt x="76" y="29" on="0"/>
        <pt x="111" y="62" on="0"/>
        <pt x="126" y="130" on="1"/>
        <pt x="255" y="685" on="1"/>
      </contour>
    </TTGlyph>
    <TTGlyph name="Jcircumflex" xMin="6" yMin="-70" xMax="486" yMax="931">
      <contour>
        <pt x="366" y="685" on="1"/>
        <pt x="237" y="128" on="1"/>
        <pt x="208" y="-3" on="0"/>
        <pt x="130" y="-70" on="0"/>
        <pt x="6" y="-70" on="1"/>
        <pt x="25" y="28" on="1"/>
        <pt x="76" y="29" on="0"/>
        <pt x="111" y="62" on="0"/>
        <pt x="126" y="130" on="1"/>
        <pt x="255" y="685" on="1"/>
      </contour>
      <contour>
        <pt x="157" y="785" on="1"/>
        <pt x="327" y="931" on="1"/>
        <pt x="390" y="931" on="1"/>
        <pt x="486" y="785" on="1"/>
        <pt x="387" y="785" on="1"/>
        <pt x="349" y="851" on="1"/>
        <pt x="272" y="785" on="1"/>
      </contour>
    </TTGlyph>
    <TTGlyph name="K" xMin="70" yMin="0" xMax="674" yMax="685">
      <contour>
        <pt x="401" y="0" on="1"/>
        <pt x="333" y="288" on="1"/>
        <pt x="247" y="282" on="1"/>
        <pt x="182" y="0" on="1"/>
        <pt x="70" y="0" on="1"/>
        <pt x="229" y="685" on="1"/>
        <pt x="340" y="685" on="1"/>
        <pt x="269" y="380" on="1"/>
        <pt x="345" y="386" on="1"/>
        <pt x="551" y="685" on="1"/>
        <pt x="674" y="685" on="1"/>
        <pt x="434" y="341" on="1"/>
        <pt x="518" y="0" on="1"/>
      </contour>
    </TTGlyph>
    <TTGlyph name="Kcommaaccent" xMin="70" yMin="-298" xMax="674" yMax="685">
      <contour>
        <pt x="222" y="-72" on="1"/>
        <pt x="321" y="-72" on="1"/>
        <pt x="219" y="-298" on="1"/>
        <pt x="129" y="-298" on="1"/>
      </contour>
      <contour>
        <pt x="401" y="0" on="1"/>
        <pt x="333" y="288" on="1"/>
        <pt x="247" y="282" on="1"/>
        <pt x="182" y="0" on="1"/>
        <pt x="70" y="0" on="1"/>
        <pt x="229" y="685" on="1"/>
        <pt x="340" y="685" on="1"/>
        <pt x="269" y="380" on="1"/>
        <pt x="345" y="386" on="1"/>
        <pt x="551" y="685" on="1"/>
        <pt x="674" y="685" on="1"/>
        <pt x="434" y="341" on="1"/>
        <pt x="518" y="0" on="1"/>
      </contour>
    </TTGlyph>
    <TTGlyph name="L" xMin="70" yMin="0" xMax="444" yMax="685">
      <contour>
        <pt x="422" y="0" on="1"/>
        <pt x="70" y="0" on="1"/>
        <pt x="229" y="685" on="1"/>
        <pt x="340" y="685" on="1"/>
        <pt x="205" y="97" on="1"/>
        <pt x="444" y="97" on="1"/>
      </contour>
    </TTGlyph>
    <TTGlyph name="Lacute" xMin="70" yMin="0" xMax="556" yMax="951">
      <contour>
        <pt x="307" y="774" on="1"/>
        <pt x="298" y="859" on="1"/>
        <pt x="546" y="951" on="1"/>
        <pt x="556" y="854" on="1"/>
      </contour>
      <contour>
        <pt x="422" y="0" on="1"/>
        <pt x="70" y="0" on="1"/>
        <pt x="229" y="685" on="1"/>
        <pt x="340" y="685" on="1"/>
        <pt x="205" y="97" on="1"/>
        <pt x="444" y="97" on="1"/>
      </contour>
    </TTGlyph>
    <TTGlyph name="Lcaron" xMin="70" yMin="0" xMax="574" yMax="685">
      <contour>
        <pt x="574" y="685" on="1"/>
        <pt x="517" y="442" on="1"/>
        <pt x="417" y="442" on="1"/>
        <pt x="476" y="685" on="1"/>
      </contour>
      <contour>
        <pt x="422" y="0" on="1"/>
        <pt x="70" y="0" on="1"/>
        <pt x="229" y="685" on="1"/>
        <pt x="340" y="685" on="1"/>
        <pt x="205" y="97" on="1"/>
        <pt x="444" y="97" on="1"/>
      </contour>
    </TTGlyph>
    <TTGlyph name="Lcommaaccent" xMin="70" yMin="-298" xMax="444" yMax="685">
      <contour>
        <pt x="184" y="-72" on="1"/>
        <pt x="283" y="-72" on="1"/>
        <pt x="181" y="-298" on="1"/>
        <pt x="91" y="-298" on="1"/>
      </contour>
      <contour>
        <pt x="422" y="0" on="1"/>
        <pt x="70" y="0" on="1"/>
        <pt x="229" y="685" on="1"/>
        <pt x="340" y="685" on="1"/>
        <pt x="205" y="97" on="1"/>
        <pt x="444" y="97" on="1"/>
      </contour>
    </TTGlyph>
    <TTGlyph name="Lslash" xMin="54" yMin="0" xMax="446" yMax="685">
      <contour>
        <pt x="424" y="0" on="1"/>
        <pt x="72" y="0" on="1"/>
        <pt x="126" y="234" on="1"/>
        <pt x="88" y="210" on="1"/>
        <pt x="87" y="210" on="1"/>
        <pt x="54" y="286" on="1"/>
        <pt x="152" y="347" on="1"/>
        <pt x="231" y="685" on="1"/>
        <pt x="342" y="685" on="1"/>
        <pt x="283" y="429" on="1"/>
        <pt x="401" y="503" on="1"/>
        <pt x="435" y="427" on="1"/>
        <pt x="257" y="316" on="1"/>
        <pt x="207" y="97" on="1"/>
        <pt x="446" y="97" on="1"/>
      </contour>
    </TTGlyph>
    <TTGlyph name="M" xMin="70" yMin="0" xMax="873" yMax="685">
      <contour>
        <pt x="70" y="0" on="1"/>
        <pt x="229" y="685" on="1"/>
        <pt x="406" y="685" on="1"/>
        <pt x="426" y="151" on="1"/>
        <pt x="693" y="685" on="1"/>
        <pt x="873" y="685" on="1"/>
        <pt x="715" y="0" on="1"/>
        <pt x="603" y="0" on="1"/>
        <pt x="740" y="588" on="1"/>
        <pt x="732" y="588" on="1"/>
        <pt x="453" y="28" on="1"/>
        <pt x="345" y="28" on="1"/>
        <pt x="324" y="588" on="1"/>
        <pt x="317" y="588" on="1"/>
        <pt x="182" y="0" on="1"/>
      </contour>
    </TTGlyph>
    <TTGlyph name="N" xMin="70" yMin="0" xMax="730" yMax="685">
      <contour>
        <pt x="70" y="0" on="1"/>
        <pt x="229" y="685" on="1"/>
        <pt x="412" y="685" on="1"/>
        <pt x="478" y="117" on="1"/>
        <pt x="493" y="117" on="1"/>
        <pt x="622" y="685" on="1"/>
        <pt x="730" y="685" on="1"/>
        <pt x="572" y="0" on="1"/>
        <pt x="397" y="0" on="1"/>
        <pt x="325" y="575" on="1"/>
        <pt x="310" y="575" on="1"/>
        <pt x="176" y="0" on="1"/>
      </contour>
    </TTGlyph>
    <TTGlyph name="Nacute" xMin="70" yMin="0" xMax="730" yMax="951">
      <contour>
        <pt x="395" y="774" on="1"/>
        <pt x="386" y="859" on="1"/>
        <pt x="634" y="951" on="1"/>
        <pt x="644" y="854" on="1"/>
      </contour>
      <contour>
        <pt x="70" y="0" on="1"/>
        <pt x="229" y="685" on="1"/>
        <pt x="412" y="685" on="1"/>
        <pt x="478" y="117" on="1"/>
        <pt x="493" y="117" on="1"/>
        <pt x="622" y="685" on="1"/>
        <pt x="730" y="685" on="1"/>
        <pt x="572" y="0" on="1"/>
        <pt x="397" y="0" on="1"/>
        <pt x="325" y="575" on="1"/>
        <pt x="310" y="575" on="1"/>
        <pt x="176" y="0" on="1"/>
      </contour>
    </TTGlyph>
    <TTGlyph name="Ncaron" xMin="70" yMin="0" xMax="730" yMax="926">
      <contour>
        <pt x="680" y="926" on="1"/>
        <pt x="522" y="781" on="1"/>
        <pt x="449" y="781" on="1"/>
        <pt x="354" y="926" on="1"/>
        <pt x="461" y="926" on="1"/>
        <pt x="503" y="858" on="1"/>
        <pt x="573" y="926" on="1"/>
      </contour>
      <contour>
        <pt x="70" y="0" on="1"/>
        <pt x="229" y="685" on="1"/>
        <pt x="412" y="685" on="1"/>
        <pt x="478" y="117" on="1"/>
        <pt x="493" y="117" on="1"/>
        <pt x="622" y="685" on="1"/>
        <pt x="730" y="685" on="1"/>
        <pt x="572" y="0" on="1"/>
        <pt x="397" y="0" on="1"/>
        <pt x="325" y="575" on="1"/>
        <pt x="310" y="575" on="1"/>
        <pt x="176" y="0" on="1"/>
      </contour>
    </TTGlyph>
    <TTGlyph name="Ncommaaccent" xMin="70" yMin="-298" xMax="730" yMax="685">
      <contour>
        <pt x="281" y="-72" on="1"/>
        <pt x="380" y="-72" on="1"/>
        <pt x="278" y="-298" on="1"/>
        <pt x="188" y="-298" on="1"/>
      </contour>
      <contour>
        <pt x="70" y="0" on="1"/>
        <pt x="229" y="685" on="1"/>
        <pt x="412" y="685" on="1"/>
        <pt x="478" y="117" on="1"/>
        <pt x="493" y="117" on="1"/>
        <pt x="622" y="685" on="1"/>
        <pt x="730" y="685" on="1"/>
        <pt x="572" y="0" on="1"/>
        <pt x="397" y="0" on="1"/>
        <pt x="325" y="575" on="1"/>
        <pt x="310" y="575" on="1"/>
        <pt x="176" y="0" on="1"/>
      </contour>
    </TTGlyph>
    <TTGlyph name="Ntilde" xMin="70" yMin="0" xMax="730" yMax="932">
      <contour>
        <pt x="565" y="788" on="1"/>
        <pt x="540" y="788" on="0"/>
        <pt x="435" y="836" on="0"/>
        <pt x="422" y="836" on="1"/>
        <pt x="400" y="836" on="0"/>
        <pt x="350" y="804" on="1"/>
        <pt x="334" y="793" on="1"/>
        <pt x="331" y="869" on="1"/>
        <pt x="398" y="932" on="0"/>
        <pt x="442" y="932" on="1"/>
        <pt x="473" y="932" on="0"/>
        <pt x="576" y="884" on="0"/>
        <pt x="596" y="884" on="0"/>
        <pt x="639" y="904" on="0"/>
        <pt x="655" y="914" on="1"/>
        <pt x="671" y="925" on="1"/>
        <pt x="673" y="849" on="1"/>
        <pt x="610" y="788" on="0"/>
      </contour>
      <contour>
        <pt x="70" y="0" on="1"/>
        <pt x="229" y="685" on="1"/>
        <pt x="412" y="685" on="1"/>
        <pt x="478" y="117" on="1"/>
        <pt x="493" y="117" on="1"/>
        <pt x="622" y="685" on="1"/>
        <pt x="730" y="685" on="1"/>
        <pt x="572" y="0" on="1"/>
        <pt x="397" y="0" on="1"/>
        <pt x="325" y="575" on="1"/>
        <pt x="310" y="575" on="1"/>
        <pt x="176" y="0" on="1"/>
      </contour>
    </TTGlyph>
    <TTGlyph name="O" xMin="106" yMin="-11" xMax="670" yMax="696">
      <contour>
        <pt x="221" y="141" on="0"/>
        <pt x="273" y="86" on="0"/>
        <pt x="393" y="86" on="0"/>
        <pt x="435" y="123" on="1"/>
        <pt x="491" y="173" on="0"/>
        <pt x="555" y="379" on="0"/>
        <pt x="555" y="479" on="1"/>
        <pt x="555" y="543" on="0"/>
        <pt x="503" y="599" on="0"/>
        <pt x="384" y="599" on="0"/>
        <pt x="347" y="566" on="1"/>
        <pt x="289" y="513" on="0"/>
        <pt x="221" y="300" on="0"/>
      </contour>
      <contour>
        <pt x="506" y="48" on="1"/>
        <pt x="430" y="-11" on="0"/>
        <pt x="214" y="-11" on="0"/>
        <pt x="106" y="89" on="0"/>
        <pt x="106" y="196" on="1"/>
        <pt x="106" y="326" on="0"/>
        <pt x="187" y="560" on="0"/>
        <pt x="264" y="627" on="1"/>
        <pt x="341" y="696" on="0"/>
        <pt x="452" y="696" on="1"/>
        <pt x="670" y="696" on="0"/>
        <pt x="670" y="489" on="1"/>
        <pt x="670" y="353" on="0"/>
        <pt x="587" y="113" on="0"/>
      </contour>
    </TTGlyph>
    <TTGlyph name="OE" xMin="99" yMin="-11" xMax="968" yMax="704">
      <contour>
        <pt x="286" y="-11" on="1"/>
        <pt x="194" y="-11" on="0"/>
        <pt x="149" y="31" on="1"/>
        <pt x="100" y="77" on="0"/>
        <pt x="100" y="173" on="1"/>
        <pt x="100" y="247" on="0"/>
        <pt x="123" y="345" on="1"/>
        <pt x="167" y="529" on="0"/>
        <pt x="327" y="704" on="0"/>
        <pt x="454" y="704" on="1"/>
        <pt x="506" y="704" on="0"/>
        <pt x="572" y="693" on="1"/>
        <pt x="968" y="693" on="1"/>
        <pt x="944" y="586" on="1"/>
        <pt x="651" y="586" on="1"/>
        <pt x="605" y="396" on="1"/>
        <pt x="840" y="396" on="1"/>
        <pt x="817" y="294" on="1"/>
        <pt x="582" y="296" on="1"/>
        <pt x="537" y="107" on="1"/>
        <pt x="829" y="107" on="1"/>
        <pt x="804" y="0" on="1"/>
        <pt x="411" y="0" on="1"/>
        <pt x="338" y="-11" on="0"/>
      </contour>
      <contour>
        <pt x="324" y="96" on="1"/>
        <pt x="350" y="96" on="0"/>
        <pt x="432" y="103" on="1"/>
        <pt x="548" y="590" on="1"/>
        <pt x="491" y="596" on="0"/>
        <pt x="442" y="596" on="1"/>
        <pt x="360" y="596" on="0"/>
        <pt x="265" y="481" on="0"/>
        <pt x="232" y="346" on="1"/>
        <pt x="211" y="252" on="0"/>
        <pt x="211" y="148" on="0"/>
        <pt x="264" y="96" on="0"/>
      </contour>
    </TTGlyph>
    <TTGlyph name="Oacute" xMin="106" yMin="-11" xMax="670" yMax="951">
      <contour>
        <pt x="221" y="141" on="0"/>
        <pt x="273" y="86" on="0"/>
        <pt x="393" y="86" on="0"/>
        <pt x="435" y="123" on="1"/>
        <pt x="491" y="173" on="0"/>
        <pt x="555" y="379" on="0"/>
        <pt x="555" y="479" on="1"/>
        <pt x="555" y="543" on="0"/>
        <pt x="503" y="599" on="0"/>
        <pt x="384" y="599" on="0"/>
        <pt x="347" y="566" on="1"/>
        <pt x="289" y="513" on="0"/>
        <pt x="221" y="300" on="0"/>
      </contour>
      <contour>
        <pt x="506" y="48" on="1"/>
        <pt x="430" y="-11" on="0"/>
        <pt x="214" y="-11" on="0"/>
        <pt x="106" y="89" on="0"/>
        <pt x="106" y="196" on="1"/>
        <pt x="106" y="326" on="0"/>
        <pt x="187" y="560" on="0"/>
        <pt x="264" y="627" on="1"/>
        <pt x="341" y="696" on="0"/>
        <pt x="452" y="696" on="1"/>
        <pt x="670" y="696" on="0"/>
        <pt x="670" y="489" on="1"/>
        <pt x="670" y="353" on="0"/>
        <pt x="587" y="113" on="0"/>
      </contour>
      <contour>
        <pt x="404" y="774" on="1"/>
        <pt x="395" y="859" on="1"/>
        <pt x="643" y="951" on="1"/>
        <pt x="653" y="854" on="1"/>
      </contour>
    </TTGlyph>
    <TTGlyph name="Obreve" xMin="106" yMin="-11" xMax="670" yMax="925">
      <contour>
        <pt x="455" y="913" on="1"/>
        <pt x="455" y="874" on="0"/>
        <pt x="501" y="874" on="1"/>
        <pt x="525" y="874" on="0"/>
        <pt x="562" y="902" on="0"/>
        <pt x="570" y="925" on="1"/>
        <pt x="668" y="925" on="1"/>
        <pt x="624" y="788" on="0"/>
        <pt x="483" y="788" on="1"/>
        <pt x="413" y="788" on="0"/>
        <pt x="356" y="850" on="0"/>
        <pt x="356" y="895" on="1"/>
        <pt x="356" y="909" on="0"/>
        <pt x="358" y="925" on="1"/>
        <pt x="456" y="925" on="1"/>
        <pt x="455" y="918" on="0"/>
      </contour>
      <contour>
        <pt x="221" y="141" on="0"/>
        <pt x="273" y="86" on="0"/>
        <pt x="393" y="86" on="0"/>
        <pt x="435" y="123" on="1"/>
        <pt x="491" y="173" on="0"/>
        <pt x="555" y="379" on="0"/>
        <pt x="555" y="479" on="1"/>
        <pt x="555" y="543" on="0"/>
        <pt x="503" y="599" on="0"/>
        <pt x="384" y="599" on="0"/>
        <pt x="347" y="566" on="1"/>
        <pt x="289" y="513" on="0"/>
        <pt x="221" y="300" on="0"/>
      </contour>
      <contour>
        <pt x="506" y="48" on="1"/>
        <pt x="430" y="-11" on="0"/>
        <pt x="214" y="-11" on="0"/>
        <pt x="106" y="89" on="0"/>
        <pt x="106" y="196" on="1"/>
        <pt x="106" y="326" on="0"/>
        <pt x="187" y="560" on="0"/>
        <pt x="264" y="627" on="1"/>
        <pt x="341" y="696" on="0"/>
        <pt x="452" y="696" on="1"/>
        <pt x="670" y="696" on="0"/>
        <pt x="670" y="489" on="1"/>
        <pt x="670" y="353" on="0"/>
        <pt x="587" y="113" on="0"/>
      </contour>
    </TTGlyph>
    <TTGlyph name="Ocircumflex" xMin="106" yMin="-11" xMax="670" yMax="931">
      <contour>
        <pt x="221" y="141" on="0"/>
        <pt x="273" y="86" on="0"/>
        <pt x="393" y="86" on="0"/>
        <pt x="435" y="123" on="1"/>
        <pt x="491" y="173" on="0"/>
        <pt x="555" y="379" on="0"/>
        <pt x="555" y="479" on="1"/>
        <pt x="555" y="543" on="0"/>
        <pt x="503" y="599" on="0"/>
        <pt x="384" y="599" on="0"/>
        <pt x="347" y="566" on="1"/>
        <pt x="289" y="513" on="0"/>
        <pt x="221" y="300" on="0"/>
      </contour>
      <contour>
        <pt x="506" y="48" on="1"/>
        <pt x="430" y="-11" on="0"/>
        <pt x="214" y="-11" on="0"/>
        <pt x="106" y="89" on="0"/>
        <pt x="106" y="196" on="1"/>
        <pt x="106" y="326" on="0"/>
        <pt x="187" y="560" on="0"/>
        <pt x="264" y="627" on="1"/>
        <pt x="341" y="696" on="0"/>
        <pt x="452" y="696" on="1"/>
        <pt x="670" y="696" on="0"/>
        <pt x="670" y="489" on="1"/>
        <pt x="670" y="353" on="0"/>
        <pt x="587" y="113" on="0"/>
      </contour>
      <contour>
        <pt x="326" y="785" on="1"/>
        <pt x="496" y="931" on="1"/>
        <pt x="559" y="931" on="1"/>
        <pt x="655" y="785" on="1"/>
        <pt x="556" y="785" on="1"/>
        <pt x="518" y="851" on="1"/>
        <pt x="441" y="785" on="1"/>
      </contour>
    </TTGlyph>
    <TTGlyph name="Odieresis" xMin="106" yMin="-11" xMax="670" yMax="911">
      <contour>
        <pt x="343" y="795" on="1"/>
        <pt x="369" y="911" on="1"/>
        <pt x="468" y="911" on="1"/>
        <pt x="440" y="795" on="1"/>
      </contour>
      <contour>
        <pt x="540" y="795" on="1"/>
        <pt x="567" y="911" on="1"/>
        <pt x="665" y="911" on="1"/>
        <pt x="637" y="795" on="1"/>
      </contour>
      <contour>
        <pt x="221" y="141" on="0"/>
        <pt x="273" y="86" on="0"/>
        <pt x="393" y="86" on="0"/>
        <pt x="435" y="123" on="1"/>
        <pt x="491" y="173" on="0"/>
        <pt x="555" y="379" on="0"/>
        <pt x="555" y="479" on="1"/>
        <pt x="555" y="543" on="0"/>
        <pt x="503" y="599" on="0"/>
        <pt x="384" y="599" on="0"/>
        <pt x="347" y="566" on="1"/>
        <pt x="289" y="513" on="0"/>
        <pt x="221" y="300" on="0"/>
      </contour>
      <contour>
        <pt x="506" y="48" on="1"/>
        <pt x="430" y="-11" on="0"/>
        <pt x="214" y="-11" on="0"/>
        <pt x="106" y="89" on="0"/>
        <pt x="106" y="196" on="1"/>
        <pt x="106" y="326" on="0"/>
        <pt x="187" y="560" on="0"/>
        <pt x="264" y="627" on="1"/>
        <pt x="341" y="696" on="0"/>
        <pt x="452" y="696" on="1"/>
        <pt x="670" y="696" on="0"/>
        <pt x="670" y="489" on="1"/>
        <pt x="670" y="353" on="0"/>
        <pt x="587" y="113" on="0"/>
      </contour>
    </TTGlyph>
    <TTGlyph name="Ograve" xMin="106" yMin="-11" xMax="670" yMax="941">
      <contour>
        <pt x="403" y="941" on="1"/>
        <pt x="609" y="849" on="1"/>
        <pt x="560" y="765" on="1"/>
        <pt x="350" y="846" on="1"/>
      </contour>
      <contour>
        <pt x="221" y="141" on="0"/>
        <pt x="273" y="86" on="0"/>
        <pt x="393" y="86" on="0"/>
        <pt x="435" y="123" on="1"/>
        <pt x="491" y="173" on="0"/>
        <pt x="555" y="379" on="0"/>
        <pt x="555" y="479" on="1"/>
        <pt x="555" y="543" on="0"/>
        <pt x="503" y="599" on="0"/>
        <pt x="384" y="599" on="0"/>
        <pt x="347" y="566" on="1"/>
        <pt x="289" y="513" on="0"/>
        <pt x="221" y="300" on="0"/>
      </contour>
      <contour>
        <pt x="506" y="48" on="1"/>
        <pt x="430" y="-11" on="0"/>
        <pt x="214" y="-11" on="0"/>
        <pt x="106" y="89" on="0"/>
        <pt x="106" y="196" on="1"/>
        <pt x="106" y="326" on="0"/>
        <pt x="187" y="560" on="0"/>
        <pt x="264" y="627" on="1"/>
        <pt x="341" y="696" on="0"/>
        <pt x="452" y="696" on="1"/>
        <pt x="670" y="696" on="0"/>
        <pt x="670" y="489" on="1"/>
        <pt x="670" y="353" on="0"/>
        <pt x="587" y="113" on="0"/>
      </contour>
    </TTGlyph>
    <TTGlyph name="Ohungarumlaut" xMin="106" yMin="-11" xMax="745" yMax="959">
      <contour>
        <pt x="603" y="753" on="1"/>
        <pt x="529" y="789" on="1"/>
        <pt x="662" y="958" on="1"/>
        <pt x="745" y="919" on="1"/>
      </contour>
      <contour>
        <pt x="405" y="754" on="1"/>
        <pt x="330" y="789" on="1"/>
        <pt x="465" y="959" on="1"/>
        <pt x="547" y="920" on="1"/>
      </contour>
      <contour>
        <pt x="221" y="141" on="0"/>
        <pt x="273" y="86" on="0"/>
        <pt x="393" y="86" on="0"/>
        <pt x="435" y="123" on="1"/>
        <pt x="491" y="173" on="0"/>
        <pt x="555" y="379" on="0"/>
        <pt x="555" y="479" on="1"/>
        <pt x="555" y="543" on="0"/>
        <pt x="503" y="599" on="0"/>
        <pt x="384" y="599" on="0"/>
        <pt x="347" y="566" on="1"/>
        <pt x="289" y="513" on="0"/>
        <pt x="221" y="300" on="0"/>
      </contour>
      <contour>
        <pt x="506" y="48" on="1"/>
        <pt x="430" y="-11" on="0"/>
        <pt x="214" y="-11" on="0"/>
        <pt x="106" y="89" on="0"/>
        <pt x="106" y="196" on="1"/>
        <pt x="106" y="326" on="0"/>
        <pt x="187" y="560" on="0"/>
        <pt x="264" y="627" on="1"/>
        <pt x="341" y="696" on="0"/>
        <pt x="452" y="696" on="1"/>
        <pt x="670" y="696" on="0"/>
        <pt x="670" y="489" on="1"/>
        <pt x="670" y="353" on="0"/>
        <pt x="587" y="113" on="0"/>
      </contour>
    </TTGlyph>
    <TTGlyph name="Omacron" xMin="106" yMin="-11" xMax="670" yMax="901">
      <contour>
        <pt x="221" y="141" on="0"/>
        <pt x="273" y="86" on="0"/>
        <pt x="393" y="86" on="0"/>
        <pt x="435" y="123" on="1"/>
        <pt x="491" y="173" on="0"/>
        <pt x="555" y="379" on="0"/>
        <pt x="555" y="479" on="1"/>
        <pt x="555" y="543" on="0"/>
        <pt x="503" y="599" on="0"/>
        <pt x="384" y="599" on="0"/>
        <pt x="347" y="566" on="1"/>
        <pt x="289" y="513" on="0"/>
        <pt x="221" y="300" on="0"/>
      </contour>
      <contour>
        <pt x="506" y="48" on="1"/>
        <pt x="430" y="-11" on="0"/>
        <pt x="214" y="-11" on="0"/>
        <pt x="106" y="89" on="0"/>
        <pt x="106" y="196" on="1"/>
        <pt x="106" y="326" on="0"/>
        <pt x="187" y="560" on="0"/>
        <pt x="264" y="627" on="1"/>
        <pt x="341" y="696" on="0"/>
        <pt x="452" y="696" on="1"/>
        <pt x="670" y="696" on="0"/>
        <pt x="670" y="489" on="1"/>
        <pt x="670" y="353" on="0"/>
        <pt x="587" y="113" on="0"/>
      </contour>
      <contour>
        <pt x="332" y="814" on="1"/>
        <pt x="352" y="901" on="1"/>
        <pt x="665" y="901" on="1"/>
        <pt x="644" y="814" on="1"/>
      </contour>
    </TTGlyph>
    <TTGlyph name="Omega" xMin="107" yMin="-9" xMax="571" yMax="671">
      <contour>
        <pt x="108" y="84" on="1"/>
        <pt x="206" y="84" on="1"/>
        <pt x="195" y="100" on="0"/>
        <pt x="162" y="154" on="0"/>
        <pt x="107" y="311" on="0"/>
        <pt x="107" y="381" on="1"/>
        <pt x="107" y="533" on="0"/>
        <pt x="212" y="671" on="0"/>
        <pt x="466" y="671" on="0"/>
        <pt x="571" y="533" on="0"/>
        <pt x="571" y="381" on="1"/>
        <pt x="571" y="311" on="0"/>
        <pt x="521" y="162" on="0"/>
        <pt x="496" y="123" on="1"/>
        <pt x="471" y="84" on="1"/>
        <pt x="570" y="84" on="1"/>
        <pt x="570" y="-9" on="1"/>
        <pt x="367" y="-9" on="1"/>
        <pt x="367" y="72" on="1"/>
        <pt x="401" y="134" on="0"/>
        <pt x="456" y="300" on="0"/>
        <pt x="456" y="353" on="1"/>
        <pt x="456" y="477" on="0"/>
        <pt x="411" y="574" on="0"/>
        <pt x="266" y="574" on="0"/>
        <pt x="222" y="477" on="0"/>
        <pt x="222" y="353" on="1"/>
        <pt x="222" y="300" on="0"/>
        <pt x="266" y="160" on="0"/>
        <pt x="288" y="116" on="1"/>
        <pt x="311" y="72" on="1"/>
        <pt x="311" y="-9" on="1"/>
        <pt x="108" y="-9" on="1"/>
      </contour>
    </TTGlyph>
    <TTGlyph name="Oslash" xMin="60" yMin="-118" xMax="724" yMax="801">
      <contour>
        <pt x="106" y="196" on="1"/>
        <pt x="106" y="326" on="0"/>
        <pt x="187" y="560" on="0"/>
        <pt x="264" y="627" on="1"/>
        <pt x="341" y="696" on="0"/>
        <pt x="452" y="696" on="1"/>
        <pt x="524" y="696" on="0"/>
        <pt x="573" y="672" on="1"/>
        <pt x="661" y="801" on="1"/>
        <pt x="724" y="775" on="1"/>
        <pt x="626" y="632" on="1"/>
        <pt x="670" y="579" on="0"/>
        <pt x="670" y="489" on="1"/>
        <pt x="670" y="353" on="0"/>
        <pt x="587" y="113" on="0"/>
        <pt x="506" y="48" on="1"/>
        <pt x="430" y="-11" on="0"/>
        <pt x="320" y="-11" on="1"/>
        <pt x="250" y="-11" on="0"/>
        <pt x="203" y="10" on="1"/>
        <pt x="116" y="-118" on="1"/>
        <pt x="60" y="-84" on="1"/>
        <pt x="150" y="49" on="1"/>
        <pt x="106" y="101" on="0"/>
      </contour>
      <contour>
        <pt x="513" y="583" on="1"/>
        <pt x="487" y="599" on="0"/>
        <pt x="384" y="599" on="0"/>
        <pt x="347" y="566" on="1"/>
        <pt x="289" y="513" on="0"/>
        <pt x="221" y="300" on="0"/>
        <pt x="221" y="206" on="1"/>
        <pt x="221" y="177" on="0"/>
        <pt x="225" y="160" on="1"/>
      </contour>
      <contour>
        <pt x="264" y="100" on="1"/>
        <pt x="292" y="86" on="0"/>
        <pt x="393" y="86" on="0"/>
        <pt x="435" y="123" on="1"/>
        <pt x="491" y="173" on="0"/>
        <pt x="555" y="379" on="0"/>
        <pt x="555" y="479" on="1"/>
        <pt x="555" y="505" on="0"/>
        <pt x="551" y="521" on="1"/>
      </contour>
    </TTGlyph>
    <TTGlyph name="Oslashacute" xMin="61" yMin="-118" xMax="725" yMax="951">
      <contour>
        <pt x="107" y="196" on="1"/>
        <pt x="107" y="326" on="0"/>
        <pt x="188" y="560" on="0"/>
        <pt x="265" y="627" on="1"/>
        <pt x="342" y="696" on="0"/>
        <pt x="453" y="696" on="1"/>
        <pt x="524" y="696" on="0"/>
        <pt x="574" y="672" on="1"/>
        <pt x="662" y="801" on="1"/>
        <pt x="725" y="775" on="1"/>
        <pt x="627" y="632" on="1"/>
        <pt x="671" y="579" on="0"/>
        <pt x="671" y="489" on="1"/>
        <pt x="671" y="353" on="0"/>
        <pt x="588" y="113" on="0"/>
        <pt x="507" y="48" on="1"/>
        <pt x="431" y="-11" on="0"/>
        <pt x="321" y="-11" on="1"/>
        <pt x="250" y="-11" on="0"/>
        <pt x="204" y="10" on="1"/>
        <pt x="117" y="-118" on="1"/>
        <pt x="61" y="-84" on="1"/>
        <pt x="151" y="49" on="1"/>
        <pt x="107" y="101" on="0"/>
      </contour>
      <contour>
        <pt x="514" y="583" on="1"/>
        <pt x="488" y="599" on="0"/>
        <pt x="385" y="599" on="0"/>
        <pt x="348" y="566" on="1"/>
        <pt x="290" y="513" on="0"/>
        <pt x="222" y="300" on="0"/>
        <pt x="222" y="206" on="1"/>
        <pt x="222" y="177" on="0"/>
        <pt x="226" y="160" on="1"/>
      </contour>
      <contour>
        <pt x="265" y="100" on="1"/>
        <pt x="293" y="86" on="0"/>
        <pt x="394" y="86" on="0"/>
        <pt x="436" y="123" on="1"/>
        <pt x="492" y="173" on="0"/>
        <pt x="556" y="379" on="0"/>
        <pt x="556" y="479" on="1"/>
        <pt x="556" y="505" on="0"/>
        <pt x="552" y="521" on="1"/>
      </contour>
      <contour>
        <pt x="402" y="765" on="1"/>
        <pt x="392" y="859" on="1"/>
        <pt x="640" y="951" on="1"/>
        <pt x="651" y="846" on="1"/>
      </contour>
    </TTGlyph>
    <TTGlyph name="Otilde" xMin="106" yMin="-11" xMax="680" yMax="932">
      <contour>
        <pt x="572" y="788" on="1"/>
        <pt x="547" y="788" on="0"/>
        <pt x="442" y="836" on="0"/>
        <pt x="429" y="836" on="1"/>
        <pt x="407" y="836" on="0"/>
        <pt x="357" y="804" on="1"/>
        <pt x="341" y="793" on="1"/>
        <pt x="338" y="869" on="1"/>
        <pt x="405" y="932" on="0"/>
        <pt x="449" y="932" on="1"/>
        <pt x="480" y="932" on="0"/>
        <pt x="583" y="884" on="0"/>
        <pt x="603" y="884" on="0"/>
        <pt x="646" y="904" on="0"/>
        <pt x="662" y="914" on="1"/>
        <pt x="678" y="925" on="1"/>
        <pt x="680" y="849" on="1"/>
        <pt x="617" y="788" on="0"/>
      </contour>
      <contour>
        <pt x="221" y="141" on="0"/>
        <pt x="273" y="86" on="0"/>
        <pt x="393" y="86" on="0"/>
        <pt x="435" y="123" on="1"/>
        <pt x="491" y="173" on="0"/>
        <pt x="555" y="379" on="0"/>
        <pt x="555" y="479" on="1"/>
        <pt x="555" y="543" on="0"/>
        <pt x="503" y="599" on="0"/>
        <pt x="384" y="599" on="0"/>
        <pt x="347" y="566" on="1"/>
        <pt x="289" y="513" on="0"/>
        <pt x="221" y="300" on="0"/>
      </contour>
      <contour>
        <pt x="506" y="48" on="1"/>
        <pt x="430" y="-11" on="0"/>
        <pt x="214" y="-11" on="0"/>
        <pt x="106" y="89" on="0"/>
        <pt x="106" y="196" on="1"/>
        <pt x="106" y="326" on="0"/>
        <pt x="187" y="560" on="0"/>
        <pt x="264" y="627" on="1"/>
        <pt x="341" y="696" on="0"/>
        <pt x="452" y="696" on="1"/>
        <pt x="670" y="696" on="0"/>
        <pt x="670" y="489" on="1"/>
        <pt x="670" y="353" on="0"/>
        <pt x="587" y="113" on="0"/>
      </contour>
    </TTGlyph>
    <TTGlyph name="P" xMin="70" yMin="0" xMax="627" yMax="685">
      <contour>
        <pt x="344" y="212" on="1"/>
        <pt x="231" y="212" on="1"/>
        <pt x="182" y="0" on="1"/>
        <pt x="70" y="0" on="1"/>
        <pt x="229" y="685" on="1"/>
        <pt x="434" y="685" on="1"/>
        <pt x="535" y="685" on="0"/>
        <pt x="627" y="599" on="0"/>
        <pt x="627" y="505" on="1"/>
        <pt x="627" y="367" on="0"/>
        <pt x="477" y="212" on="0"/>
      </contour>
      <contour>
        <pt x="360" y="309" on="1"/>
        <pt x="433" y="309" on="0"/>
        <pt x="513" y="415" on="0"/>
        <pt x="513" y="504" on="1"/>
        <pt x="513" y="547" on="0"/>
        <pt x="472" y="588" on="0"/>
        <pt x="425" y="588" on="1"/>
        <pt x="317" y="588" on="1"/>
        <pt x="253" y="309" on="1"/>
      </contour>
    </TTGlyph>
    <TTGlyph name="Q" xMin="106" yMin="-150" xMax="670" yMax="696">
      <contour>
        <pt x="320" y="-11" on="1"/>
        <pt x="214" y="-11" on="0"/>
        <pt x="106" y="89" on="0"/>
        <pt x="106" y="196" on="1"/>
        <pt x="106" y="326" on="0"/>
        <pt x="187" y="560" on="0"/>
        <pt x="264" y="627" on="1"/>
        <pt x="341" y="696" on="0"/>
        <pt x="452" y="696" on="1"/>
        <pt x="670" y="696" on="0"/>
        <pt x="670" y="489" on="1"/>
        <pt x="670" y="353" on="0"/>
        <pt x="587" y="113" on="0"/>
        <pt x="506" y="48" on="1"/>
        <pt x="491" y="35" on="0"/>
        <pt x="466" y="23" on="1"/>
        <pt x="514" y="-115" on="1"/>
        <pt x="409" y="-150" on="1"/>
        <pt x="365" y="-8" on="1"/>
        <pt x="342" y="-11" on="0"/>
      </contour>
      <contour>
        <pt x="221" y="141" on="0"/>
        <pt x="273" y="86" on="0"/>
        <pt x="393" y="86" on="0"/>
        <pt x="435" y="123" on="1"/>
        <pt x="491" y="173" on="0"/>
        <pt x="555" y="379" on="0"/>
        <pt x="555" y="479" on="1"/>
        <pt x="555" y="543" on="0"/>
        <pt x="503" y="599" on="0"/>
        <pt x="384" y="599" on="0"/>
        <pt x="347" y="566" on="1"/>
        <pt x="289" y="513" on="0"/>
        <pt x="221" y="300" on="0"/>
      </contour>
    </TTGlyph>
    <TTGlyph name="R" xMin="70" yMin="0" xMax="628" yMax="685">
      <contour>
        <pt x="432" y="685" on="1"/>
        <pt x="532" y="685" on="0"/>
        <pt x="628" y="599" on="0"/>
        <pt x="628" y="404" on="0"/>
        <pt x="533" y="273" on="0"/>
        <pt x="465" y="250" on="1"/>
        <pt x="529" y="0" on="1"/>
        <pt x="418" y="0" on="1"/>
        <pt x="362" y="235" on="1"/>
        <pt x="236" y="235" on="1"/>
        <pt x="182" y="0" on="1"/>
        <pt x="70" y="0" on="1"/>
        <pt x="229" y="685" on="1"/>
      </contour>
      <contour>
        <pt x="437" y="331" on="0"/>
        <pt x="513" y="427" on="0"/>
        <pt x="513" y="548" on="0"/>
        <pt x="473" y="589" on="0"/>
        <pt x="424" y="589" on="1"/>
        <pt x="318" y="589" on="1"/>
        <pt x="258" y="331" on="1"/>
        <pt x="373" y="331" on="1"/>
      </contour>
    </TTGlyph>
    <TTGlyph name="Racute" xMin="70" yMin="0" xMax="628" yMax="951">
      <contour>
        <pt x="628" y="404" on="0"/>
        <pt x="533" y="273" on="0"/>
        <pt x="465" y="250" on="1"/>
        <pt x="529" y="0" on="1"/>
        <pt x="418" y="0" on="1"/>
        <pt x="362" y="235" on="1"/>
        <pt x="236" y="235" on="1"/>
        <pt x="182" y="0" on="1"/>
        <pt x="70" y="0" on="1"/>
        <pt x="229" y="685" on="1"/>
        <pt x="432" y="685" on="1"/>
        <pt x="532" y="685" on="0"/>
        <pt x="628" y="599" on="0"/>
      </contour>
      <contour>
        <pt x="513" y="548" on="0"/>
        <pt x="473" y="589" on="0"/>
        <pt x="424" y="589" on="1"/>
        <pt x="318" y="589" on="1"/>
        <pt x="258" y="331" on="1"/>
        <pt x="373" y="331" on="1"/>
        <pt x="437" y="331" on="0"/>
        <pt x="513" y="427" on="0"/>
      </contour>
      <contour>
        <pt x="342" y="774" on="1"/>
        <pt x="333" y="859" on="1"/>
        <pt x="581" y="951" on="1"/>
        <pt x="591" y="854" on="1"/>
      </contour>
    </TTGlyph>
    <TTGlyph name="Rcaron" xMin="70" yMin="0" xMax="628" yMax="927">
      <contour>
        <pt x="621" y="927" on="1"/>
        <pt x="463" y="782" on="1"/>
        <pt x="390" y="782" on="1"/>
        <pt x="295" y="927" on="1"/>
        <pt x="402" y="927" on="1"/>
        <pt x="444" y="859" on="1"/>
        <pt x="514" y="927" on="1"/>
      </contour>
      <contour>
        <pt x="628" y="404" on="0"/>
        <pt x="533" y="273" on="0"/>
        <pt x="465" y="250" on="1"/>
        <pt x="529" y="0" on="1"/>
        <pt x="418" y="0" on="1"/>
        <pt x="362" y="235" on="1"/>
        <pt x="236" y="235" on="1"/>
        <pt x="182" y="0" on="1"/>
        <pt x="70" y="0" on="1"/>
        <pt x="229" y="685" on="1"/>
        <pt x="432" y="685" on="1"/>
        <pt x="532" y="685" on="0"/>
        <pt x="628" y="599" on="0"/>
      </contour>
      <contour>
        <pt x="513" y="548" on="0"/>
        <pt x="473" y="589" on="0"/>
        <pt x="424" y="589" on="1"/>
        <pt x="318" y="589" on="1"/>
        <pt x="258" y="331" on="1"/>
        <pt x="373" y="331" on="1"/>
        <pt x="437" y="331" on="0"/>
        <pt x="513" y="427" on="0"/>
      </contour>
    </TTGlyph>
    <TTGlyph name="Rcommaaccent" xMin="70" yMin="-298" xMax="628" yMax="685">
      <contour>
        <pt x="146" y="-298" on="1"/>
        <pt x="239" y="-72" on="1"/>
        <pt x="338" y="-72" on="1"/>
        <pt x="236" y="-298" on="1"/>
      </contour>
      <contour>
        <pt x="432" y="685" on="1"/>
        <pt x="532" y="685" on="0"/>
        <pt x="628" y="599" on="0"/>
        <pt x="628" y="404" on="0"/>
        <pt x="533" y="273" on="0"/>
        <pt x="465" y="250" on="1"/>
        <pt x="529" y="0" on="1"/>
        <pt x="418" y="0" on="1"/>
        <pt x="362" y="235" on="1"/>
        <pt x="236" y="235" on="1"/>
        <pt x="182" y="0" on="1"/>
        <pt x="70" y="0" on="1"/>
        <pt x="229" y="685" on="1"/>
      </contour>
      <contour>
        <pt x="437" y="331" on="0"/>
        <pt x="513" y="427" on="0"/>
        <pt x="513" y="548" on="0"/>
        <pt x="473" y="589" on="0"/>
        <pt x="424" y="589" on="1"/>
        <pt x="318" y="589" on="1"/>
        <pt x="258" y="331" on="1"/>
        <pt x="373" y="331" on="1"/>
      </contour>
    </TTGlyph>
    <TTGlyph name="S" xMin="53" yMin="-11" xMax="588" yMax="696">
      <contour>
        <pt x="568" y="583" on="1"/>
        <pt x="460" y="601" on="0"/>
        <pt x="332" y="601" on="0"/>
        <pt x="266" y="541" on="0"/>
        <pt x="266" y="487" on="1"/>
        <pt x="266" y="453" on="0"/>
        <pt x="305" y="420" on="0"/>
        <pt x="454" y="360" on="0"/>
        <pt x="511" y="292" on="0"/>
        <pt x="511" y="226" on="1"/>
        <pt x="511" y="113" on="0"/>
        <pt x="374" y="-11" on="0"/>
        <pt x="257" y="-11" on="1"/>
        <pt x="212" y="-11" on="0"/>
        <pt x="110" y="6" on="0"/>
        <pt x="82" y="15" on="1"/>
        <pt x="53" y="24" on="1"/>
        <pt x="71" y="105" on="1"/>
        <pt x="186" y="86" on="0"/>
        <pt x="258" y="86" on="1"/>
        <pt x="397" y="86" on="0"/>
        <pt x="397" y="213" on="1"/>
        <pt x="397" y="248" on="0"/>
        <pt x="359" y="281" on="0"/>
        <pt x="216" y="339" on="0"/>
        <pt x="153" y="410" on="0"/>
        <pt x="153" y="475" on="1"/>
        <pt x="153" y="574" on="0"/>
        <pt x="281" y="696" on="0"/>
        <pt x="389" y="696" on="1"/>
        <pt x="434" y="696" on="0"/>
        <pt x="533" y="680" on="0"/>
        <pt x="560" y="672" on="1"/>
        <pt x="588" y="663" on="1"/>
      </contour>
    </TTGlyph>
    <TTGlyph name="Sacute" xMin="53" yMin="-11" xMax="593" yMax="951">
      <contour>
        <pt x="568" y="583" on="1"/>
        <pt x="460" y="601" on="0"/>
        <pt x="332" y="601" on="0"/>
        <pt x="266" y="541" on="0"/>
        <pt x="266" y="487" on="1"/>
        <pt x="266" y="453" on="0"/>
        <pt x="305" y="420" on="0"/>
        <pt x="454" y="360" on="0"/>
        <pt x="511" y="292" on="0"/>
        <pt x="511" y="226" on="1"/>
        <pt x="511" y="113" on="0"/>
        <pt x="374" y="-11" on="0"/>
        <pt x="257" y="-11" on="1"/>
        <pt x="212" y="-11" on="0"/>
        <pt x="110" y="6" on="0"/>
        <pt x="82" y="15" on="1"/>
        <pt x="53" y="24" on="1"/>
        <pt x="71" y="105" on="1"/>
        <pt x="186" y="86" on="0"/>
        <pt x="258" y="86" on="1"/>
        <pt x="397" y="86" on="0"/>
        <pt x="397" y="213" on="1"/>
        <pt x="397" y="248" on="0"/>
        <pt x="359" y="281" on="0"/>
        <pt x="216" y="339" on="0"/>
        <pt x="153" y="410" on="0"/>
        <pt x="153" y="475" on="1"/>
        <pt x="153" y="574" on="0"/>
        <pt x="281" y="696" on="0"/>
        <pt x="389" y="696" on="1"/>
        <pt x="434" y="696" on="0"/>
        <pt x="533" y="680" on="0"/>
        <pt x="560" y="672" on="1"/>
        <pt x="588" y="663" on="1"/>
      </contour>
      <contour>
        <pt x="344" y="774" on="1"/>
        <pt x="335" y="859" on="1"/>
        <pt x="583" y="951" on="1"/>
        <pt x="593" y="854" on="1"/>
      </contour>
    </TTGlyph>
    <TTGlyph name="Scaron" xMin="53" yMin="-11" xMax="630" yMax="928">
      <contour>
        <pt x="630" y="928" on="1"/>
        <pt x="472" y="783" on="1"/>
        <pt x="399" y="783" on="1"/>
        <pt x="304" y="928" on="1"/>
        <pt x="411" y="928" on="1"/>
        <pt x="453" y="860" on="1"/>
        <pt x="523" y="928" on="1"/>
      </contour>
      <contour>
        <pt x="568" y="583" on="1"/>
        <pt x="460" y="601" on="0"/>
        <pt x="332" y="601" on="0"/>
        <pt x="266" y="541" on="0"/>
        <pt x="266" y="487" on="1"/>
        <pt x="266" y="453" on="0"/>
        <pt x="305" y="420" on="0"/>
        <pt x="454" y="360" on="0"/>
        <pt x="511" y="292" on="0"/>
        <pt x="511" y="226" on="1"/>
        <pt x="511" y="113" on="0"/>
        <pt x="374" y="-11" on="0"/>
        <pt x="257" y="-11" on="1"/>
        <pt x="212" y="-11" on="0"/>
        <pt x="110" y="6" on="0"/>
        <pt x="82" y="15" on="1"/>
        <pt x="53" y="24" on="1"/>
        <pt x="71" y="105" on="1"/>
        <pt x="186" y="86" on="0"/>
        <pt x="258" y="86" on="1"/>
        <pt x="397" y="86" on="0"/>
        <pt x="397" y="213" on="1"/>
        <pt x="397" y="248" on="0"/>
        <pt x="359" y="281" on="0"/>
        <pt x="216" y="339" on="0"/>
        <pt x="153" y="410" on="0"/>
        <pt x="153" y="475" on="1"/>
        <pt x="153" y="574" on="0"/>
        <pt x="281" y="696" on="0"/>
        <pt x="389" y="696" on="1"/>
        <pt x="434" y="696" on="0"/>
        <pt x="533" y="680" on="0"/>
        <pt x="560" y="672" on="1"/>
        <pt x="588" y="663" on="1"/>
      </contour>
    </TTGlyph>
    <TTGlyph name="Scedilla" xMin="53" yMin="-221" xMax="588" yMax="696">
      <contour>
        <pt x="568" y="583" on="1"/>
        <pt x="460" y="601" on="0"/>
        <pt x="332" y="601" on="0"/>
        <pt x="266" y="541" on="0"/>
        <pt x="266" y="487" on="1"/>
        <pt x="266" y="453" on="0"/>
        <pt x="305" y="420" on="0"/>
        <pt x="454" y="360" on="0"/>
        <pt x="511" y="292" on="0"/>
        <pt x="511" y="226" on="1"/>
        <pt x="511" y="115" on="0"/>
        <pt x="379" y="-9" on="0"/>
        <pt x="265" y="-11" on="1"/>
        <pt x="258" y="-38" on="1"/>
        <pt x="264" y="-38" on="1"/>
        <pt x="353" y="-38" on="0"/>
        <pt x="353" y="-99" on="1"/>
        <pt x="353" y="-110" on="0"/>
        <pt x="350" y="-124" on="1"/>
        <pt x="327" y="-221" on="0"/>
        <pt x="230" y="-221" on="1"/>
        <pt x="197" y="-221" on="0"/>
        <pt x="159" y="-214" on="1"/>
        <pt x="148" y="-212" on="1"/>
        <pt x="165" y="-144" on="1"/>
        <pt x="198" y="-146" on="0"/>
        <pt x="218" y="-146" on="1"/>
        <pt x="256" y="-146" on="0"/>
        <pt x="263" y="-117" on="1"/>
        <pt x="267" y="-101" on="0"/>
        <pt x="250" y="-91" on="0"/>
        <pt x="231" y="-91" on="1"/>
        <pt x="202" y="-91" on="1"/>
        <pt x="220" y="-9" on="1"/>
        <pt x="137" y="-3" on="0"/>
        <pt x="75" y="17" on="1"/>
        <pt x="53" y="24" on="1"/>
        <pt x="71" y="105" on="1"/>
        <pt x="186" y="86" on="0"/>
        <pt x="258" y="86" on="1"/>
        <pt x="397" y="86" on="0"/>
        <pt x="397" y="213" on="1"/>
        <pt x="397" y="248" on="0"/>
        <pt x="359" y="281" on="0"/>
        <pt x="216" y="339" on="0"/>
        <pt x="153" y="410" on="0"/>
        <pt x="153" y="475" on="1"/>
        <pt x="153" y="574" on="0"/>
        <pt x="281" y="696" on="0"/>
        <pt x="389" y="696" on="1"/>
        <pt x="434" y="696" on="0"/>
        <pt x="533" y="680" on="0"/>
        <pt x="560" y="672" on="1"/>
        <pt x="588" y="663" on="1"/>
      </contour>
    </TTGlyph>
    <TTGlyph name="Scircumflex" xMin="53" yMin="-11" xMax="589" yMax="931">
      <contour>
        <pt x="568" y="583" on="1"/>
        <pt x="460" y="601" on="0"/>
        <pt x="332" y="601" on="0"/>
        <pt x="266" y="541" on="0"/>
        <pt x="266" y="487" on="1"/>
        <pt x="266" y="453" on="0"/>
        <pt x="305" y="420" on="0"/>
        <pt x="454" y="360" on="0"/>
        <pt x="511" y="292" on="0"/>
        <pt x="511" y="226" on="1"/>
        <pt x="511" y="113" on="0"/>
        <pt x="374" y="-11" on="0"/>
        <pt x="257" y="-11" on="1"/>
        <pt x="212" y="-11" on="0"/>
        <pt x="110" y="6" on="0"/>
        <pt x="82" y="15" on="1"/>
        <pt x="53" y="24" on="1"/>
        <pt x="71" y="105" on="1"/>
        <pt x="186" y="86" on="0"/>
        <pt x="258" y="86" on="1"/>
        <pt x="397" y="86" on="0"/>
        <pt x="397" y="213" on="1"/>
        <pt x="397" y="248" on="0"/>
        <pt x="359" y="281" on="0"/>
        <pt x="216" y="339" on="0"/>
        <pt x="153" y="410" on="0"/>
        <pt x="153" y="475" on="1"/>
        <pt x="153" y="574" on="0"/>
        <pt x="281" y="696" on="0"/>
        <pt x="389" y="696" on="1"/>
        <pt x="434" y="696" on="0"/>
        <pt x="533" y="680" on="0"/>
        <pt x="560" y="672" on="1"/>
        <pt x="588" y="663" on="1"/>
      </contour>
      <contour>
        <pt x="260" y="785" on="1"/>
        <pt x="430" y="931" on="1"/>
        <pt x="493" y="931" on="1"/>
        <pt x="589" y="785" on="1"/>
        <pt x="490" y="785" on="1"/>
        <pt x="452" y="851" on="1"/>
        <pt x="375" y="785" on="1"/>
      </contour>
    </TTGlyph>
    <TTGlyph name="Scommaaccent" xMin="53" yMin="-298" xMax="588" yMax="696">
      <contour>
        <pt x="194" y="-72" on="1"/>
        <pt x="293" y="-72" on="1"/>
        <pt x="191" y="-298" on="1"/>
        <pt x="101" y="-298" on="1"/>
      </contour>
      <contour>
        <pt x="568" y="583" on="1"/>
        <pt x="460" y="601" on="0"/>
        <pt x="332" y="601" on="0"/>
        <pt x="266" y="541" on="0"/>
        <pt x="266" y="487" on="1"/>
        <pt x="266" y="453" on="0"/>
        <pt x="305" y="420" on="0"/>
        <pt x="454" y="360" on="0"/>
        <pt x="511" y="292" on="0"/>
        <pt x="511" y="226" on="1"/>
        <pt x="511" y="113" on="0"/>
        <pt x="374" y="-11" on="0"/>
        <pt x="257" y="-11" on="1"/>
        <pt x="212" y="-11" on="0"/>
        <pt x="110" y="6" on="0"/>
        <pt x="82" y="15" on="1"/>
        <pt x="53" y="24" on="1"/>
        <pt x="71" y="105" on="1"/>
        <pt x="186" y="86" on="0"/>
        <pt x="258" y="86" on="1"/>
        <pt x="397" y="86" on="0"/>
        <pt x="397" y="213" on="1"/>
        <pt x="397" y="248" on="0"/>
        <pt x="359" y="281" on="0"/>
        <pt x="216" y="339" on="0"/>
        <pt x="153" y="410" on="0"/>
        <pt x="153" y="475" on="1"/>
        <pt x="153" y="574" on="0"/>
        <pt x="281" y="696" on="0"/>
        <pt x="389" y="696" on="1"/>
        <pt x="434" y="696" on="0"/>
        <pt x="533" y="680" on="0"/>
        <pt x="560" y="672" on="1"/>
        <pt x="588" y="663" on="1"/>
      </contour>
    </TTGlyph>
    <TTGlyph name="T" xMin="145" yMin="0" xMax="610" yMax="685">
      <contour>
        <pt x="145" y="588" on="1"/>
        <pt x="168" y="685" on="1"/>
        <pt x="610" y="685" on="1"/>
        <pt x="587" y="588" on="1"/>
        <pt x="421" y="588" on="1"/>
        <pt x="285" y="0" on="1"/>
        <pt x="174" y="0" on="1"/>
        <pt x="309" y="588" on="1"/>
      </contour>
    </TTGlyph>
    <TTGlyph name="Tbar" xMin="104" yMin="0" xMax="613" yMax="685">
      <contour>
        <pt x="148" y="588" on="1"/>
        <pt x="171" y="685" on="1"/>
        <pt x="613" y="685" on="1"/>
        <pt x="590" y="588" on="1"/>
        <pt x="424" y="588" on="1"/>
        <pt x="372" y="366" on="1"/>
        <pt x="512" y="366" on="1"/>
        <pt x="487" y="269" on="1"/>
        <pt x="350" y="269" on="1"/>
        <pt x="288" y="0" on="1"/>
        <pt x="177" y="0" on="1"/>
        <pt x="239" y="269" on="1"/>
        <pt x="104" y="269" on="1"/>
        <pt x="127" y="366" on="1"/>
        <pt x="261" y="366" on="1"/>
        <pt x="312" y="588" on="1"/>
      </contour>
    </TTGlyph>
    <TTGlyph name="Tcaron" xMin="145" yMin="0" xMax="610" yMax="927">
      <contour>
        <pt x="590" y="927" on="1"/>
        <pt x="432" y="782" on="1"/>
        <pt x="359" y="782" on="1"/>
        <pt x="264" y="927" on="1"/>
        <pt x="371" y="927" on="1"/>
        <pt x="413" y="859" on="1"/>
        <pt x="483" y="927" on="1"/>
      </contour>
      <contour>
        <pt x="145" y="588" on="1"/>
        <pt x="168" y="685" on="1"/>
        <pt x="610" y="685" on="1"/>
        <pt x="587" y="588" on="1"/>
        <pt x="421" y="588" on="1"/>
        <pt x="285" y="0" on="1"/>
        <pt x="174" y="0" on="1"/>
        <pt x="309" y="588" on="1"/>
      </contour>
    </TTGlyph>
    <TTGlyph name="Tcedilla" xMin="134" yMin="-221" xMax="610" yMax="685">
      <contour>
        <pt x="216" y="-221" on="1"/>
        <pt x="184" y="-221" on="0"/>
        <pt x="145" y="-214" on="1"/>
        <pt x="134" y="-212" on="1"/>
        <pt x="151" y="-144" on="1"/>
        <pt x="184" y="-146" on="0"/>
        <pt x="204" y="-146" on="1"/>
        <pt x="242" y="-146" on="0"/>
        <pt x="249" y="-117" on="1"/>
        <pt x="253" y="-101" on="0"/>
        <pt x="236" y="-91" on="0"/>
        <pt x="217" y="-91" on="1"/>
        <pt x="188" y="-91" on="1"/>
        <pt x="209" y="0" on="1"/>
        <pt x="174" y="0" on="1"/>
        <pt x="309" y="588" on="1"/>
        <pt x="145" y="588" on="1"/>
        <pt x="168" y="685" on="1"/>
        <pt x="610" y="685" on="1"/>
        <pt x="587" y="588" on="1"/>
        <pt x="421" y="588" on="1"/>
        <pt x="285" y="0" on="1"/>
        <pt x="254" y="0" on="1"/>
        <pt x="244" y="-38" on="1"/>
        <pt x="250" y="-38" on="1"/>
        <pt x="339" y="-38" on="0"/>
        <pt x="339" y="-99" on="1"/>
        <pt x="339" y="-110" on="0"/>
        <pt x="336" y="-124" on="1"/>
        <pt x="313" y="-221" on="0"/>
      </contour>
    </TTGlyph>
    <TTGlyph name="Tcommaaccent" xMin="76" yMin="-298" xMax="610" yMax="685">
      <contour>
        <pt x="169" y="-72" on="1"/>
        <pt x="268" y="-72" on="1"/>
        <pt x="166" y="-298" on="1"/>
        <pt x="76" y="-298" on="1"/>
      </contour>
      <contour>
        <pt x="145" y="588" on="1"/>
        <pt x="168" y="685" on="1"/>
        <pt x="610" y="685" on="1"/>
        <pt x="587" y="588" on="1"/>
        <pt x="421" y="588" on="1"/>
        <pt x="285" y="0" on="1"/>
        <pt x="174" y="0" on="1"/>
        <pt x="309" y="588" on="1"/>
      </contour>
    </TTGlyph>
    <TTGlyph name="Thorn" xMin="69" yMin="0" xMax="606" yMax="693">
      <contour>
        <pt x="348" y="218" on="1"/>
        <pt x="458" y="218" on="0"/>
        <pt x="491" y="353" on="1"/>
        <pt x="497" y="377" on="0"/>
        <pt x="497" y="423" on="0"/>
        <pt x="486" y="444" on="1"/>
        <pt x="468" y="479" on="0"/>
        <pt x="409" y="480" on="1"/>
        <pt x="288" y="482" on="1"/>
        <pt x="225" y="218" on="1"/>
      </contour>
      <contour>
        <pt x="434" y="589" on="1"/>
        <pt x="535" y="589" on="0"/>
        <pt x="578" y="522" on="1"/>
        <pt x="606" y="478" on="0"/>
        <pt x="606" y="419" on="1"/>
        <pt x="606" y="388" on="0"/>
        <pt x="598" y="353" on="1"/>
        <pt x="574" y="239" on="0"/>
        <pt x="430" y="108" on="0"/>
        <pt x="326" y="108" on="1"/>
        <pt x="325" y="108" on="0"/>
        <pt x="323" y="108" on="1"/>
        <pt x="199" y="109" on="1"/>
        <pt x="174" y="0" on="1"/>
        <pt x="69" y="0" on="1"/>
        <pt x="232" y="693" on="1"/>
        <pt x="338" y="693" on="1"/>
        <pt x="312" y="589" on="1"/>
      </contour>
    </TTGlyph>
    <TTGlyph name="U" xMin="107" yMin="-11" xMax="688" yMax="685">
      <contour>
        <pt x="227" y="225" on="1"/>
        <pt x="218" y="185" on="0"/>
        <pt x="218" y="151" on="1"/>
        <pt x="218" y="86" on="0"/>
        <pt x="320" y="86" on="1"/>
        <pt x="389" y="86" on="0"/>
        <pt x="452" y="150" on="0"/>
        <pt x="469" y="222" on="1"/>
        <pt x="576" y="685" on="1"/>
        <pt x="688" y="685" on="1"/>
        <pt x="581" y="222" on="1"/>
        <pt x="553" y="100" on="0"/>
        <pt x="426" y="-11" on="0"/>
        <pt x="320" y="-11" on="1"/>
        <pt x="107" y="-11" on="0"/>
        <pt x="107" y="139" on="1"/>
        <pt x="107" y="181" on="0"/>
        <pt x="119" y="241" on="1"/>
        <pt x="222" y="685" on="1"/>
        <pt x="334" y="685" on="1"/>
      </contour>
    </TTGlyph>
    <TTGlyph name="Uacute" xMin="107" yMin="-11" xMax="688" yMax="951">
      <contour>
        <pt x="227" y="225" on="1"/>
        <pt x="218" y="185" on="0"/>
        <pt x="218" y="151" on="1"/>
        <pt x="218" y="86" on="0"/>
        <pt x="320" y="86" on="1"/>
        <pt x="389" y="86" on="0"/>
        <pt x="452" y="150" on="0"/>
        <pt x="469" y="222" on="1"/>
        <pt x="576" y="685" on="1"/>
        <pt x="688" y="685" on="1"/>
        <pt x="581" y="222" on="1"/>
        <pt x="553" y="100" on="0"/>
        <pt x="426" y="-11" on="0"/>
        <pt x="320" y="-11" on="1"/>
        <pt x="107" y="-11" on="0"/>
        <pt x="107" y="139" on="1"/>
        <pt x="107" y="181" on="0"/>
        <pt x="119" y="241" on="1"/>
        <pt x="222" y="685" on="1"/>
        <pt x="334" y="685" on="1"/>
      </contour>
      <contour>
        <pt x="371" y="774" on="1"/>
        <pt x="362" y="859" on="1"/>
        <pt x="610" y="951" on="1"/>
        <pt x="620" y="854" on="1"/>
      </contour>
    </TTGlyph>
    <TTGlyph name="Ubreve" xMin="107" yMin="-11" xMax="688" yMax="925">
      <contour>
        <pt x="434" y="913" on="1"/>
        <pt x="434" y="874" on="0"/>
        <pt x="480" y="874" on="1"/>
        <pt x="504" y="874" on="0"/>
        <pt x="541" y="902" on="0"/>
        <pt x="549" y="925" on="1"/>
        <pt x="647" y="925" on="1"/>
        <pt x="603" y="788" on="0"/>
        <pt x="462" y="788" on="1"/>
        <pt x="392" y="788" on="0"/>
        <pt x="335" y="850" on="0"/>
        <pt x="335" y="895" on="1"/>
        <pt x="335" y="909" on="0"/>
        <pt x="337" y="925" on="1"/>
        <pt x="435" y="925" on="1"/>
        <pt x="434" y="918" on="0"/>
      </contour>
      <contour>
        <pt x="227" y="225" on="1"/>
        <pt x="218" y="185" on="0"/>
        <pt x="218" y="151" on="1"/>
        <pt x="218" y="86" on="0"/>
        <pt x="320" y="86" on="1"/>
        <pt x="389" y="86" on="0"/>
        <pt x="452" y="150" on="0"/>
        <pt x="469" y="222" on="1"/>
        <pt x="576" y="685" on="1"/>
        <pt x="688" y="685" on="1"/>
        <pt x="581" y="222" on="1"/>
        <pt x="553" y="100" on="0"/>
        <pt x="426" y="-11" on="0"/>
        <pt x="320" y="-11" on="1"/>
        <pt x="107" y="-11" on="0"/>
        <pt x="107" y="139" on="1"/>
        <pt x="107" y="181" on="0"/>
        <pt x="119" y="241" on="1"/>
        <pt x="222" y="685" on="1"/>
        <pt x="334" y="685" on="1"/>
      </contour>
    </TTGlyph>
    <TTGlyph name="Ucircumflex" xMin="107" yMin="-11" xMax="688" yMax="931">
      <contour>
        <pt x="227" y="225" on="1"/>
        <pt x="218" y="185" on="0"/>
        <pt x="218" y="151" on="1"/>
        <pt x="218" y="86" on="0"/>
        <pt x="320" y="86" on="1"/>
        <pt x="389" y="86" on="0"/>
        <pt x="452" y="150" on="0"/>
        <pt x="469" y="222" on="1"/>
        <pt x="576" y="685" on="1"/>
        <pt x="688" y="685" on="1"/>
        <pt x="581" y="222" on="1"/>
        <pt x="553" y="100" on="0"/>
        <pt x="426" y="-11" on="0"/>
        <pt x="320" y="-11" on="1"/>
        <pt x="107" y="-11" on="0"/>
        <pt x="107" y="139" on="1"/>
        <pt x="107" y="181" on="0"/>
        <pt x="119" y="241" on="1"/>
        <pt x="222" y="685" on="1"/>
        <pt x="334" y="685" on="1"/>
      </contour>
      <contour>
        <pt x="307" y="785" on="1"/>
        <pt x="477" y="931" on="1"/>
        <pt x="540" y="931" on="1"/>
        <pt x="636" y="785" on="1"/>
        <pt x="537" y="785" on="1"/>
        <pt x="499" y="851" on="1"/>
        <pt x="422" y="785" on="1"/>
      </contour>
    </TTGlyph>
    <TTGlyph name="Udieresis" xMin="107" yMin="-11" xMax="688" yMax="911">
      <contour>
        <pt x="322" y="795" on="1"/>
        <pt x="349" y="911" on="1"/>
        <pt x="447" y="911" on="1"/>
        <pt x="420" y="795" on="1"/>
      </contour>
      <contour>
        <pt x="520" y="795" on="1"/>
        <pt x="546" y="911" on="1"/>
        <pt x="645" y="911" on="1"/>
        <pt x="617" y="795" on="1"/>
      </contour>
      <contour>
        <pt x="227" y="225" on="1"/>
        <pt x="218" y="185" on="0"/>
        <pt x="218" y="151" on="1"/>
        <pt x="218" y="86" on="0"/>
        <pt x="320" y="86" on="1"/>
        <pt x="389" y="86" on="0"/>
        <pt x="452" y="150" on="0"/>
        <pt x="469" y="222" on="1"/>
        <pt x="576" y="685" on="1"/>
        <pt x="688" y="685" on="1"/>
        <pt x="581" y="222" on="1"/>
        <pt x="553" y="100" on="0"/>
        <pt x="426" y="-11" on="0"/>
        <pt x="320" y="-11" on="1"/>
        <pt x="107" y="-11" on="0"/>
        <pt x="107" y="139" on="1"/>
        <pt x="107" y="181" on="0"/>
        <pt x="119" y="241" on="1"/>
        <pt x="222" y="685" on="1"/>
        <pt x="334" y="685" on="1"/>
      </contour>
    </TTGlyph>
    <TTGlyph name="Ugrave" xMin="107" yMin="-11" xMax="688" yMax="941">
      <contour>
        <pt x="390" y="941" on="1"/>
        <pt x="596" y="849" on="1"/>
        <pt x="547" y="765" on="1"/>
        <pt x="337" y="846" on="1"/>
      </contour>
      <contour>
        <pt x="227" y="225" on="1"/>
        <pt x="218" y="185" on="0"/>
        <pt x="218" y="151" on="1"/>
        <pt x="218" y="86" on="0"/>
        <pt x="320" y="86" on="1"/>
        <pt x="389" y="86" on="0"/>
        <pt x="452" y="150" on="0"/>
        <pt x="469" y="222" on="1"/>
        <pt x="576" y="685" on="1"/>
        <pt x="688" y="685" on="1"/>
        <pt x="581" y="222" on="1"/>
        <pt x="553" y="100" on="0"/>
        <pt x="426" y="-11" on="0"/>
        <pt x="320" y="-11" on="1"/>
        <pt x="107" y="-11" on="0"/>
        <pt x="107" y="139" on="1"/>
        <pt x="107" y="181" on="0"/>
        <pt x="119" y="241" on="1"/>
        <pt x="222" y="685" on="1"/>
        <pt x="334" y="685" on="1"/>
      </contour>
    </TTGlyph>
    <TTGlyph name="Uhungarumlaut" xMin="107" yMin="-11" xMax="719" yMax="952">
      <contour>
        <pt x="577" y="746" on="1"/>
        <pt x="503" y="782" on="1"/>
        <pt x="636" y="951" on="1"/>
        <pt x="719" y="912" on="1"/>
      </contour>
      <contour>
        <pt x="379" y="747" on="1"/>
        <pt x="304" y="782" on="1"/>
        <pt x="439" y="952" on="1"/>
        <pt x="521" y="913" on="1"/>
      </contour>
      <contour>
        <pt x="227" y="225" on="1"/>
        <pt x="218" y="185" on="0"/>
        <pt x="218" y="151" on="1"/>
        <pt x="218" y="86" on="0"/>
        <pt x="320" y="86" on="1"/>
        <pt x="389" y="86" on="0"/>
        <pt x="452" y="150" on="0"/>
        <pt x="469" y="222" on="1"/>
        <pt x="576" y="685" on="1"/>
        <pt x="688" y="685" on="1"/>
        <pt x="581" y="222" on="1"/>
        <pt x="553" y="100" on="0"/>
        <pt x="426" y="-11" on="0"/>
        <pt x="320" y="-11" on="1"/>
        <pt x="107" y="-11" on="0"/>
        <pt x="107" y="139" on="1"/>
        <pt x="107" y="181" on="0"/>
        <pt x="119" y="241" on="1"/>
        <pt x="222" y="685" on="1"/>
        <pt x="334" y="685" on="1"/>
      </contour>
    </TTGlyph>
    <TTGlyph name="Umacron" xMin="107" yMin="-11" xMax="688" yMax="901">
      <contour>
        <pt x="227" y="225" on="1"/>
        <pt x="218" y="185" on="0"/>
        <pt x="218" y="151" on="1"/>
        <pt x="218" y="86" on="0"/>
        <pt x="320" y="86" on="1"/>
        <pt x="389" y="86" on="0"/>
        <pt x="452" y="150" on="0"/>
        <pt x="469" y="222" on="1"/>
        <pt x="576" y="685" on="1"/>
        <pt x="688" y="685" on="1"/>
        <pt x="581" y="222" on="1"/>
        <pt x="553" y="100" on="0"/>
        <pt x="426" y="-11" on="0"/>
        <pt x="320" y="-11" on="1"/>
        <pt x="107" y="-11" on="0"/>
        <pt x="107" y="139" on="1"/>
        <pt x="107" y="181" on="0"/>
        <pt x="119" y="241" on="1"/>
        <pt x="222" y="685" on="1"/>
        <pt x="334" y="685" on="1"/>
      </contour>
      <contour>
        <pt x="316" y="814" on="1"/>
        <pt x="336" y="901" on="1"/>
        <pt x="649" y="901" on="1"/>
        <pt x="628" y="814" on="1"/>
      </contour>
    </TTGlyph>
    <TTGlyph name="Uogonek" xMin="108" yMin="-210" xMax="689" yMax="685">
      <contour>
        <pt x="228" y="225" on="1"/>
        <pt x="219" y="185" on="0"/>
        <pt x="219" y="151" on="1"/>
        <pt x="219" y="86" on="0"/>
        <pt x="321" y="86" on="1"/>
        <pt x="390" y="86" on="0"/>
        <pt x="453" y="150" on="0"/>
        <pt x="470" y="222" on="1"/>
        <pt x="577" y="685" on="1"/>
        <pt x="689" y="685" on="1"/>
        <pt x="582" y="222" on="1"/>
        <pt x="558" y="117" on="0"/>
        <pt x="460" y="7" on="0"/>
        <pt x="375" y="-6" on="1"/>
        <pt x="307" y="-64" on="0"/>
        <pt x="307" y="-97" on="1"/>
        <pt x="307" y="-114" on="0"/>
        <pt x="325" y="-114" on="1"/>
        <pt x="367" y="-110" on="1"/>
        <pt x="356" y="-200" on="1"/>
        <pt x="305" y="-210" on="0"/>
        <pt x="231" y="-210" on="0"/>
        <pt x="190" y="-173" on="0"/>
        <pt x="190" y="-139" on="1"/>
        <pt x="190" y="-82" on="0"/>
        <pt x="272" y="-9" on="1"/>
        <pt x="108" y="6" on="0"/>
        <pt x="108" y="139" on="1"/>
        <pt x="108" y="181" on="0"/>
        <pt x="120" y="241" on="1"/>
        <pt x="223" y="685" on="1"/>
        <pt x="335" y="685" on="1"/>
      </contour>
    </TTGlyph>
    <TTGlyph name="Uring" xMin="107" yMin="-11" xMax="688" yMax="948">
      <contour>
        <pt x="557" y="757" on="1"/>
        <pt x="518" y="729" on="0"/>
        <pt x="409" y="729" on="0"/>
        <pt x="382" y="758" on="1"/>
        <pt x="365" y="776" on="0"/>
        <pt x="365" y="820" on="0"/>
        <pt x="370" y="838" on="1"/>
        <pt x="384" y="893" on="0"/>
        <pt x="462" y="948" on="0"/>
        <pt x="569" y="948" on="0"/>
        <pt x="596" y="921" on="1"/>
        <pt x="613" y="903" on="0"/>
        <pt x="613" y="880" on="1"/>
        <pt x="613" y="797" on="0"/>
      </contour>
      <contour>
        <pt x="457" y="800" on="0"/>
        <pt x="480" y="800" on="1"/>
        <pt x="528" y="800" on="0"/>
        <pt x="538" y="838" on="1"/>
        <pt x="539" y="843" on="0"/>
        <pt x="539" y="859" on="0"/>
        <pt x="517" y="877" on="0"/>
        <pt x="498" y="877" on="1"/>
        <pt x="451" y="877" on="0"/>
        <pt x="440" y="838" on="1"/>
        <pt x="437" y="821" on="0"/>
      </contour>
      <contour>
        <pt x="227" y="225" on="1"/>
        <pt x="218" y="185" on="0"/>
        <pt x="218" y="151" on="1"/>
        <pt x="218" y="86" on="0"/>
        <pt x="320" y="86" on="1"/>
        <pt x="389" y="86" on="0"/>
        <pt x="452" y="150" on="0"/>
        <pt x="469" y="222" on="1"/>
        <pt x="576" y="685" on="1"/>
        <pt x="688" y="685" on="1"/>
        <pt x="581" y="222" on="1"/>
        <pt x="553" y="100" on="0"/>
        <pt x="426" y="-11" on="0"/>
        <pt x="320" y="-11" on="1"/>
        <pt x="107" y="-11" on="0"/>
        <pt x="107" y="139" on="1"/>
        <pt x="107" y="181" on="0"/>
        <pt x="119" y="241" on="1"/>
        <pt x="222" y="685" on="1"/>
        <pt x="334" y="685" on="1"/>
      </contour>
    </TTGlyph>
    <TTGlyph name="Utilde" xMin="107" yMin="-11" xMax="688" yMax="933">
      <contour>
        <pt x="543" y="789" on="1"/>
        <pt x="518" y="789" on="0"/>
        <pt x="413" y="837" on="0"/>
        <pt x="400" y="837" on="1"/>
        <pt x="375" y="837" on="0"/>
        <pt x="328" y="805" on="1"/>
        <pt x="312" y="794" on="1"/>
        <pt x="309" y="870" on="1"/>
        <pt x="376" y="933" on="0"/>
        <pt x="420" y="933" on="1"/>
        <pt x="451" y="933" on="0"/>
        <pt x="554" y="885" on="0"/>
        <pt x="564" y="885" on="1"/>
        <pt x="583" y="885" on="0"/>
        <pt x="633" y="916" on="1"/>
        <pt x="649" y="926" on="1"/>
        <pt x="651" y="850" on="1"/>
        <pt x="588" y="789" on="0"/>
      </contour>
      <contour>
        <pt x="227" y="225" on="1"/>
        <pt x="218" y="185" on="0"/>
        <pt x="218" y="151" on="1"/>
        <pt x="218" y="86" on="0"/>
        <pt x="320" y="86" on="1"/>
        <pt x="389" y="86" on="0"/>
        <pt x="452" y="150" on="0"/>
        <pt x="469" y="222" on="1"/>
        <pt x="576" y="685" on="1"/>
        <pt x="688" y="685" on="1"/>
        <pt x="581" y="222" on="1"/>
        <pt x="553" y="100" on="0"/>
        <pt x="426" y="-11" on="0"/>
        <pt x="320" y="-11" on="1"/>
        <pt x="107" y="-11" on="0"/>
        <pt x="107" y="139" on="1"/>
        <pt x="107" y="181" on="0"/>
        <pt x="119" y="241" on="1"/>
        <pt x="222" y="685" on="1"/>
        <pt x="334" y="685" on="1"/>
      </contour>
    </TTGlyph>
    <TTGlyph name="V" xMin="171" yMin="0" xMax="690" yMax="685">
      <contour>
        <pt x="578" y="685" on="1"/>
        <pt x="690" y="685" on="1"/>
        <pt x="373" y="0" on="1"/>
        <pt x="171" y="0" on="1"/>
        <pt x="175" y="685" on="1"/>
        <pt x="286" y="685" on="1"/>
        <pt x="274" y="97" on="1"/>
        <pt x="312" y="97" on="1"/>
      </contour>
    </TTGlyph>
    <TTGlyph name="W" xMin="150" yMin="0" xMax="984" yMax="685">
      <contour>
        <pt x="179" y="685" on="1"/>
        <pt x="291" y="685" on="1"/>
        <pt x="253" y="103" on="1"/>
        <pt x="273" y="103" on="1"/>
        <pt x="518" y="675" on="1"/>
        <pt x="640" y="675" on="1"/>
        <pt x="613" y="103" on="1"/>
        <pt x="632" y="103" on="1"/>
        <pt x="873" y="685" on="1"/>
        <pt x="984" y="685" on="1"/>
        <pt x="690" y="0" on="1"/>
        <pt x="519" y="0" on="1"/>
        <pt x="546" y="527" on="1"/>
        <pt x="326" y="0" on="1"/>
        <pt x="150" y="0" on="1"/>
      </contour>
    </TTGlyph>
    <TTGlyph name="Wacute" xMin="150" yMin="0" xMax="984" yMax="951">
      <contour>
        <pt x="503" y="774" on="1"/>
        <pt x="494" y="859" on="1"/>
        <pt x="742" y="951" on="1"/>
        <pt x="752" y="854" on="1"/>
      </contour>
      <contour>
        <pt x="179" y="685" on="1"/>
        <pt x="291" y="685" on="1"/>
        <pt x="253" y="103" on="1"/>
        <pt x="273" y="103" on="1"/>
        <pt x="518" y="675" on="1"/>
        <pt x="640" y="675" on="1"/>
        <pt x="613" y="103" on="1"/>
        <pt x="632" y="103" on="1"/>
        <pt x="873" y="685" on="1"/>
        <pt x="984" y="685" on="1"/>
        <pt x="690" y="0" on="1"/>
        <pt x="519" y="0" on="1"/>
        <pt x="546" y="527" on="1"/>
        <pt x="326" y="0" on="1"/>
        <pt x="150" y="0" on="1"/>
      </contour>
    </TTGlyph>
    <TTGlyph name="Wcircumflex" xMin="150" yMin="0" xMax="984" yMax="930">
      <contour>
        <pt x="432" y="784" on="1"/>
        <pt x="602" y="930" on="1"/>
        <pt x="665" y="930" on="1"/>
        <pt x="761" y="784" on="1"/>
        <pt x="662" y="784" on="1"/>
        <pt x="624" y="850" on="1"/>
        <pt x="547" y="784" on="1"/>
      </contour>
      <contour>
        <pt x="179" y="685" on="1"/>
        <pt x="291" y="685" on="1"/>
        <pt x="253" y="103" on="1"/>
        <pt x="273" y="103" on="1"/>
        <pt x="518" y="675" on="1"/>
        <pt x="640" y="675" on="1"/>
        <pt x="613" y="103" on="1"/>
        <pt x="632" y="103" on="1"/>
        <pt x="873" y="685" on="1"/>
        <pt x="984" y="685" on="1"/>
        <pt x="690" y="0" on="1"/>
        <pt x="519" y="0" on="1"/>
        <pt x="546" y="527" on="1"/>
        <pt x="326" y="0" on="1"/>
        <pt x="150" y="0" on="1"/>
      </contour>
    </TTGlyph>
    <TTGlyph name="Wdieresis" xMin="150" yMin="0" xMax="984" yMax="916">
      <contour>
        <pt x="457" y="799" on="1"/>
        <pt x="484" y="916" on="1"/>
        <pt x="574" y="916" on="1"/>
        <pt x="546" y="799" on="1"/>
      </contour>
      <contour>
        <pt x="651" y="799" on="1"/>
        <pt x="678" y="916" on="1"/>
        <pt x="768" y="916" on="1"/>
        <pt x="739" y="799" on="1"/>
      </contour>
      <contour>
        <pt x="179" y="685" on="1"/>
        <pt x="291" y="685" on="1"/>
        <pt x="253" y="103" on="1"/>
        <pt x="273" y="103" on="1"/>
        <pt x="518" y="675" on="1"/>
        <pt x="640" y="675" on="1"/>
        <pt x="613" y="103" on="1"/>
        <pt x="632" y="103" on="1"/>
        <pt x="873" y="685" on="1"/>
        <pt x="984" y="685" on="1"/>
        <pt x="690" y="0" on="1"/>
        <pt x="519" y="0" on="1"/>
        <pt x="546" y="527" on="1"/>
        <pt x="326" y="0" on="1"/>
        <pt x="150" y="0" on="1"/>
      </contour>
    </TTGlyph>
    <TTGlyph name="Wgrave" xMin="150" yMin="0" xMax="984" yMax="941">
      <contour>
        <pt x="513" y="941" on="1"/>
        <pt x="719" y="849" on="1"/>
        <pt x="670" y="765" on="1"/>
        <pt x="460" y="846" on="1"/>
      </contour>
      <contour>
        <pt x="179" y="685" on="1"/>
        <pt x="291" y="685" on="1"/>
        <pt x="253" y="103" on="1"/>
        <pt x="273" y="103" on="1"/>
        <pt x="518" y="675" on="1"/>
        <pt x="640" y="675" on="1"/>
        <pt x="613" y="103" on="1"/>
        <pt x="632" y="103" on="1"/>
        <pt x="873" y="685" on="1"/>
        <pt x="984" y="685" on="1"/>
        <pt x="690" y="0" on="1"/>
        <pt x="519" y="0" on="1"/>
        <pt x="546" y="527" on="1"/>
        <pt x="326" y="0" on="1"/>
        <pt x="150" y="0" on="1"/>
      </contour>
    </TTGlyph>
    <TTGlyph name="X" xMin="6" yMin="0" xMax="666" yMax="685">
      <contour>
        <pt x="291" y="685" on="1"/>
        <pt x="357" y="425" on="1"/>
        <pt x="547" y="685" on="1"/>
        <pt x="666" y="685" on="1"/>
        <pt x="404" y="343" on="1"/>
        <pt x="506" y="0" on="1"/>
        <pt x="390" y="0" on="1"/>
        <pt x="319" y="262" on="1"/>
        <pt x="125" y="0" on="1"/>
        <pt x="6" y="0" on="1"/>
        <pt x="272" y="345" on="1"/>
        <pt x="173" y="685" on="1"/>
      </contour>
    </TTGlyph>
    <TTGlyph name="Y" xMin="163" yMin="0" xMax="652" yMax="685">
      <contour>
        <pt x="652" y="685" on="1"/>
        <pt x="367" y="291" on="1"/>
        <pt x="298" y="0" on="1"/>
        <pt x="194" y="0" on="1"/>
        <pt x="263" y="298" on="1"/>
        <pt x="163" y="685" on="1"/>
        <pt x="276" y="685" on="1"/>
        <pt x="338" y="395" on="1"/>
        <pt x="534" y="685" on="1"/>
      </contour>
    </TTGlyph>
    <TTGlyph name="Yacute" xMin="163" yMin="0" xMax="652" yMax="951">
      <contour>
        <pt x="345" y="774" on="1"/>
        <pt x="336" y="859" on="1"/>
        <pt x="584" y="951" on="1"/>
        <pt x="594" y="854" on="1"/>
      </contour>
      <contour>
        <pt x="652" y="685" on="1"/>
        <pt x="367" y="291" on="1"/>
        <pt x="298" y="0" on="1"/>
        <pt x="194" y="0" on="1"/>
        <pt x="263" y="298" on="1"/>
        <pt x="163" y="685" on="1"/>
        <pt x="276" y="685" on="1"/>
        <pt x="338" y="395" on="1"/>
        <pt x="534" y="685" on="1"/>
      </contour>
    </TTGlyph>
    <TTGlyph name="Ycircumflex" xMin="163" yMin="0" xMax="652" yMax="930">
      <contour>
        <pt x="261" y="784" on="1"/>
        <pt x="431" y="930" on="1"/>
        <pt x="494" y="930" on="1"/>
        <pt x="590" y="784" on="1"/>
        <pt x="491" y="784" on="1"/>
        <pt x="453" y="850" on="1"/>
        <pt x="376" y="784" on="1"/>
      </contour>
      <contour>
        <pt x="652" y="685" on="1"/>
        <pt x="367" y="291" on="1"/>
        <pt x="298" y="0" on="1"/>
        <pt x="194" y="0" on="1"/>
        <pt x="263" y="298" on="1"/>
        <pt x="163" y="685" on="1"/>
        <pt x="276" y="685" on="1"/>
        <pt x="338" y="395" on="1"/>
        <pt x="534" y="685" on="1"/>
      </contour>
    </TTGlyph>
    <TTGlyph name="Ydieresis" xMin="163" yMin="0" xMax="652" yMax="916">
      <contour>
        <pt x="283" y="799" on="1"/>
        <pt x="310" y="916" on="1"/>
        <pt x="400" y="916" on="1"/>
        <pt x="372" y="799" on="1"/>
      </contour>
      <contour>
        <pt x="477" y="799" on="1"/>
        <pt x="504" y="916" on="1"/>
        <pt x="594" y="916" on="1"/>
        <pt x="565" y="799" on="1"/>
      </contour>
      <contour>
        <pt x="652" y="685" on="1"/>
        <pt x="367" y="291" on="1"/>
        <pt x="298" y="0" on="1"/>
        <pt x="194" y="0" on="1"/>
        <pt x="263" y="298" on="1"/>
        <pt x="163" y="685" on="1"/>
        <pt x="276" y="685" on="1"/>
        <pt x="338" y="395" on="1"/>
        <pt x="534" y="685" on="1"/>
      </contour>
    </TTGlyph>
    <TTGlyph name="Ygrave" xMin="163" yMin="0" xMax="652" yMax="941">
      <contour>
        <pt x="340" y="941" on="1"/>
        <pt x="546" y="849" on="1"/>
        <pt x="497" y="765" on="1"/>
        <pt x="287" y="846" on="1"/>
      </contour>
      <contour>
        <pt x="652" y="685" on="1"/>
        <pt x="367" y="291" on="1"/>
        <pt x="298" y="0" on="1"/>
        <pt x="194" y="0" on="1"/>
        <pt x="263" y="298" on="1"/>
        <pt x="163" y="685" on="1"/>
        <pt x="276" y="685" on="1"/>
        <pt x="338" y="395" on="1"/>
        <pt x="534" y="685" on="1"/>
      </contour>
    </TTGlyph>
    <TTGlyph name="Z" xMin="37" yMin="0" xMax="613" yMax="685">
      <contour>
        <pt x="173" y="588" on="1"/>
        <pt x="196" y="685" on="1"/>
        <pt x="613" y="685" on="1"/>
        <pt x="585" y="562" on="1"/>
        <pt x="190" y="122" on="1"/>
        <pt x="184" y="97" on="1"/>
        <pt x="477" y="97" on="1"/>
        <pt x="454" y="0" on="1"/>
        <pt x="37" y="0" on="1"/>
        <pt x="64" y="121" on="1"/>
        <pt x="457" y="563" on="1"/>
        <pt x="463" y="588" on="1"/>
      </contour>
    </TTGlyph>
    <TTGlyph name="Zacute" xMin="37" yMin="0" xMax="613" yMax="951">
      <contour>
        <pt x="324" y="774" on="1"/>
        <pt x="315" y="859" on="1"/>
        <pt x="563" y="951" on="1"/>
        <pt x="573" y="854" on="1"/>
      </contour>
      <contour>
        <pt x="173" y="588" on="1"/>
        <pt x="196" y="685" on="1"/>
        <pt x="613" y="685" on="1"/>
        <pt x="585" y="562" on="1"/>
        <pt x="190" y="122" on="1"/>
        <pt x="184" y="97" on="1"/>
        <pt x="477" y="97" on="1"/>
        <pt x="454" y="0" on="1"/>
        <pt x="37" y="0" on="1"/>
        <pt x="64" y="121" on="1"/>
        <pt x="457" y="563" on="1"/>
        <pt x="463" y="588" on="1"/>
      </contour>
    </TTGlyph>
    <TTGlyph name="Zcaron" xMin="37" yMin="0" xMax="619" yMax="926">
      <contour>
        <pt x="619" y="926" on="1"/>
        <pt x="461" y="781" on="1"/>
        <pt x="388" y="781" on="1"/>
        <pt x="293" y="926" on="1"/>
        <pt x="400" y="926" on="1"/>
        <pt x="442" y="858" on="1"/>
        <pt x="512" y="926" on="1"/>
      </contour>
      <contour>
        <pt x="173" y="588" on="1"/>
        <pt x="196" y="685" on="1"/>
        <pt x="613" y="685" on="1"/>
        <pt x="585" y="562" on="1"/>
        <pt x="190" y="122" on="1"/>
        <pt x="184" y="97" on="1"/>
        <pt x="477" y="97" on="1"/>
        <pt x="454" y="0" on="1"/>
        <pt x="37" y="0" on="1"/>
        <pt x="64" y="121" on="1"/>
        <pt x="457" y="563" on="1"/>
        <pt x="463" y="588" on="1"/>
      </contour>
    </TTGlyph>
    <TTGlyph name="Zdotaccent" xMin="37" yMin="0" xMax="613" yMax="914">
      <contour>
        <pt x="378" y="796" on="1"/>
        <pt x="405" y="914" on="1"/>
        <pt x="500" y="914" on="1"/>
        <pt x="472" y="796" on="1"/>
      </contour>
      <contour>
        <pt x="173" y="588" on="1"/>
        <pt x="196" y="685" on="1"/>
        <pt x="613" y="685" on="1"/>
        <pt x="585" y="562" on="1"/>
        <pt x="190" y="122" on="1"/>
        <pt x="184" y="97" on="1"/>
        <pt x="477" y="97" on="1"/>
        <pt x="454" y="0" on="1"/>
        <pt x="37" y="0" on="1"/>
        <pt x="64" y="121" on="1"/>
        <pt x="457" y="563" on="1"/>
        <pt x="463" y="588" on="1"/>
      </contour>
    </TTGlyph>
    <TTGlyph name="a" xMin="84" yMin="-11" xMax="567" yMax="511">
      <contour>
        <pt x="219" y="-11" on="1"/>
        <pt x="150" y="-11" on="0"/>
        <pt x="84" y="78" on="0"/>
        <pt x="84" y="213" on="0"/>
        <pt x="115" y="333" on="0"/>
        <pt x="173" y="442" on="0"/>
        <pt x="274" y="511" on="0"/>
        <pt x="337" y="511" on="1"/>
        <pt x="393" y="511" on="0"/>
        <pt x="525" y="489" on="1"/>
        <pt x="567" y="482" on="1"/>
        <pt x="492" y="158" on="1"/>
        <pt x="465" y="2" on="1"/>
        <pt x="358" y="-2" on="1"/>
        <pt x="369" y="70" on="0"/>
        <pt x="373" y="89" on="1"/>
        <pt x="326" y="27" on="0"/>
        <pt x="266" y="0" on="1"/>
        <pt x="242" y="-11" on="0"/>
      </contour>
      <contour>
        <pt x="443" y="404" on="1"/>
        <pt x="375" y="419" on="0"/>
        <pt x="295" y="419" on="0"/>
        <pt x="260" y="374" on="1"/>
        <pt x="194" y="291" on="0"/>
        <pt x="194" y="156" on="1"/>
        <pt x="194" y="119" on="0"/>
        <pt x="221" y="82" on="0"/>
        <pt x="278" y="82" on="0"/>
        <pt x="346" y="135" on="0"/>
        <pt x="369" y="162" on="1"/>
        <pt x="392" y="189" on="1"/>
      </contour>
    </TTGlyph>
    <TTGlyph name="aacute" xMin="84" yMin="-11" xMax="586" yMax="763">
      <contour>
        <pt x="219" y="-11" on="1"/>
        <pt x="150" y="-11" on="0"/>
        <pt x="84" y="78" on="0"/>
        <pt x="84" y="213" on="0"/>
        <pt x="115" y="333" on="0"/>
        <pt x="173" y="442" on="0"/>
        <pt x="274" y="511" on="0"/>
        <pt x="337" y="511" on="1"/>
        <pt x="393" y="511" on="0"/>
        <pt x="525" y="489" on="1"/>
        <pt x="567" y="482" on="1"/>
        <pt x="492" y="158" on="1"/>
        <pt x="465" y="2" on="1"/>
        <pt x="358" y="-2" on="1"/>
        <pt x="369" y="70" on="0"/>
        <pt x="373" y="89" on="1"/>
        <pt x="326" y="27" on="0"/>
        <pt x="266" y="0" on="1"/>
        <pt x="242" y="-11" on="0"/>
      </contour>
      <contour>
        <pt x="443" y="404" on="1"/>
        <pt x="375" y="419" on="0"/>
        <pt x="295" y="419" on="0"/>
        <pt x="260" y="374" on="1"/>
        <pt x="194" y="291" on="0"/>
        <pt x="194" y="156" on="1"/>
        <pt x="194" y="119" on="0"/>
        <pt x="221" y="82" on="0"/>
        <pt x="278" y="82" on="0"/>
        <pt x="346" y="135" on="0"/>
        <pt x="369" y="162" on="1"/>
        <pt x="392" y="189" on="1"/>
      </contour>
      <contour>
        <pt x="338" y="585" on="1"/>
        <pt x="329" y="671" on="1"/>
        <pt x="577" y="763" on="1"/>
        <pt x="586" y="666" on="1"/>
      </contour>
    </TTGlyph>
    <TTGlyph name="abreve" xMin="84" yMin="-11" xMax="616" yMax="739">
      <contour>
        <pt x="219" y="-11" on="1"/>
        <pt x="150" y="-11" on="0"/>
        <pt x="84" y="78" on="0"/>
        <pt x="84" y="213" on="0"/>
        <pt x="115" y="333" on="0"/>
        <pt x="173" y="442" on="0"/>
        <pt x="274" y="511" on="0"/>
        <pt x="337" y="511" on="1"/>
        <pt x="393" y="511" on="0"/>
        <pt x="525" y="489" on="1"/>
        <pt x="567" y="482" on="1"/>
        <pt x="492" y="158" on="1"/>
        <pt x="465" y="2" on="1"/>
        <pt x="358" y="-2" on="1"/>
        <pt x="369" y="70" on="0"/>
        <pt x="373" y="89" on="1"/>
        <pt x="326" y="27" on="0"/>
        <pt x="266" y="0" on="1"/>
        <pt x="242" y="-11" on="0"/>
      </contour>
      <contour>
        <pt x="443" y="404" on="1"/>
        <pt x="375" y="419" on="0"/>
        <pt x="295" y="419" on="0"/>
        <pt x="260" y="374" on="1"/>
        <pt x="194" y="291" on="0"/>
        <pt x="194" y="156" on="1"/>
        <pt x="194" y="119" on="0"/>
        <pt x="221" y="82" on="0"/>
        <pt x="278" y="82" on="0"/>
        <pt x="346" y="135" on="0"/>
        <pt x="369" y="162" on="1"/>
        <pt x="392" y="189" on="1"/>
      </contour>
      <contour>
        <pt x="391" y="739" on="1"/>
        <pt x="390" y="732" on="0"/>
        <pt x="390" y="709" on="0"/>
        <pt x="410" y="681" on="0"/>
        <pt x="441" y="681" on="1"/>
        <pt x="500" y="681" on="0"/>
        <pt x="519" y="739" on="1"/>
        <pt x="616" y="739" on="1"/>
        <pt x="568" y="591" on="0"/>
        <pt x="414" y="591" on="1"/>
        <pt x="343" y="591" on="0"/>
        <pt x="313" y="630" on="1"/>
        <pt x="291" y="658" on="0"/>
        <pt x="291" y="703" on="1"/>
        <pt x="291" y="720" on="0"/>
        <pt x="294" y="739" on="1"/>
      </contour>
    </TTGlyph>
    <TTGlyph name="acircumflex" xMin="84" yMin="-11" xMax="567" yMax="745">
      <contour>
        <pt x="224" y="580" on="1"/>
        <pt x="387" y="745" on="1"/>
        <pt x="466" y="745" on="1"/>
        <pt x="553" y="580" on="1"/>
        <pt x="445" y="580" on="1"/>
        <pt x="411" y="654" on="1"/>
        <pt x="339" y="580" on="1"/>
      </contour>
      <contour>
        <pt x="219" y="-11" on="1"/>
        <pt x="150" y="-11" on="0"/>
        <pt x="84" y="78" on="0"/>
        <pt x="84" y="213" on="0"/>
        <pt x="115" y="333" on="0"/>
        <pt x="173" y="442" on="0"/>
        <pt x="274" y="511" on="0"/>
        <pt x="337" y="511" on="1"/>
        <pt x="393" y="511" on="0"/>
        <pt x="525" y="489" on="1"/>
        <pt x="567" y="482" on="1"/>
        <pt x="492" y="158" on="1"/>
        <pt x="465" y="2" on="1"/>
        <pt x="358" y="-2" on="1"/>
        <pt x="369" y="70" on="0"/>
        <pt x="373" y="89" on="1"/>
        <pt x="326" y="27" on="0"/>
        <pt x="266" y="0" on="1"/>
        <pt x="242" y="-11" on="0"/>
      </contour>
      <contour>
        <pt x="443" y="404" on="1"/>
        <pt x="375" y="419" on="0"/>
        <pt x="295" y="419" on="0"/>
        <pt x="260" y="374" on="1"/>
        <pt x="194" y="291" on="0"/>
        <pt x="194" y="156" on="1"/>
        <pt x="194" y="119" on="0"/>
        <pt x="221" y="82" on="0"/>
        <pt x="278" y="82" on="0"/>
        <pt x="346" y="135" on="0"/>
        <pt x="369" y="162" on="1"/>
        <pt x="392" y="189" on="1"/>
      </contour>
    </TTGlyph>
    <TTGlyph name="acute" xMin="256" yMin="585" xMax="513" yMax="763">
      <contour>
        <pt x="265" y="585" on="1"/>
        <pt x="256" y="671" on="1"/>
        <pt x="504" y="763" on="1"/>
        <pt x="513" y="666" on="1"/>
      </contour>
    </TTGlyph>
    <TTGlyph name="acute.cap.001" xMin="301" yMin="774" xMax="559" yMax="951">
      <contour>
        <pt x="310" y="774" on="1"/>
        <pt x="301" y="859" on="1"/>
        <pt x="549" y="951" on="1"/>
        <pt x="559" y="854" on="1"/>
      </contour>
    </TTGlyph>
    <TTGlyph name="adieresis" xMin="84" yMin="-11" xMax="575" yMax="726">
      <contour>
        <pt x="252" y="609" on="1"/>
        <pt x="279" y="726" on="1"/>
        <pt x="378" y="726" on="1"/>
        <pt x="350" y="609" on="1"/>
      </contour>
      <contour>
        <pt x="450" y="609" on="1"/>
        <pt x="476" y="726" on="1"/>
        <pt x="575" y="726" on="1"/>
        <pt x="547" y="609" on="1"/>
      </contour>
      <contour>
        <pt x="219" y="-11" on="1"/>
        <pt x="150" y="-11" on="0"/>
        <pt x="84" y="78" on="0"/>
        <pt x="84" y="213" on="0"/>
        <pt x="115" y="333" on="0"/>
        <pt x="173" y="442" on="0"/>
        <pt x="274" y="511" on="0"/>
        <pt x="337" y="511" on="1"/>
        <pt x="393" y="511" on="0"/>
        <pt x="525" y="489" on="1"/>
        <pt x="567" y="482" on="1"/>
        <pt x="492" y="158" on="1"/>
        <pt x="465" y="2" on="1"/>
        <pt x="358" y="-2" on="1"/>
        <pt x="369" y="70" on="0"/>
        <pt x="373" y="89" on="1"/>
        <pt x="326" y="27" on="0"/>
        <pt x="266" y="0" on="1"/>
        <pt x="242" y="-11" on="0"/>
      </contour>
      <contour>
        <pt x="443" y="404" on="1"/>
        <pt x="375" y="419" on="0"/>
        <pt x="295" y="419" on="0"/>
        <pt x="260" y="374" on="1"/>
        <pt x="194" y="291" on="0"/>
        <pt x="194" y="156" on="1"/>
        <pt x="194" y="119" on="0"/>
        <pt x="221" y="82" on="0"/>
        <pt x="278" y="82" on="0"/>
        <pt x="346" y="135" on="0"/>
        <pt x="369" y="162" on="1"/>
        <pt x="392" y="189" on="1"/>
      </contour>
    </TTGlyph>
    <TTGlyph name="ae" xMin="56" yMin="-11" xMax="772" yMax="510">
      <contour>
        <pt x="448" y="157" on="1"/>
        <pt x="448" y="88" on="0"/>
        <pt x="525" y="88" on="1"/>
        <pt x="597" y="88" on="0"/>
        <pt x="670" y="94" on="1"/>
        <pt x="698" y="97" on="1"/>
        <pt x="679" y="12" on="1"/>
        <pt x="584" y="-11" on="0"/>
        <pt x="397" y="-11" on="0"/>
        <pt x="361" y="40" on="1"/>
        <pt x="325" y="24" on="0"/>
        <pt x="203" y="-11" on="0"/>
        <pt x="167" y="-11" on="1"/>
        <pt x="104" y="-11" on="0"/>
        <pt x="76" y="38" on="1"/>
        <pt x="56" y="70" on="0"/>
        <pt x="56" y="128" on="0"/>
        <pt x="61" y="149" on="1"/>
        <pt x="88" y="275" on="0"/>
        <pt x="223" y="297" on="1"/>
        <pt x="295" y="309" on="0"/>
        <pt x="368" y="309" on="1"/>
        <pt x="377" y="337" on="0"/>
        <pt x="377" y="361" on="1"/>
        <pt x="377" y="408" on="0"/>
        <pt x="334" y="408" on="1"/>
        <pt x="263" y="408" on="0"/>
        <pt x="182" y="398" on="1"/>
        <pt x="153" y="395" on="1"/>
        <pt x="170" y="492" on="1"/>
        <pt x="291" y="510" on="0"/>
        <pt x="362" y="510" on="1"/>
        <pt x="449" y="510" on="0"/>
        <pt x="474" y="455" on="1"/>
        <pt x="530" y="510" on="0"/>
        <pt x="621" y="510" on="1"/>
        <pt x="771" y="510" on="0"/>
        <pt x="771" y="366" on="1"/>
        <pt x="771" y="320" on="0"/>
        <pt x="757" y="275" on="1"/>
        <pt x="738" y="203" on="1"/>
        <pt x="453" y="205" on="1"/>
        <pt x="448" y="175" on="0"/>
      </contour>
      <contour>
        <pt x="164" y="131" on="1"/>
        <pt x="164" y="83" on="0"/>
        <pt x="204" y="83" on="1"/>
        <pt x="251" y="83" on="0"/>
        <pt x="338" y="107" on="1"/>
        <pt x="336" y="119" on="0"/>
        <pt x="336" y="172" on="0"/>
        <pt x="349" y="226" on="1"/>
        <pt x="285" y="222" on="0"/>
        <pt x="245" y="217" on="1"/>
        <pt x="180" y="210" on="0"/>
        <pt x="167" y="152" on="1"/>
        <pt x="164" y="141" on="0"/>
      </contour>
      <contour>
        <pt x="659" y="287" on="1"/>
        <pt x="668" y="319" on="0"/>
        <pt x="668" y="353" on="0"/>
        <pt x="667" y="361" on="1"/>
        <pt x="662" y="416" on="0"/>
        <pt x="597" y="416" on="1"/>
        <pt x="546" y="416" on="0"/>
        <pt x="488" y="353" on="0"/>
        <pt x="472" y="289" on="1"/>
      </contour>
    </TTGlyph>
    <TTGlyph name="aeacute" xMin="56" yMin="-11" xMax="772" yMax="763">
      <contour>
        <pt x="448" y="157" on="1"/>
        <pt x="448" y="88" on="0"/>
        <pt x="525" y="88" on="1"/>
        <pt x="597" y="88" on="0"/>
        <pt x="670" y="94" on="1"/>
        <pt x="698" y="97" on="1"/>
        <pt x="679" y="12" on="1"/>
        <pt x="584" y="-11" on="0"/>
        <pt x="397" y="-11" on="0"/>
        <pt x="361" y="40" on="1"/>
        <pt x="325" y="24" on="0"/>
        <pt x="203" y="-11" on="0"/>
        <pt x="167" y="-11" on="1"/>
        <pt x="104" y="-11" on="0"/>
        <pt x="76" y="38" on="1"/>
        <pt x="56" y="70" on="0"/>
        <pt x="56" y="128" on="0"/>
        <pt x="61" y="149" on="1"/>
        <pt x="88" y="275" on="0"/>
        <pt x="223" y="297" on="1"/>
        <pt x="295" y="309" on="0"/>
        <pt x="368" y="309" on="1"/>
        <pt x="377" y="337" on="0"/>
        <pt x="377" y="361" on="1"/>
        <pt x="377" y="408" on="0"/>
        <pt x="334" y="408" on="1"/>
        <pt x="263" y="408" on="0"/>
        <pt x="182" y="398" on="1"/>
        <pt x="153" y="395" on="1"/>
        <pt x="170" y="492" on="1"/>
        <pt x="291" y="510" on="0"/>
        <pt x="362" y="510" on="1"/>
        <pt x="449" y="510" on="0"/>
        <pt x="474" y="455" on="1"/>
        <pt x="530" y="510" on="0"/>
        <pt x="621" y="510" on="1"/>
        <pt x="771" y="510" on="0"/>
        <pt x="771" y="366" on="1"/>
        <pt x="771" y="320" on="0"/>
        <pt x="757" y="275" on="1"/>
        <pt x="738" y="203" on="1"/>
        <pt x="453" y="205" on="1"/>
        <pt x="448" y="175" on="0"/>
      </contour>
      <contour>
        <pt x="164" y="131" on="1"/>
        <pt x="164" y="83" on="0"/>
        <pt x="204" y="83" on="1"/>
        <pt x="251" y="83" on="0"/>
        <pt x="338" y="107" on="1"/>
        <pt x="336" y="119" on="0"/>
        <pt x="336" y="172" on="0"/>
        <pt x="349" y="226" on="1"/>
        <pt x="285" y="222" on="0"/>
        <pt x="245" y="217" on="1"/>
        <pt x="180" y="210" on="0"/>
        <pt x="167" y="152" on="1"/>
        <pt x="164" y="141" on="0"/>
      </contour>
      <contour>
        <pt x="659" y="287" on="1"/>
        <pt x="668" y="319" on="0"/>
        <pt x="668" y="353" on="0"/>
        <pt x="667" y="361" on="1"/>
        <pt x="662" y="416" on="0"/>
        <pt x="597" y="416" on="1"/>
        <pt x="546" y="416" on="0"/>
        <pt x="488" y="353" on="0"/>
        <pt x="472" y="289" on="1"/>
      </contour>
      <contour>
        <pt x="406" y="585" on="1"/>
        <pt x="397" y="671" on="1"/>
        <pt x="645" y="763" on="1"/>
        <pt x="654" y="666" on="1"/>
      </contour>
    </TTGlyph>
    <TTGlyph name="agrave" xMin="84" yMin="-11" xMax="567" yMax="759">
      <contour>
        <pt x="219" y="-11" on="1"/>
        <pt x="150" y="-11" on="0"/>
        <pt x="84" y="78" on="0"/>
        <pt x="84" y="213" on="0"/>
        <pt x="115" y="333" on="0"/>
        <pt x="173" y="442" on="0"/>
        <pt x="274" y="511" on="0"/>
        <pt x="337" y="511" on="1"/>
        <pt x="393" y="511" on="0"/>
        <pt x="525" y="489" on="1"/>
        <pt x="567" y="482" on="1"/>
        <pt x="492" y="158" on="1"/>
        <pt x="465" y="2" on="1"/>
        <pt x="358" y="-2" on="1"/>
        <pt x="369" y="70" on="0"/>
        <pt x="373" y="89" on="1"/>
        <pt x="326" y="27" on="0"/>
        <pt x="266" y="0" on="1"/>
        <pt x="242" y="-11" on="0"/>
      </contour>
      <contour>
        <pt x="443" y="404" on="1"/>
        <pt x="375" y="419" on="0"/>
        <pt x="295" y="419" on="0"/>
        <pt x="260" y="374" on="1"/>
        <pt x="194" y="291" on="0"/>
        <pt x="194" y="156" on="1"/>
        <pt x="194" y="119" on="0"/>
        <pt x="221" y="82" on="0"/>
        <pt x="278" y="82" on="0"/>
        <pt x="346" y="135" on="0"/>
        <pt x="369" y="162" on="1"/>
        <pt x="392" y="189" on="1"/>
      </contour>
      <contour>
        <pt x="347" y="759" on="1"/>
        <pt x="552" y="667" on="1"/>
        <pt x="506" y="588" on="1"/>
        <pt x="295" y="671" on="1"/>
      </contour>
    </TTGlyph>
    <TTGlyph name="amacron" xMin="84" yMin="-11" xMax="595" yMax="720">
      <contour>
        <pt x="219" y="-11" on="1"/>
        <pt x="150" y="-11" on="0"/>
        <pt x="84" y="78" on="0"/>
        <pt x="84" y="213" on="0"/>
        <pt x="115" y="333" on="0"/>
        <pt x="173" y="442" on="0"/>
        <pt x="274" y="511" on="0"/>
        <pt x="337" y="511" on="1"/>
        <pt x="393" y="511" on="0"/>
        <pt x="525" y="489" on="1"/>
        <pt x="567" y="482" on="1"/>
        <pt x="492" y="158" on="1"/>
        <pt x="465" y="2" on="1"/>
        <pt x="358" y="-2" on="1"/>
        <pt x="369" y="70" on="0"/>
        <pt x="373" y="89" on="1"/>
        <pt x="326" y="27" on="0"/>
        <pt x="266" y="0" on="1"/>
        <pt x="242" y="-11" on="0"/>
      </contour>
      <contour>
        <pt x="443" y="404" on="1"/>
        <pt x="375" y="419" on="0"/>
        <pt x="295" y="419" on="0"/>
        <pt x="260" y="374" on="1"/>
        <pt x="194" y="291" on="0"/>
        <pt x="194" y="156" on="1"/>
        <pt x="194" y="119" on="0"/>
        <pt x="221" y="82" on="0"/>
        <pt x="278" y="82" on="0"/>
        <pt x="346" y="135" on="0"/>
        <pt x="369" y="162" on="1"/>
        <pt x="392" y="189" on="1"/>
      </contour>
      <contour>
        <pt x="280" y="632" on="1"/>
        <pt x="300" y="720" on="1"/>
        <pt x="595" y="720" on="1"/>
        <pt x="574" y="632" on="1"/>
      </contour>
    </TTGlyph>
    <TTGlyph name="ampersand" xMin="68" yMin="-11" xMax="658" yMax="696">
      <contour>
        <pt x="435" y="696" on="1"/>
        <pt x="597" y="696" on="0"/>
        <pt x="597" y="558" on="1"/>
        <pt x="597" y="485" on="0"/>
        <pt x="514" y="393" on="0"/>
        <pt x="412" y="353" on="1"/>
        <pt x="503" y="229" on="1"/>
        <pt x="517" y="249" on="0"/>
        <pt x="550" y="327" on="0"/>
        <pt x="557" y="356" on="1"/>
        <pt x="658" y="356" on="1"/>
        <pt x="646" y="310" on="0"/>
        <pt x="586" y="192" on="0"/>
        <pt x="560" y="158" on="1"/>
        <pt x="646" y="54" on="1"/>
        <pt x="571" y="-11" on="1"/>
        <pt x="492" y="90" on="1"/>
        <pt x="396" y="-11" on="0"/>
        <pt x="267" y="-11" on="1"/>
        <pt x="158" y="-11" on="0"/>
        <pt x="68" y="78" on="0"/>
        <pt x="68" y="249" on="0"/>
        <pt x="165" y="365" on="0"/>
        <pt x="268" y="405" on="1"/>
        <pt x="240" y="456" on="0"/>
        <pt x="240" y="508" on="1"/>
        <pt x="240" y="601" on="0"/>
        <pt x="347" y="696" on="0"/>
      </contour>
      <contour>
        <pt x="287" y="82" on="1"/>
        <pt x="327" y="82" on="0"/>
        <pt x="412" y="125" on="0"/>
        <pt x="438" y="157" on="1"/>
        <pt x="308" y="340" on="1"/>
        <pt x="237" y="310" on="0"/>
        <pt x="181" y="227" on="0"/>
        <pt x="181" y="169" on="1"/>
        <pt x="181" y="82" on="0"/>
      </contour>
      <contour>
        <pt x="392" y="605" on="0"/>
        <pt x="349" y="550" on="0"/>
        <pt x="349" y="449" on="0"/>
        <pt x="373" y="414" on="1"/>
        <pt x="440" y="445" on="0"/>
        <pt x="488" y="504" on="0"/>
        <pt x="488" y="549" on="1"/>
        <pt x="488" y="605" on="0"/>
        <pt x="433" y="605" on="1"/>
      </contour>
    </TTGlyph>
    <TTGlyph name="aogonek" xMin="84" yMin="-210" xMax="567" yMax="511">
      <contour>
        <pt x="376" y="-210" on="0"/>
        <pt x="302" y="-210" on="0"/>
        <pt x="261" y="-173" on="0"/>
        <pt x="261" y="-103" on="0"/>
        <pt x="321" y="-25" on="0"/>
        <pt x="358" y="4" on="1"/>
        <pt x="358" y="14" on="0"/>
        <pt x="373" y="89" on="1"/>
        <pt x="326" y="27" on="0"/>
        <pt x="266" y="0" on="1"/>
        <pt x="242" y="-11" on="0"/>
        <pt x="219" y="-11" on="1"/>
        <pt x="150" y="-11" on="0"/>
        <pt x="84" y="78" on="0"/>
        <pt x="84" y="213" on="0"/>
        <pt x="115" y="333" on="0"/>
        <pt x="173" y="442" on="0"/>
        <pt x="274" y="511" on="0"/>
        <pt x="337" y="511" on="1"/>
        <pt x="393" y="511" on="0"/>
        <pt x="525" y="489" on="1"/>
        <pt x="567" y="482" on="1"/>
        <pt x="492" y="158" on="1"/>
        <pt x="465" y="2" on="1"/>
        <pt x="456" y="1" on="1"/>
        <pt x="432" y="-15" on="0"/>
        <pt x="378" y="-78" on="0"/>
        <pt x="378" y="-114" on="0"/>
        <pt x="396" y="-114" on="1"/>
        <pt x="438" y="-110" on="1"/>
        <pt x="427" y="-200" on="1"/>
      </contour>
      <contour>
        <pt x="443" y="404" on="1"/>
        <pt x="375" y="419" on="0"/>
        <pt x="295" y="419" on="0"/>
        <pt x="260" y="374" on="1"/>
        <pt x="194" y="291" on="0"/>
        <pt x="194" y="156" on="1"/>
        <pt x="194" y="119" on="0"/>
        <pt x="221" y="82" on="0"/>
        <pt x="278" y="82" on="0"/>
        <pt x="346" y="135" on="0"/>
        <pt x="369" y="162" on="1"/>
        <pt x="392" y="189" on="1"/>
      </contour>
    </TTGlyph>
    <TTGlyph name="approxequal" xMin="117" yMin="62" xMax="553" yMax="416">
      <contour>
        <pt x="465" y="267" on="0"/>
        <pt x="410" y="267" on="0"/>
        <pt x="253" y="318" on="0"/>
        <pt x="215" y="318" on="0"/>
        <pt x="161" y="297" on="0"/>
        <pt x="144" y="286" on="1"/>
        <pt x="127" y="276" on="1"/>
        <pt x="117" y="364" on="1"/>
        <pt x="181" y="416" on="0"/>
        <pt x="238" y="416" on="1"/>
        <pt x="267" y="416" on="0"/>
        <pt x="418" y="365" on="0"/>
        <pt x="438" y="365" on="1"/>
        <pt x="474" y="365" on="0"/>
        <pt x="527" y="396" on="1"/>
        <pt x="544" y="406" on="1"/>
        <pt x="553" y="319" on="1"/>
        <pt x="535" y="301" on="0"/>
      </contour>
      <contour>
        <pt x="465" y="62" on="0"/>
        <pt x="410" y="62" on="0"/>
        <pt x="253" y="113" on="0"/>
        <pt x="215" y="113" on="0"/>
        <pt x="161" y="92" on="0"/>
        <pt x="144" y="82" on="1"/>
        <pt x="127" y="71" on="1"/>
        <pt x="117" y="159" on="1"/>
        <pt x="181" y="211" on="0"/>
        <pt x="238" y="211" on="1"/>
        <pt x="267" y="211" on="0"/>
        <pt x="418" y="160" on="0"/>
        <pt x="458" y="160" on="0"/>
        <pt x="510" y="180" on="0"/>
        <pt x="527" y="190" on="1"/>
        <pt x="544" y="201" on="1"/>
        <pt x="553" y="114" on="1"/>
        <pt x="535" y="96" on="0"/>
      </contour>
    </TTGlyph>
    <TTGlyph name="aring" xMin="84" yMin="-11" xMax="567" yMax="762">
      <contour>
        <pt x="219" y="-11" on="1"/>
        <pt x="150" y="-11" on="0"/>
        <pt x="84" y="78" on="0"/>
        <pt x="84" y="213" on="0"/>
        <pt x="115" y="333" on="0"/>
        <pt x="173" y="442" on="0"/>
        <pt x="274" y="511" on="0"/>
        <pt x="337" y="511" on="1"/>
        <pt x="393" y="511" on="0"/>
        <pt x="525" y="489" on="1"/>
        <pt x="567" y="482" on="1"/>
        <pt x="492" y="158" on="1"/>
        <pt x="465" y="2" on="1"/>
        <pt x="358" y="-2" on="1"/>
        <pt x="369" y="70" on="0"/>
        <pt x="373" y="89" on="1"/>
        <pt x="326" y="27" on="0"/>
        <pt x="266" y="0" on="1"/>
        <pt x="242" y="-11" on="0"/>
      </contour>
      <contour>
        <pt x="443" y="404" on="1"/>
        <pt x="375" y="419" on="0"/>
        <pt x="295" y="419" on="0"/>
        <pt x="260" y="374" on="1"/>
        <pt x="194" y="291" on="0"/>
        <pt x="194" y="156" on="1"/>
        <pt x="194" y="119" on="0"/>
        <pt x="221" y="82" on="0"/>
        <pt x="278" y="82" on="0"/>
        <pt x="346" y="135" on="0"/>
        <pt x="369" y="162" on="1"/>
        <pt x="392" y="189" on="1"/>
      </contour>
      <contour>
        <pt x="344" y="703" on="0"/>
        <pt x="411" y="762" on="0"/>
        <pt x="500" y="762" on="0"/>
        <pt x="518" y="735" on="1"/>
        <pt x="530" y="717" on="0"/>
        <pt x="530" y="679" on="0"/>
        <pt x="527" y="664" on="1"/>
        <pt x="519" y="614" on="0"/>
        <pt x="450" y="555" on="0"/>
        <pt x="358" y="555" on="0"/>
        <pt x="340" y="584" on="1"/>
        <pt x="329" y="601" on="0"/>
        <pt x="329" y="641" on="0"/>
        <pt x="334" y="659" on="1"/>
      </contour>
      <contour>
        <pt x="424" y="694" on="0"/>
        <pt x="399" y="674" on="0"/>
        <pt x="393" y="654" on="0"/>
        <pt x="393" y="640" on="0"/>
        <pt x="406" y="621" on="0"/>
        <pt x="437" y="621" on="0"/>
        <pt x="450" y="632" on="1"/>
        <pt x="468" y="647" on="0"/>
        <pt x="468" y="662" on="1"/>
        <pt x="468" y="694" on="0"/>
        <pt x="440" y="694" on="1"/>
      </contour>
    </TTGlyph>
    <TTGlyph name="aringacute" xMin="84" yMin="-11" xMax="605" yMax="949">
      <contour>
        <pt x="356" y="762" on="1"/>
        <pt x="347" y="857" on="1"/>
        <pt x="595" y="949" on="1"/>
        <pt x="605" y="844" on="1"/>
      </contour>
      <contour>
        <pt x="219" y="-11" on="1"/>
        <pt x="150" y="-11" on="0"/>
        <pt x="84" y="78" on="0"/>
        <pt x="84" y="213" on="0"/>
        <pt x="115" y="333" on="0"/>
        <pt x="173" y="442" on="0"/>
        <pt x="274" y="511" on="0"/>
        <pt x="337" y="511" on="1"/>
        <pt x="393" y="511" on="0"/>
        <pt x="525" y="489" on="1"/>
        <pt x="567" y="482" on="1"/>
        <pt x="492" y="158" on="1"/>
        <pt x="465" y="2" on="1"/>
        <pt x="358" y="-2" on="1"/>
        <pt x="369" y="70" on="0"/>
        <pt x="373" y="89" on="1"/>
        <pt x="326" y="27" on="0"/>
        <pt x="266" y="0" on="1"/>
        <pt x="242" y="-11" on="0"/>
      </contour>
      <contour>
        <pt x="443" y="404" on="1"/>
        <pt x="375" y="419" on="0"/>
        <pt x="295" y="419" on="0"/>
        <pt x="260" y="374" on="1"/>
        <pt x="194" y="291" on="0"/>
        <pt x="194" y="156" on="1"/>
        <pt x="194" y="119" on="0"/>
        <pt x="221" y="82" on="0"/>
        <pt x="278" y="82" on="0"/>
        <pt x="346" y="135" on="0"/>
        <pt x="369" y="162" on="1"/>
        <pt x="392" y="189" on="1"/>
      </contour>
      <contour>
        <pt x="329" y="683" on="0"/>
        <pt x="396" y="742" on="0"/>
        <pt x="485" y="742" on="0"/>
        <pt x="503" y="715" on="1"/>
        <pt x="515" y="697" on="0"/>
        <pt x="515" y="659" on="0"/>
        <pt x="512" y="644" on="1"/>
        <pt x="504" y="594" on="0"/>
        <pt x="435" y="535" on="0"/>
        <pt x="343" y="535" on="0"/>
        <pt x="325" y="564" on="1"/>
        <pt x="314" y="581" on="0"/>
        <pt x="314" y="621" on="0"/>
        <pt x="319" y="639" on="1"/>
      </contour>
      <contour>
        <pt x="379" y="639" on="1"/>
        <pt x="378" y="634" on="0"/>
        <pt x="378" y="620" on="0"/>
        <pt x="391" y="601" on="0"/>
        <pt x="422" y="601" on="0"/>
        <pt x="434" y="612" on="1"/>
        <pt x="453" y="627" on="0"/>
        <pt x="453" y="642" on="1"/>
        <pt x="453" y="674" on="0"/>
        <pt x="425" y="674" on="1"/>
        <pt x="390" y="674" on="0"/>
      </contour>
    </TTGlyph>
    <TTGlyph name="asciicircum" xMin="82" yMin="316" xMax="558" yMax="660">
      <contour>
        <pt x="444" y="316" on="1"/>
        <pt x="320" y="554" on="1"/>
        <pt x="196" y="316" on="1"/>
        <pt x="82" y="316" on="1"/>
        <pt x="272" y="660" on="1"/>
        <pt x="366" y="660" on="1"/>
        <pt x="558" y="316" on="1"/>
      </contour>
    </TTGlyph>
    <TTGlyph name="asciitilde" xMin="123" yMin="181" xMax="555" yMax="330">
      <contour>
        <pt x="468" y="181" on="0"/>
        <pt x="413" y="181" on="0"/>
        <pt x="258" y="232" on="0"/>
        <pt x="220" y="232" on="0"/>
        <pt x="167" y="211" on="0"/>
        <pt x="150" y="200" on="1"/>
        <pt x="133" y="190" on="1"/>
        <pt x="123" y="278" on="1"/>
        <pt x="186" y="330" on="0"/>
        <pt x="243" y="330" on="1"/>
        <pt x="272" y="330" on="0"/>
        <pt x="422" y="279" on="0"/>
        <pt x="442" y="279" on="1"/>
        <pt x="476" y="279" on="0"/>
        <pt x="529" y="310" on="1"/>
        <pt x="546" y="320" on="1"/>
        <pt x="555" y="233" on="1"/>
        <pt x="537" y="215" on="0"/>
      </contour>
    </TTGlyph>
    <TTGlyph name="asterisk" xMin="167" yMin="363" xMax="503" yMax="713">
      <contour>
        <pt x="503" y="504" on="1"/>
        <pt x="376" y="504" on="1"/>
        <pt x="415" y="382" on="1"/>
        <pt x="353" y="363" on="1"/>
        <pt x="312" y="486" on="1"/>
        <pt x="207" y="407" on="1"/>
        <pt x="167" y="458" on="1"/>
        <pt x="273" y="537" on="1"/>
        <pt x="170" y="611" on="1"/>
        <pt x="209" y="665" on="1"/>
        <pt x="312" y="590" on="1"/>
        <pt x="352" y="713" on="1"/>
        <pt x="416" y="692" on="1"/>
        <pt x="377" y="568" on="1"/>
        <pt x="503" y="568" on="1"/>
      </contour>
    </TTGlyph>
    <TTGlyph name="at" xMin="81" yMin="-204" xMax="1004" yMax="724">
      <contour>
        <pt x="637" y="724" on="1"/>
        <pt x="920" y="724" on="0"/>
        <pt x="985" y="546" on="1"/>
        <pt x="1004" y="495" on="0"/>
        <pt x="1004" y="438" on="1"/>
        <pt x="1004" y="374" on="0"/>
        <pt x="984" y="296" on="1"/>
        <pt x="941" y="124" on="0"/>
        <pt x="829" y="-10" on="0"/>
        <pt x="652" y="-10" on="0"/>
        <pt x="630" y="39" on="1"/>
        <pt x="595" y="21" on="0"/>
        <pt x="482" y="-11" on="0"/>
        <pt x="392" y="-11" on="0"/>
        <pt x="329" y="35" on="0"/>
        <pt x="319" y="71" on="1"/>
        <pt x="307" y="115" on="0"/>
        <pt x="307" y="198" on="0"/>
        <pt x="315" y="231" on="1"/>
        <pt x="369" y="511" on="0"/>
        <pt x="568" y="511" on="1"/>
        <pt x="621" y="511" on="0"/>
        <pt x="791" y="482" on="1"/>
        <pt x="778" y="430" on="0"/>
        <pt x="715" y="147" on="0"/>
        <pt x="715" y="108" on="0"/>
        <pt x="737" y="93" on="0"/>
        <pt x="761" y="93" on="1"/>
        <pt x="799" y="93" on="0"/>
        <pt x="856" y="185" on="0"/>
        <pt x="885" y="307" on="1"/>
        <pt x="903" y="383" on="0"/>
        <pt x="903" y="464" on="0"/>
        <pt x="883" y="541" on="0"/>
        <pt x="852" y="570" on="1"/>
        <pt x="786" y="632" on="0"/>
        <pt x="444" y="632" on="0"/>
        <pt x="243" y="453" on="0"/>
        <pt x="199" y="268" on="1"/>
        <pt x="183" y="202" on="0"/>
        <pt x="183" y="95" on="0"/>
        <pt x="214" y="0" on="0"/>
        <pt x="248" y="-36" on="1"/>
        <pt x="320" y="-112" on="0"/>
        <pt x="480" y="-112" on="1"/>
        <pt x="617" y="-103" on="1"/>
        <pt x="597" y="-195" on="1"/>
        <pt x="500" y="-204" on="0"/>
        <pt x="375" y="-204" on="0"/>
        <pt x="246" y="-167" on="0"/>
        <pt x="203" y="-134" on="1"/>
        <pt x="81" y="-39" on="0"/>
        <pt x="81" y="139" on="1"/>
        <pt x="81" y="202" on="0"/>
        <pt x="97" y="268" on="1"/>
        <pt x="155" y="512" on="0"/>
        <pt x="414" y="724" on="0"/>
      </contour>
      <contour>
        <pt x="415" y="166" on="1"/>
        <pt x="415" y="83" on="0"/>
        <pt x="468" y="82" on="1"/>
        <pt x="528" y="82" on="0"/>
        <pt x="607" y="126" on="1"/>
        <pt x="611" y="172" on="0"/>
        <pt x="666" y="404" on="1"/>
        <pt x="606" y="419" on="0"/>
        <pt x="566" y="419" on="1"/>
        <pt x="509" y="419" on="0"/>
        <pt x="443" y="319" on="0"/>
        <pt x="424" y="230" on="1"/>
        <pt x="415" y="195" on="0"/>
      </contour>
    </TTGlyph>
    <TTGlyph name="at.cap" xMin="80" yMin="-119" xMax="1003" yMax="809">
      <contour>
        <pt x="636" y="809" on="1"/>
        <pt x="919" y="809" on="0"/>
        <pt x="984" y="631" on="1"/>
        <pt x="1003" y="580" on="0"/>
        <pt x="1003" y="523" on="1"/>
        <pt x="1003" y="459" on="0"/>
        <pt x="983" y="381" on="1"/>
        <pt x="940" y="209" on="0"/>
        <pt x="828" y="75" on="0"/>
        <pt x="651" y="75" on="0"/>
        <pt x="629" y="124" on="1"/>
        <pt x="594" y="106" on="0"/>
        <pt x="481" y="74" on="0"/>
        <pt x="391" y="74" on="0"/>
        <pt x="328" y="120" on="0"/>
        <pt x="318" y="156" on="1"/>
        <pt x="306" y="200" on="0"/>
        <pt x="306" y="284" on="0"/>
        <pt x="314" y="316" on="1"/>
        <pt x="368" y="596" on="0"/>
        <pt x="567" y="596" on="1"/>
        <pt x="620" y="596" on="0"/>
        <pt x="790" y="567" on="1"/>
        <pt x="777" y="515" on="0"/>
        <pt x="714" y="232" on="0"/>
        <pt x="714" y="193" on="0"/>
        <pt x="736" y="178" on="0"/>
        <pt x="760" y="178" on="1"/>
        <pt x="798" y="178" on="0"/>
        <pt x="855" y="270" on="0"/>
        <pt x="884" y="392" on="1"/>
        <pt x="902" y="468" on="0"/>
        <pt x="902" y="549" on="0"/>
        <pt x="882" y="626" on="0"/>
        <pt x="852" y="654" on="1"/>
        <pt x="785" y="717" on="0"/>
        <pt x="443" y="717" on="0"/>
        <pt x="242" y="538" on="0"/>
        <pt x="198" y="353" on="1"/>
        <pt x="182" y="287" on="0"/>
        <pt x="182" y="180" on="0"/>
        <pt x="213" y="85" on="0"/>
        <pt x="246" y="50" on="1"/>
        <pt x="319" y="-27" on="0"/>
        <pt x="479" y="-27" on="1"/>
        <pt x="616" y="-18" on="1"/>
        <pt x="596" y="-110" on="1"/>
        <pt x="499" y="-119" on="0"/>
        <pt x="374" y="-119" on="0"/>
        <pt x="245" y="-82" on="0"/>
        <pt x="202" y="-48" on="1"/>
        <pt x="80" y="46" on="0"/>
        <pt x="80" y="224" on="1"/>
        <pt x="80" y="287" on="0"/>
        <pt x="96" y="353" on="1"/>
        <pt x="154" y="597" on="0"/>
        <pt x="413" y="809" on="0"/>
      </contour>
      <contour>
        <pt x="414" y="251" on="1"/>
        <pt x="414" y="168" on="0"/>
        <pt x="467" y="167" on="1"/>
        <pt x="527" y="167" on="0"/>
        <pt x="606" y="211" on="1"/>
        <pt x="610" y="257" on="0"/>
        <pt x="665" y="489" on="1"/>
        <pt x="605" y="504" on="0"/>
        <pt x="565" y="504" on="1"/>
        <pt x="508" y="504" on="0"/>
        <pt x="442" y="404" on="0"/>
        <pt x="423" y="315" on="1"/>
        <pt x="414" y="280" on="0"/>
      </contour>
    </TTGlyph>
    <TTGlyph name="atilde" xMin="84" yMin="-11" xMax="596" yMax="741">
      <contour>
        <pt x="219" y="-11" on="1"/>
        <pt x="150" y="-11" on="0"/>
        <pt x="84" y="78" on="0"/>
        <pt x="84" y="213" on="0"/>
        <pt x="115" y="333" on="0"/>
        <pt x="173" y="442" on="0"/>
        <pt x="274" y="511" on="0"/>
        <pt x="337" y="511" on="1"/>
        <pt x="393" y="511" on="0"/>
        <pt x="525" y="489" on="1"/>
        <pt x="567" y="482" on="1"/>
        <pt x="492" y="158" on="1"/>
        <pt x="465" y="2" on="1"/>
        <pt x="358" y="-2" on="1"/>
        <pt x="369" y="70" on="0"/>
        <pt x="373" y="89" on="1"/>
        <pt x="326" y="27" on="0"/>
        <pt x="266" y="0" on="1"/>
        <pt x="242" y="-11" on="0"/>
      </contour>
      <contour>
        <pt x="443" y="404" on="1"/>
        <pt x="375" y="419" on="0"/>
        <pt x="295" y="419" on="0"/>
        <pt x="260" y="374" on="1"/>
        <pt x="194" y="291" on="0"/>
        <pt x="194" y="156" on="1"/>
        <pt x="194" y="119" on="0"/>
        <pt x="221" y="82" on="0"/>
        <pt x="278" y="82" on="0"/>
        <pt x="346" y="135" on="0"/>
        <pt x="369" y="162" on="1"/>
        <pt x="392" y="189" on="1"/>
      </contour>
      <contour>
        <pt x="490" y="600" on="1"/>
        <pt x="466" y="600" on="0"/>
        <pt x="374" y="646" on="0"/>
        <pt x="362" y="646" on="1"/>
        <pt x="338" y="646" on="0"/>
        <pt x="292" y="616" on="1"/>
        <pt x="277" y="605" on="1"/>
        <pt x="275" y="681" on="1"/>
        <pt x="339" y="741" on="0"/>
        <pt x="383" y="741" on="1"/>
        <pt x="411" y="741" on="0"/>
        <pt x="502" y="696" on="0"/>
        <pt x="512" y="696" on="1"/>
        <pt x="530" y="696" on="0"/>
        <pt x="576" y="726" on="1"/>
        <pt x="592" y="736" on="1"/>
        <pt x="596" y="659" on="1"/>
        <pt x="534" y="600" on="0"/>
      </contour>
    </TTGlyph>
    <TTGlyph name="b" xMin="63" yMin="-10" xMax="546" yMax="708">
      <contour>
        <pt x="403" y="511" on="1"/>
        <pt x="546" y="511" on="0"/>
        <pt x="546" y="353" on="1"/>
        <pt x="546" y="261" on="0"/>
        <pt x="490" y="99" on="0"/>
        <pt x="370" y="-10" on="0"/>
        <pt x="288" y="-10" on="1"/>
        <pt x="198" y="-10" on="0"/>
        <pt x="98" y="12" on="1"/>
        <pt x="63" y="19" on="1"/>
        <pt x="221" y="708" on="1"/>
        <pt x="330" y="708" on="1"/>
        <pt x="270" y="449" on="1"/>
        <pt x="293" y="472" on="0"/>
        <pt x="373" y="511" on="0"/>
      </contour>
      <contour>
        <pt x="188" y="93" on="1"/>
        <pt x="243" y="82" on="0"/>
        <pt x="326" y="82" on="0"/>
        <pt x="387" y="141" on="0"/>
        <pt x="403" y="184" on="1"/>
        <pt x="435" y="272" on="0"/>
        <pt x="435" y="342" on="1"/>
        <pt x="435" y="377" on="0"/>
        <pt x="409" y="418" on="0"/>
        <pt x="348" y="418" on="0"/>
        <pt x="286" y="386" on="0"/>
        <pt x="267" y="370" on="1"/>
        <pt x="248" y="353" on="1"/>
      </contour>
    </TTGlyph>
    <TTGlyph name="backslash" xMin="187" yMin="0" xMax="432" yMax="702">
      <contour>
        <pt x="432" y="4" on="1"/>
        <pt x="319" y="0" on="1"/>
        <pt x="187" y="698" on="1"/>
        <pt x="301" y="702" on="1"/>
      </contour>
    </TTGlyph>
    <TTGlyph name="bar" xMin="165" yMin="-215" xMax="273" yMax="708">
      <contour>
        <pt x="165" y="-215" on="1"/>
        <pt x="165" y="708" on="1"/>
        <pt x="273" y="708" on="1"/>
        <pt x="273" y="-215" on="1"/>
      </contour>
    </TTGlyph>
    <TTGlyph name="braceleft" xMin="72" yMin="-130" xMax="459" yMax="756">
      <contour>
        <pt x="188" y="312" on="1"/>
        <pt x="250" y="281" on="0"/>
        <pt x="250" y="228" on="1"/>
        <pt x="250" y="202" on="0"/>
        <pt x="204" y="43" on="0"/>
        <pt x="204" y="21" on="1"/>
        <pt x="204" y="-36" on="0"/>
        <pt x="275" y="-36" on="1"/>
        <pt x="249" y="-130" on="1"/>
        <pt x="177" y="-129" on="0"/>
        <pt x="97" y="-67" on="0"/>
        <pt x="97" y="-10" on="1"/>
        <pt x="97" y="15" on="0"/>
        <pt x="141" y="177" on="0"/>
        <pt x="141" y="196" on="1"/>
        <pt x="141" y="247" on="0"/>
        <pt x="72" y="279" on="1"/>
        <pt x="91" y="359" on="1"/>
        <pt x="154" y="375" on="0"/>
        <pt x="196" y="416" on="0"/>
        <pt x="206" y="458" on="1"/>
        <pt x="210" y="473" on="0"/>
        <pt x="233" y="597" on="0"/>
        <pt x="234" y="601" on="1"/>
        <pt x="259" y="683" on="0"/>
        <pt x="362" y="752" on="0"/>
        <pt x="459" y="756" on="1"/>
        <pt x="441" y="662" on="1"/>
        <pt x="390" y="658" on="0"/>
        <pt x="341" y="613" on="0"/>
        <pt x="331" y="571" on="1"/>
        <pt x="308" y="448" on="1"/>
        <pt x="294" y="389" on="0"/>
        <pt x="241" y="330" on="0"/>
      </contour>
    </TTGlyph>
    <TTGlyph name="braceleft.cap" xMin="79" yMin="-100" xMax="466" yMax="786">
      <contour>
        <pt x="195" y="342" on="1"/>
        <pt x="257" y="311" on="0"/>
        <pt x="257" y="258" on="1"/>
        <pt x="257" y="232" on="0"/>
        <pt x="211" y="73" on="0"/>
        <pt x="211" y="51" on="1"/>
        <pt x="211" y="-6" on="0"/>
        <pt x="282" y="-6" on="1"/>
        <pt x="256" y="-100" on="1"/>
        <pt x="184" y="-99" on="0"/>
        <pt x="104" y="-37" on="0"/>
        <pt x="104" y="20" on="1"/>
        <pt x="104" y="45" on="0"/>
        <pt x="148" y="207" on="0"/>
        <pt x="148" y="226" on="1"/>
        <pt x="148" y="277" on="0"/>
        <pt x="79" y="309" on="1"/>
        <pt x="98" y="389" on="1"/>
        <pt x="161" y="405" on="0"/>
        <pt x="203" y="446" on="0"/>
        <pt x="213" y="488" on="1"/>
        <pt x="217" y="503" on="0"/>
        <pt x="240" y="627" on="0"/>
        <pt x="241" y="631" on="1"/>
        <pt x="266" y="713" on="0"/>
        <pt x="369" y="782" on="0"/>
        <pt x="466" y="786" on="1"/>
        <pt x="448" y="692" on="1"/>
        <pt x="397" y="688" on="0"/>
        <pt x="348" y="643" on="0"/>
        <pt x="338" y="601" on="1"/>
        <pt x="315" y="478" on="1"/>
        <pt x="301" y="419" on="0"/>
        <pt x="248" y="360" on="0"/>
      </contour>
    </TTGlyph>
    <TTGlyph name="braceright" xMin="-17" yMin="-133" xMax="370" yMax="753">
      <contour>
        <pt x="254" y="311" on="1"/>
        <pt x="192" y="342" on="0"/>
        <pt x="192" y="394" on="1"/>
        <pt x="192" y="421" on="0"/>
        <pt x="238" y="580" on="0"/>
        <pt x="238" y="602" on="1"/>
        <pt x="238" y="659" on="0"/>
        <pt x="167" y="659" on="1"/>
        <pt x="193" y="753" on="1"/>
        <pt x="265" y="752" on="0"/>
        <pt x="345" y="690" on="0"/>
        <pt x="345" y="633" on="1"/>
        <pt x="345" y="608" on="0"/>
        <pt x="301" y="446" on="0"/>
        <pt x="301" y="427" on="1"/>
        <pt x="301" y="376" on="0"/>
        <pt x="370" y="344" on="1"/>
        <pt x="351" y="264" on="1"/>
        <pt x="288" y="248" on="0"/>
        <pt x="246" y="207" on="0"/>
        <pt x="236" y="165" on="1"/>
        <pt x="232" y="150" on="0"/>
        <pt x="209" y="26" on="0"/>
        <pt x="208" y="22" on="1"/>
        <pt x="183" y="-60" on="0"/>
        <pt x="80" y="-129" on="0"/>
        <pt x="-17" y="-133" on="1"/>
        <pt x="1" y="-39" on="1"/>
        <pt x="52" y="-35" on="0"/>
        <pt x="101" y="10" on="0"/>
        <pt x="111" y="52" on="1"/>
        <pt x="134" y="175" on="1"/>
        <pt x="148" y="234" on="0"/>
        <pt x="201" y="293" on="0"/>
      </contour>
    </TTGlyph>
    <TTGlyph name="braceright.cap" xMin="-10" yMin="-103" xMax="377" yMax="783">
      <contour>
        <pt x="261" y="341" on="1"/>
        <pt x="199" y="372" on="0"/>
        <pt x="199" y="424" on="1"/>
        <pt x="199" y="451" on="0"/>
        <pt x="245" y="610" on="0"/>
        <pt x="245" y="632" on="1"/>
        <pt x="245" y="689" on="0"/>
        <pt x="174" y="689" on="1"/>
        <pt x="200" y="783" on="1"/>
        <pt x="272" y="782" on="0"/>
        <pt x="352" y="720" on="0"/>
        <pt x="352" y="663" on="1"/>
        <pt x="352" y="638" on="0"/>
        <pt x="308" y="476" on="0"/>
        <pt x="308" y="457" on="1"/>
        <pt x="308" y="406" on="0"/>
        <pt x="377" y="374" on="1"/>
        <pt x="358" y="294" on="1"/>
        <pt x="295" y="278" on="0"/>
        <pt x="253" y="237" on="0"/>
        <pt x="243" y="195" on="1"/>
        <pt x="239" y="180" on="0"/>
        <pt x="216" y="56" on="0"/>
        <pt x="215" y="52" on="1"/>
        <pt x="190" y="-30" on="0"/>
        <pt x="87" y="-99" on="0"/>
        <pt x="-10" y="-103" on="1"/>
        <pt x="8" y="-9" on="1"/>
        <pt x="59" y="-5" on="0"/>
        <pt x="108" y="40" on="0"/>
        <pt x="118" y="82" on="1"/>
        <pt x="141" y="205" on="1"/>
        <pt x="155" y="264" on="0"/>
        <pt x="208" y="323" on="0"/>
      </contour>
    </TTGlyph>
    <TTGlyph name="bracketleft" xMin="2" yMin="-122" xMax="419" yMax="747">
      <contour>
        <pt x="205" y="747" on="1"/>
        <pt x="419" y="747" on="1"/>
        <pt x="397" y="654" on="1"/>
        <pt x="295" y="654" on="1"/>
        <pt x="136" y="-29" on="1"/>
        <pt x="237" y="-29" on="1"/>
        <pt x="214" y="-122" on="1"/>
        <pt x="2" y="-122" on="1"/>
      </contour>
    </TTGlyph>
    <TTGlyph name="bracketleft.cap" xMin="8" yMin="-92" xMax="425" yMax="777">
      <contour>
        <pt x="211" y="777" on="1"/>
        <pt x="425" y="777" on="1"/>
        <pt x="403" y="684" on="1"/>
        <pt x="301" y="684" on="1"/>
        <pt x="142" y="1" on="1"/>
        <pt x="243" y="1" on="1"/>
        <pt x="220" y="-92" on="1"/>
        <pt x="8" y="-92" on="1"/>
      </contour>
    </TTGlyph>
    <TTGlyph name="bracketright" xMin="-16" yMin="-122" xMax="401" yMax="747">
      <contour>
        <pt x="198" y="-122" on="1"/>
        <pt x="-16" y="-122" on="1"/>
        <pt x="6" y="-29" on="1"/>
        <pt x="108" y="-29" on="1"/>
        <pt x="267" y="654" on="1"/>
        <pt x="166" y="654" on="1"/>
        <pt x="189" y="747" on="1"/>
        <pt x="401" y="747" on="1"/>
      </contour>
    </TTGlyph>
    <TTGlyph name="bracketright.cap" xMin="-9" yMin="-92" xMax="408" yMax="777">
      <contour>
        <pt x="205" y="-92" on="1"/>
        <pt x="-9" y="-92" on="1"/>
        <pt x="13" y="1" on="1"/>
        <pt x="115" y="1" on="1"/>
        <pt x="274" y="684" on="1"/>
        <pt x="173" y="684" on="1"/>
        <pt x="196" y="777" on="1"/>
        <pt x="408" y="777" on="1"/>
      </contour>
    </TTGlyph>
    <TTGlyph name="breve" xMin="219" yMin="591" xMax="544" yMax="739">
      <contour>
        <pt x="319" y="739" on="1"/>
        <pt x="318" y="732" on="0"/>
        <pt x="318" y="709" on="0"/>
        <pt x="338" y="681" on="0"/>
        <pt x="369" y="681" on="1"/>
        <pt x="428" y="681" on="0"/>
        <pt x="447" y="739" on="1"/>
        <pt x="544" y="739" on="1"/>
        <pt x="496" y="591" on="0"/>
        <pt x="342" y="591" on="1"/>
        <pt x="271" y="591" on="0"/>
        <pt x="241" y="630" on="1"/>
        <pt x="219" y="658" on="0"/>
        <pt x="219" y="703" on="1"/>
        <pt x="219" y="720" on="0"/>
        <pt x="222" y="739" on="1"/>
      </contour>
    </TTGlyph>
    <TTGlyph name="breve.cap" xMin="269" yMin="788" xMax="582" yMax="925">
      <contour>
        <pt x="369" y="913" on="1"/>
        <pt x="369" y="874" on="0"/>
        <pt x="415" y="874" on="1"/>
        <pt x="439" y="874" on="0"/>
        <pt x="476" y="902" on="0"/>
        <pt x="484" y="925" on="1"/>
        <pt x="582" y="925" on="1"/>
        <pt x="538" y="788" on="0"/>
        <pt x="397" y="788" on="1"/>
        <pt x="327" y="788" on="0"/>
        <pt x="270" y="850" on="0"/>
        <pt x="270" y="895" on="1"/>
        <pt x="270" y="909" on="0"/>
        <pt x="272" y="925" on="1"/>
        <pt x="370" y="925" on="1"/>
        <pt x="369" y="918" on="0"/>
      </contour>
    </TTGlyph>
    <TTGlyph name="brokenbar" xMin="166" yMin="-215" xMax="275" yMax="708">
      <contour>
        <pt x="166" y="708" on="1"/>
        <pt x="275" y="708" on="1"/>
        <pt x="275" y="335" on="1"/>
        <pt x="166" y="335" on="1"/>
      </contour>
      <contour>
        <pt x="166" y="164" on="1"/>
        <pt x="275" y="164" on="1"/>
        <pt x="275" y="-215" on="1"/>
        <pt x="166" y="-215" on="1"/>
      </contour>
    </TTGlyph>
    <TTGlyph name="bullet" xMin="166" yMin="103" xMax="416" yMax="385">
      <contour>
        <pt x="166" y="103" on="1"/>
        <pt x="166" y="385" on="1"/>
        <pt x="416" y="385" on="1"/>
        <pt x="416" y="103" on="1"/>
      </contour>
    </TTGlyph>
    <TTGlyph name="c" xMin="86" yMin="-11" xMax="487" yMax="511">
      <contour>
        <pt x="348" y="511" on="1"/>
        <pt x="405" y="511" on="0"/>
        <pt x="466" y="492" on="1"/>
        <pt x="487" y="485" on="1"/>
        <pt x="459" y="405" on="1"/>
        <pt x="387" y="417" on="0"/>
        <pt x="344" y="417" on="1"/>
        <pt x="273" y="417" on="0"/>
        <pt x="197" y="272" on="0"/>
        <pt x="197" y="83" on="0"/>
        <pt x="284" y="83" on="1"/>
        <pt x="327" y="83" on="0"/>
        <pt x="375" y="91" on="1"/>
        <pt x="393" y="94" on="1"/>
        <pt x="385" y="12" on="1"/>
        <pt x="314" y="-11" on="0"/>
        <pt x="171" y="-11" on="0"/>
        <pt x="86" y="75" on="0"/>
        <pt x="86" y="153" on="1"/>
        <pt x="86" y="307" on="0"/>
        <pt x="222" y="511" on="0"/>
      </contour>
    </TTGlyph>
    <TTGlyph name="cacute" xMin="86" yMin="-11" xMax="528" yMax="763">
      <contour>
        <pt x="348" y="511" on="1"/>
        <pt x="405" y="511" on="0"/>
        <pt x="466" y="492" on="1"/>
        <pt x="487" y="485" on="1"/>
        <pt x="459" y="405" on="1"/>
        <pt x="387" y="417" on="0"/>
        <pt x="344" y="417" on="1"/>
        <pt x="273" y="417" on="0"/>
        <pt x="197" y="272" on="0"/>
        <pt x="197" y="83" on="0"/>
        <pt x="284" y="83" on="1"/>
        <pt x="327" y="83" on="0"/>
        <pt x="375" y="91" on="1"/>
        <pt x="393" y="94" on="1"/>
        <pt x="385" y="12" on="1"/>
        <pt x="314" y="-11" on="0"/>
        <pt x="171" y="-11" on="0"/>
        <pt x="86" y="75" on="0"/>
        <pt x="86" y="153" on="1"/>
        <pt x="86" y="307" on="0"/>
        <pt x="222" y="511" on="0"/>
      </contour>
      <contour>
        <pt x="280" y="585" on="1"/>
        <pt x="271" y="671" on="1"/>
        <pt x="519" y="763" on="1"/>
        <pt x="528" y="666" on="1"/>
      </contour>
    </TTGlyph>
    <TTGlyph name="caron" xMin="405" yMin="580" xMax="718" yMax="745">
      <contour>
        <pt x="555" y="580" on="1"/>
        <pt x="488" y="580" on="1"/>
        <pt x="405" y="745" on="1"/>
        <pt x="504" y="745" on="1"/>
        <pt x="543" y="669" on="1"/>
        <pt x="612" y="745" on="1"/>
        <pt x="718" y="745" on="1"/>
      </contour>
    </TTGlyph>
    <TTGlyph name="caron.cap" xMin="259" yMin="783" xMax="585" yMax="928">
      <contour>
        <pt x="585" y="928" on="1"/>
        <pt x="427" y="783" on="1"/>
        <pt x="354" y="783" on="1"/>
        <pt x="259" y="928" on="1"/>
        <pt x="366" y="928" on="1"/>
        <pt x="408" y="860" on="1"/>
        <pt x="478" y="928" on="1"/>
      </contour>
    </TTGlyph>
    <TTGlyph name="ccaron" xMin="86" yMin="-11" xMax="567" yMax="745">
      <contour>
        <pt x="404" y="580" on="1"/>
        <pt x="337" y="580" on="1"/>
        <pt x="254" y="745" on="1"/>
        <pt x="353" y="745" on="1"/>
        <pt x="392" y="669" on="1"/>
        <pt x="461" y="745" on="1"/>
        <pt x="567" y="745" on="1"/>
      </contour>
      <contour>
        <pt x="348" y="511" on="1"/>
        <pt x="405" y="511" on="0"/>
        <pt x="466" y="492" on="1"/>
        <pt x="487" y="485" on="1"/>
        <pt x="459" y="405" on="1"/>
        <pt x="387" y="417" on="0"/>
        <pt x="344" y="417" on="1"/>
        <pt x="273" y="417" on="0"/>
        <pt x="197" y="272" on="0"/>
        <pt x="197" y="83" on="0"/>
        <pt x="284" y="83" on="1"/>
        <pt x="327" y="83" on="0"/>
        <pt x="375" y="91" on="1"/>
        <pt x="393" y="94" on="1"/>
        <pt x="385" y="12" on="1"/>
        <pt x="314" y="-11" on="0"/>
        <pt x="171" y="-11" on="0"/>
        <pt x="86" y="75" on="0"/>
        <pt x="86" y="153" on="1"/>
        <pt x="86" y="307" on="0"/>
        <pt x="222" y="511" on="0"/>
      </contour>
    </TTGlyph>
    <TTGlyph name="ccedilla" xMin="87" yMin="-221" xMax="488" yMax="511">
      <contour>
        <pt x="349" y="511" on="1"/>
        <pt x="406" y="511" on="0"/>
        <pt x="468" y="492" on="1"/>
        <pt x="488" y="485" on="1"/>
        <pt x="460" y="405" on="1"/>
        <pt x="388" y="417" on="0"/>
        <pt x="345" y="417" on="1"/>
        <pt x="274" y="417" on="0"/>
        <pt x="198" y="272" on="0"/>
        <pt x="198" y="83" on="0"/>
        <pt x="285" y="83" on="1"/>
        <pt x="328" y="83" on="0"/>
        <pt x="376" y="91" on="1"/>
        <pt x="394" y="94" on="1"/>
        <pt x="386" y="12" on="1"/>
        <pt x="320" y="-9" on="0"/>
        <pt x="255" y="-11" on="1"/>
        <pt x="248" y="-38" on="1"/>
        <pt x="254" y="-38" on="1"/>
        <pt x="343" y="-38" on="0"/>
        <pt x="343" y="-99" on="1"/>
        <pt x="343" y="-110" on="0"/>
        <pt x="340" y="-124" on="1"/>
        <pt x="317" y="-221" on="0"/>
        <pt x="220" y="-221" on="1"/>
        <pt x="188" y="-221" on="0"/>
        <pt x="149" y="-214" on="1"/>
        <pt x="138" y="-212" on="1"/>
        <pt x="155" y="-144" on="1"/>
        <pt x="188" y="-146" on="0"/>
        <pt x="208" y="-146" on="1"/>
        <pt x="246" y="-146" on="0"/>
        <pt x="253" y="-117" on="1"/>
        <pt x="257" y="-101" on="0"/>
        <pt x="240" y="-91" on="0"/>
        <pt x="221" y="-91" on="1"/>
        <pt x="192" y="-91" on="1"/>
        <pt x="211" y="-8" on="1"/>
        <pt x="152" y="1" on="0"/>
        <pt x="87" y="84" on="0"/>
        <pt x="87" y="153" on="1"/>
        <pt x="87" y="307" on="0"/>
        <pt x="223" y="511" on="0"/>
      </contour>
    </TTGlyph>
    <TTGlyph name="ccircumflex" xMin="86" yMin="-11" xMax="520" yMax="745">
      <contour>
        <pt x="348" y="511" on="1"/>
        <pt x="405" y="511" on="0"/>
        <pt x="466" y="492" on="1"/>
        <pt x="487" y="485" on="1"/>
        <pt x="459" y="405" on="1"/>
        <pt x="387" y="417" on="0"/>
        <pt x="344" y="417" on="1"/>
        <pt x="273" y="417" on="0"/>
        <pt x="197" y="272" on="0"/>
        <pt x="197" y="83" on="0"/>
        <pt x="284" y="83" on="1"/>
        <pt x="327" y="83" on="0"/>
        <pt x="375" y="91" on="1"/>
        <pt x="393" y="94" on="1"/>
        <pt x="385" y="12" on="1"/>
        <pt x="314" y="-11" on="0"/>
        <pt x="171" y="-11" on="0"/>
        <pt x="86" y="75" on="0"/>
        <pt x="86" y="153" on="1"/>
        <pt x="86" y="307" on="0"/>
        <pt x="222" y="511" on="0"/>
      </contour>
      <contour>
        <pt x="209" y="580" on="1"/>
        <pt x="371" y="745" on="1"/>
        <pt x="434" y="745" on="1"/>
        <pt x="520" y="580" on="1"/>
        <pt x="421" y="580" on="1"/>
        <pt x="386" y="654" on="1"/>
        <pt x="315" y="580" on="1"/>
      </contour>
    </TTGlyph>
    <TTGlyph name="cdotaccent" xMin="86" yMin="-11" xMax="487" yMax="708">
      <contour>
        <pt x="348" y="511" on="1"/>
        <pt x="405" y="511" on="0"/>
        <pt x="466" y="492" on="1"/>
        <pt x="487" y="485" on="1"/>
        <pt x="459" y="405" on="1"/>
        <pt x="387" y="417" on="0"/>
        <pt x="344" y="417" on="1"/>
        <pt x="273" y="417" on="0"/>
        <pt x="197" y="272" on="0"/>
        <pt x="197" y="83" on="0"/>
        <pt x="284" y="83" on="1"/>
        <pt x="327" y="83" on="0"/>
        <pt x="375" y="91" on="1"/>
        <pt x="393" y="94" on="1"/>
        <pt x="385" y="12" on="1"/>
        <pt x="314" y="-11" on="0"/>
        <pt x="171" y="-11" on="0"/>
        <pt x="86" y="75" on="0"/>
        <pt x="86" y="153" on="1"/>
        <pt x="86" y="307" on="0"/>
        <pt x="222" y="511" on="0"/>
      </contour>
      <contour>
        <pt x="315" y="592" on="1"/>
        <pt x="342" y="708" on="1"/>
        <pt x="435" y="708" on="1"/>
        <pt x="408" y="592" on="1"/>
      </contour>
    </TTGlyph>
    <TTGlyph name="cedilla" xMin="301" yMin="-221" xMax="507" yMax="5">
      <contour>
        <pt x="383" y="-221" on="1"/>
        <pt x="351" y="-221" on="0"/>
        <pt x="312" y="-214" on="1"/>
        <pt x="301" y="-212" on="1"/>
        <pt x="318" y="-144" on="1"/>
        <pt x="351" y="-146" on="0"/>
        <pt x="371" y="-146" on="1"/>
        <pt x="409" y="-146" on="0"/>
        <pt x="416" y="-117" on="1"/>
        <pt x="420" y="-101" on="0"/>
        <pt x="403" y="-91" on="0"/>
        <pt x="384" y="-91" on="1"/>
        <pt x="355" y="-91" on="1"/>
        <pt x="377" y="5" on="1"/>
        <pt x="423" y="5" on="1"/>
        <pt x="411" y="-38" on="1"/>
        <pt x="417" y="-38" on="1"/>
        <pt x="506" y="-38" on="0"/>
        <pt x="506" y="-99" on="1"/>
        <pt x="506" y="-110" on="0"/>
        <pt x="503" y="-124" on="1"/>
        <pt x="480" y="-221" on="0"/>
      </contour>
    </TTGlyph>
    <TTGlyph name="cent" xMin="150" yMin="-77" xMax="547" yMax="575">
      <contour>
        <pt x="173" y="74" on="0"/>
        <pt x="152" y="135" on="0"/>
        <pt x="150" y="178" on="0"/>
        <pt x="150" y="216" on="0"/>
        <pt x="160" y="249" on="1"/>
        <pt x="186" y="352" on="0"/>
        <pt x="301" y="461" on="0"/>
        <pt x="382" y="466" on="1"/>
        <pt x="407" y="575" on="1"/>
        <pt x="495" y="575" on="1"/>
        <pt x="468" y="464" on="1"/>
        <pt x="547" y="454" on="1"/>
        <pt x="520" y="362" on="1"/>
        <pt x="444" y="367" on="0"/>
        <pt x="408" y="367" on="1"/>
        <pt x="346" y="367" on="0"/>
        <pt x="280" y="310" on="0"/>
        <pt x="265" y="249" on="1"/>
        <pt x="258" y="222" on="0"/>
        <pt x="258" y="176" on="0"/>
        <pt x="268" y="161" on="1"/>
        <pt x="286" y="133" on="0"/>
        <pt x="355" y="133" on="1"/>
        <pt x="470" y="138" on="1"/>
        <pt x="452" y="46" on="1"/>
        <pt x="406" y="40" on="0"/>
        <pt x="367" y="38" on="1"/>
        <pt x="341" y="-77" on="1"/>
        <pt x="254" y="-77" on="1"/>
        <pt x="278" y="32" on="1"/>
        <pt x="233" y="34" on="0"/>
      </contour>
    </TTGlyph>
    <TTGlyph name="circumflex" xMin="367" yMin="580" xMax="678" yMax="745">
      <contour>
        <pt x="367" y="580" on="1"/>
        <pt x="529" y="745" on="1"/>
        <pt x="592" y="745" on="1"/>
        <pt x="678" y="580" on="1"/>
        <pt x="579" y="580" on="1"/>
        <pt x="544" y="654" on="1"/>
        <pt x="473" y="580" on="1"/>
      </contour>
    </TTGlyph>
    <TTGlyph name="circumflex.cap.001" xMin="227" yMin="785" xMax="556" yMax="931">
      <contour>
        <pt x="227" y="785" on="1"/>
        <pt x="397" y="931" on="1"/>
        <pt x="460" y="931" on="1"/>
        <pt x="556" y="785" on="1"/>
        <pt x="457" y="785" on="1"/>
        <pt x="419" y="851" on="1"/>
        <pt x="342" y="785" on="1"/>
      </contour>
    </TTGlyph>
    <TTGlyph name="colon" xMin="26" yMin="0" xMax="239" yMax="446">
      <contour>
        <pt x="99" y="311" on="1"/>
        <pt x="129" y="446" on="1"/>
        <pt x="239" y="446" on="1"/>
        <pt x="209" y="311" on="1"/>
      </contour>
      <contour>
        <pt x="26" y="0" on="1"/>
        <pt x="56" y="135" on="1"/>
        <pt x="166" y="135" on="1"/>
        <pt x="136" y="0" on="1"/>
      </contour>
    </TTGlyph>
    <TTGlyph name="comma" xMin="-35" yMin="-130" xMax="193" yMax="135">
      <contour>
        <pt x="54" y="-130" on="1"/>
        <pt x="-35" y="-130" on="1"/>
        <pt x="74" y="135" on="1"/>
        <pt x="193" y="135" on="1"/>
      </contour>
    </TTGlyph>
    <TTGlyph name="commaaccent" xMin="-63" yMin="-298" xMax="129" yMax="-72">
      <contour>
        <pt x="-63" y="-298" on="1"/>
        <pt x="30" y="-72" on="1"/>
        <pt x="129" y="-72" on="1"/>
        <pt x="27" y="-298" on="1"/>
      </contour>
    </TTGlyph>
    <TTGlyph name="copyright" xMin="151" yMin="155" xMax="692" yMax="713">
      <contour>
        <pt x="305" y="155" on="0"/>
        <pt x="151" y="316" on="0"/>
        <pt x="151" y="554" on="0"/>
        <pt x="305" y="713" on="0"/>
        <pt x="541" y="713" on="0"/>
        <pt x="692" y="551" on="0"/>
        <pt x="692" y="314" on="0"/>
        <pt x="541" y="155" on="0"/>
      </contour>
      <contour>
        <pt x="205" y="528" on="0"/>
        <pt x="205" y="340" on="0"/>
        <pt x="328" y="208" on="0"/>
        <pt x="513" y="208" on="0"/>
        <pt x="637" y="339" on="0"/>
        <pt x="637" y="528" on="0"/>
        <pt x="513" y="661" on="0"/>
        <pt x="329" y="661" on="0"/>
      </contour>
      <contour>
        <pt x="430" y="595" on="1"/>
        <pt x="468" y="595" on="0"/>
        <pt x="509" y="582" on="1"/>
        <pt x="503" y="510" on="1"/>
        <pt x="467" y="517" on="0"/>
        <pt x="408" y="517" on="0"/>
        <pt x="389" y="482" on="0"/>
        <pt x="389" y="391" on="0"/>
        <pt x="409" y="351" on="0"/>
        <pt x="435" y="351" on="1"/>
        <pt x="503" y="357" on="1"/>
        <pt x="509" y="288" on="1"/>
        <pt x="477" y="272" on="0"/>
        <pt x="360" y="272" on="0"/>
        <pt x="304" y="345" on="0"/>
        <pt x="304" y="523" on="0"/>
        <pt x="362" y="595" on="0"/>
      </contour>
    </TTGlyph>
    <TTGlyph name="currency" xMin="101" yMin="14" xMax="576" yMax="490">
      <contour>
        <pt x="387" y="62" on="0"/>
        <pt x="290" y="62" on="0"/>
        <pt x="247" y="86" on="1"/>
        <pt x="176" y="14" on="1"/>
        <pt x="101" y="89" on="1"/>
        <pt x="172" y="160" on="1"/>
        <pt x="149" y="203" on="0"/>
        <pt x="149" y="301" on="0"/>
        <pt x="172" y="343" on="1"/>
        <pt x="101" y="415" on="1"/>
        <pt x="176" y="490" on="1"/>
        <pt x="247" y="418" on="1"/>
        <pt x="290" y="441" on="0"/>
        <pt x="387" y="441" on="0"/>
        <pt x="430" y="418" on="1"/>
        <pt x="501" y="490" on="1"/>
        <pt x="576" y="415" on="1"/>
        <pt x="504" y="343" on="1"/>
        <pt x="527" y="301" on="0"/>
        <pt x="527" y="203" on="0"/>
        <pt x="504" y="160" on="1"/>
        <pt x="576" y="89" on="1"/>
        <pt x="501" y="14" on="1"/>
        <pt x="430" y="86" on="1"/>
      </contour>
      <contour>
        <pt x="301" y="162" on="0"/>
        <pt x="376" y="162" on="0"/>
        <pt x="428" y="214" on="0"/>
        <pt x="428" y="290" on="0"/>
        <pt x="376" y="342" on="0"/>
        <pt x="301" y="342" on="0"/>
        <pt x="249" y="290" on="0"/>
        <pt x="249" y="214" on="0"/>
      </contour>
    </TTGlyph>
    <TTGlyph name="d" xMin="84" yMin="-11" xMax="620" yMax="708">
      <contour>
        <pt x="220" y="-11" on="1"/>
        <pt x="153" y="-11" on="0"/>
        <pt x="84" y="73" on="0"/>
        <pt x="84" y="239" on="0"/>
        <pt x="139" y="398" on="0"/>
        <pt x="257" y="510" on="0"/>
        <pt x="335" y="510" on="1"/>
        <pt x="374" y="510" on="0"/>
        <pt x="440" y="496" on="1"/>
        <pt x="461" y="491" on="1"/>
        <pt x="511" y="708" on="1"/>
        <pt x="620" y="708" on="1"/>
        <pt x="456" y="0" on="1"/>
        <pt x="351" y="0" on="1"/>
        <pt x="364" y="68" on="1"/>
        <pt x="357" y="59" on="0"/>
        <pt x="331" y="33" on="0"/>
        <pt x="255" y="-11" on="0"/>
      </contour>
      <contour>
        <pt x="441" y="404" on="1"/>
        <pt x="380" y="418" on="0"/>
        <pt x="292" y="418" on="0"/>
        <pt x="225" y="328" on="0"/>
        <pt x="194" y="209" on="0"/>
        <pt x="194" y="153" on="1"/>
        <pt x="194" y="81" on="0"/>
        <pt x="255" y="81" on="1"/>
        <pt x="277" y="81" on="0"/>
        <pt x="344" y="127" on="0"/>
        <pt x="366" y="150" on="1"/>
        <pt x="388" y="173" on="1"/>
      </contour>
    </TTGlyph>
    <TTGlyph name="dagger" xMin="118" yMin="-72" xMax="536" yMax="676">
      <contour>
        <pt x="118" y="387" on="1"/>
        <pt x="143" y="497" on="1"/>
        <pt x="289" y="497" on="1"/>
        <pt x="331" y="676" on="1"/>
        <pt x="432" y="676" on="1"/>
        <pt x="391" y="497" on="1"/>
        <pt x="536" y="497" on="1"/>
        <pt x="512" y="387" on="1"/>
        <pt x="365" y="388" on="1"/>
        <pt x="256" y="-72" on="1"/>
        <pt x="156" y="-72" on="1"/>
        <pt x="263" y="387" on="1"/>
      </contour>
    </TTGlyph>
    <TTGlyph name="daggerdbl" xMin="65" yMin="-72" xMax="550" yMax="676">
      <contour>
        <pt x="170" y="-72" on="1"/>
        <pt x="211" y="106" on="1"/>
        <pt x="65" y="106" on="1"/>
        <pt x="90" y="215" on="1"/>
        <pt x="237" y="214" on="1"/>
        <pt x="277" y="387" on="1"/>
        <pt x="132" y="387" on="1"/>
        <pt x="157" y="497" on="1"/>
        <pt x="304" y="496" on="1"/>
        <pt x="346" y="676" on="1"/>
        <pt x="447" y="676" on="1"/>
        <pt x="405" y="497" on="1"/>
        <pt x="550" y="497" on="1"/>
        <pt x="526" y="387" on="1"/>
        <pt x="380" y="388" on="1"/>
        <pt x="338" y="215" on="1"/>
        <pt x="485" y="215" on="1"/>
        <pt x="459" y="106" on="1"/>
        <pt x="312" y="106" on="1"/>
        <pt x="270" y="-72" on="1"/>
      </contour>
    </TTGlyph>
    <TTGlyph name="dcaron" xMin="84" yMin="-11" xMax="768" yMax="708">
      <contour>
        <pt x="768" y="685" on="1"/>
        <pt x="710" y="442" on="1"/>
        <pt x="611" y="442" on="1"/>
        <pt x="670" y="685" on="1"/>
      </contour>
      <contour>
        <pt x="220" y="-11" on="1"/>
        <pt x="153" y="-11" on="0"/>
        <pt x="84" y="73" on="0"/>
        <pt x="84" y="239" on="0"/>
        <pt x="139" y="398" on="0"/>
        <pt x="257" y="510" on="0"/>
        <pt x="335" y="510" on="1"/>
        <pt x="374" y="510" on="0"/>
        <pt x="440" y="496" on="1"/>
        <pt x="461" y="491" on="1"/>
        <pt x="511" y="708" on="1"/>
        <pt x="620" y="708" on="1"/>
        <pt x="456" y="0" on="1"/>
        <pt x="351" y="0" on="1"/>
        <pt x="364" y="68" on="1"/>
        <pt x="357" y="59" on="0"/>
        <pt x="331" y="33" on="0"/>
        <pt x="255" y="-11" on="0"/>
      </contour>
      <contour>
        <pt x="441" y="404" on="1"/>
        <pt x="380" y="418" on="0"/>
        <pt x="292" y="418" on="0"/>
        <pt x="225" y="328" on="0"/>
        <pt x="194" y="209" on="0"/>
        <pt x="194" y="153" on="1"/>
        <pt x="194" y="81" on="0"/>
        <pt x="255" y="81" on="1"/>
        <pt x="277" y="81" on="0"/>
        <pt x="344" y="127" on="0"/>
        <pt x="366" y="150" on="1"/>
        <pt x="388" y="173" on="1"/>
      </contour>
    </TTGlyph>
    <TTGlyph name="dcroat" xMin="84" yMin="-11" xMax="664" yMax="708">
      <contour>
        <pt x="220" y="-11" on="1"/>
        <pt x="153" y="-11" on="0"/>
        <pt x="84" y="73" on="0"/>
        <pt x="84" y="239" on="0"/>
        <pt x="139" y="398" on="0"/>
        <pt x="257" y="510" on="0"/>
        <pt x="335" y="510" on="1"/>
        <pt x="374" y="510" on="0"/>
        <pt x="440" y="496" on="1"/>
        <pt x="461" y="491" on="1"/>
        <pt x="478" y="565" on="1"/>
        <pt x="347" y="565" on="1"/>
        <pt x="369" y="663" on="1"/>
        <pt x="500" y="663" on="1"/>
        <pt x="511" y="708" on="1"/>
        <pt x="620" y="708" on="1"/>
        <pt x="609" y="663" on="1"/>
        <pt x="664" y="663" on="1"/>
        <pt x="641" y="565" on="1"/>
        <pt x="587" y="565" on="1"/>
        <pt x="456" y="0" on="1"/>
        <pt x="351" y="0" on="1"/>
        <pt x="364" y="68" on="1"/>
        <pt x="357" y="59" on="0"/>
        <pt x="331" y="33" on="0"/>
        <pt x="255" y="-11" on="0"/>
      </contour>
      <contour>
        <pt x="441" y="404" on="1"/>
        <pt x="380" y="418" on="0"/>
        <pt x="292" y="418" on="0"/>
        <pt x="225" y="328" on="0"/>
        <pt x="194" y="209" on="0"/>
        <pt x="194" y="153" on="1"/>
        <pt x="194" y="81" on="0"/>
        <pt x="255" y="81" on="1"/>
        <pt x="277" y="81" on="0"/>
        <pt x="344" y="127" on="0"/>
        <pt x="366" y="150" on="1"/>
        <pt x="388" y="173" on="1"/>
      </contour>
    </TTGlyph>
    <TTGlyph name="degree" xMin="260" yMin="405" xMax="553" yMax="696">
      <contour>
        <pt x="260" y="485" on="0"/>
        <pt x="260" y="615" on="0"/>
        <pt x="342" y="696" on="0"/>
        <pt x="472" y="696" on="0"/>
        <pt x="553" y="615" on="0"/>
        <pt x="553" y="485" on="0"/>
        <pt x="472" y="405" on="0"/>
        <pt x="342" y="405" on="0"/>
      </contour>
      <contour>
        <pt x="325" y="587" on="0"/>
        <pt x="325" y="513" on="0"/>
        <pt x="370" y="467" on="0"/>
        <pt x="444" y="467" on="0"/>
        <pt x="491" y="513" on="0"/>
        <pt x="491" y="587" on="0"/>
        <pt x="444" y="634" on="0"/>
        <pt x="370" y="634" on="0"/>
      </contour>
    </TTGlyph>
    <TTGlyph name="dieresis" xMin="227" yMin="609" xMax="532" yMax="726">
      <contour>
        <pt x="227" y="609" on="1"/>
        <pt x="254" y="726" on="1"/>
        <pt x="343" y="726" on="1"/>
        <pt x="316" y="609" on="1"/>
      </contour>
      <contour>
        <pt x="416" y="609" on="1"/>
        <pt x="442" y="726" on="1"/>
        <pt x="532" y="726" on="1"/>
        <pt x="504" y="609" on="1"/>
      </contour>
    </TTGlyph>
    <TTGlyph name="dieresis.cap" xMin="268" yMin="799" xMax="579" yMax="916">
      <contour>
        <pt x="268" y="799" on="1"/>
        <pt x="295" y="916" on="1"/>
        <pt x="385" y="916" on="1"/>
        <pt x="357" y="799" on="1"/>
      </contour>
      <contour>
        <pt x="462" y="799" on="1"/>
        <pt x="489" y="916" on="1"/>
        <pt x="579" y="916" on="1"/>
        <pt x="550" y="799" on="1"/>
      </contour>
    </TTGlyph>
</ttFont>
